<?xml version="1.0" encoding="utf-8"?>
<!-- Generator: Adobe Illustrator 21.0.2, SVG Export Plug-In . SVG Version: 6.00 Build 0)  -->
<svg version="1.1" id="Слой_2" xmlns="http://www.w3.org/2000/svg" xmlns:xlink="http://www.w3.org/1999/xlink" x="0px" y="0px"
	 width="53.533px" height="41.229px" viewBox="0 0 53.533 41.229" enable-background="new 0 0 53.533 41.229" xml:space="preserve">
<g>
	<g>
		<path fill="#2E53A1" d="M0.611,0.581v39.626h51.183V0.581H0.611z"/>
	</g>
	<g>
		<path fill="#FFFFFF" d="M22.258,29.272l-9.452-9.452c-0.595-0.595-0.595-1.56,0-2.155c0.595-0.595,1.56-0.595,2.155,0l7.297,7.297
			l14.043-14.043c0.595-0.595,1.56-0.595,2.155,0c0.595,0.595,0.595,1.56,0,2.155L22.258,29.272z"/>
	</g>
	<g>
		<path d="M51.754,40.778H0.572C0.256,40.778,0,40.522,0,40.207V0.581C0,0.266,0.256,0.01,0.572,0.01h51.183
			c0.316,0,0.572,0.256,0.572,0.572v39.626C52.326,40.522,52.07,40.778,51.754,40.778z M1.143,39.635h50.04V1.153H1.143V39.635z"/>
	</g>
	<g>
		<polygon points="53.533,41.229 0.016,41.229 0.016,38.943 51.247,38.943 51.247,0 53.533,0 		"/>
	</g>
</g>
</svg>
