<?xml version="1.0" encoding="utf-8"?>
<!-- Generator: Adobe Illustrator 21.0.2, SVG Export Plug-In . SVG Version: 6.00 Build 0)  -->
<svg version="1.1" id="Слой_2" xmlns="http://www.w3.org/2000/svg" xmlns:xlink="http://www.w3.org/1999/xlink" x="0px" y="0px"
	 width="53.619px" height="53.539px" viewBox="0 0 53.619 53.539" enable-background="new 0 0 53.619 53.539" xml:space="preserve">
<g>
	<g>
		<g>
			<g>
				<path fill="#FFFFFF" d="M15.042,32.967c0,10.337,8.38,18.717,18.717,18.717c2.514,0,4.913-0.496,7.103-1.395
					c1.86-0.764,9.25,2.166,10.754,0.878c1.859-1.594-2.278-7.531-1.159-9.735c0.117-0.23,0.229-0.464,0.337-0.699
					c1.08-2.365,1.682-4.995,1.682-7.765c0-10.337-8.38-18.717-18.717-18.717S15.042,22.63,15.042,32.967z"/>
			</g>
			<g>
				<path d="M33.759,13.108c10.95,0,19.86,8.909,19.86,19.86c0,3.16-0.721,6.183-2.142,8.981c-0.307,0.604-0.65,1.18-1.01,1.742
					l-0.809-3.242c1.107-2.344,1.675-4.856,1.675-7.48c0-9.69-7.884-17.574-17.574-17.574s-17.574,7.884-17.574,17.574
					S24.069,50.54,33.759,50.54c2.449,0,4.808-0.503,6.965-1.43l3.49,0.758c-3.075,1.902-6.672,2.959-10.455,2.959
					c-10.95,0-19.86-8.908-19.86-19.859S22.809,13.108,33.759,13.108z"/>
			</g>
			<g>
				<path d="M40.231,49.532l0.435-0.435l10.225,1.794l-1.233-10.443l0,0c0.074-0.128,0.176-0.363,0.282-0.625l0.165-0.165
					c0.292-0.292,0.723-0.404,1.118-0.292c0.399,0.112,0.705,0.432,0.801,0.834l1.513,11.931c0.092,0.383-0.02,0.785-0.295,1.066
					c-0.217,0.222-0.513,0.343-0.816,0.343c-0.081,0-0.163-0.009-0.244-0.026l-11.387-2.056c-0.408-0.089-0.735-0.394-0.853-0.796
					S39.935,49.827,40.231,49.532z"/>
			</g>
		</g>
	</g>
	<g>
		<g>
			<path fill="#FFFFFF" d="M38.577,19.859c0,10.337-8.38,18.717-18.717,18.717c-2.832,0-5.518-0.629-7.924-1.755
				c-2.04-0.955-8.103,3.146-9.661,1.557c-1.335-1.361,1.759-8.338,0.887-10.055c-0.179-0.352-0.347-0.711-0.504-1.076
				c-0.975-2.266-1.514-4.764-1.514-7.388c0-10.337,8.38-18.717,18.717-18.717S38.577,9.523,38.577,19.859z"/>
		</g>
		<g>
			<path d="M19.86,0C8.909,0,0,8.909,0,19.86c0,3.16,0.721,6.183,2.142,8.981c0.307,0.604,0.65,1.18,1.01,1.742l0.809-3.242
				c-1.107-2.344-1.675-4.856-1.675-7.48c0-9.69,7.884-17.574,17.574-17.574S37.433,10.17,37.433,19.86S29.55,37.433,19.86,37.433
				c-2.449,0-4.808-0.503-6.965-1.43l-3.49,0.758c3.075,1.902,6.672,2.959,10.455,2.959c10.95,0,19.86-8.908,19.86-19.859
				S30.81,0,19.86,0z"/>
		</g>
		<g>
			<path d="M13.388,36.424l-0.435-0.435L2.728,37.783L3.961,27.34l0,0c-0.074-0.128-0.176-0.363-0.282-0.625L3.514,26.55
				c-0.292-0.292-0.723-0.404-1.118-0.292c-0.399,0.112-0.705,0.432-0.801,0.834L0.081,39.023c-0.092,0.383,0.02,0.785,0.295,1.066
				c0.217,0.222,0.513,0.343,0.816,0.343c0.081,0,0.163-0.009,0.244-0.026l11.387-2.056c0.408-0.089,0.735-0.394,0.853-0.796
				C13.795,37.153,13.684,36.72,13.388,36.424z"/>
		</g>
	</g>
	<g>
		<g>
			<g>
				<path fill="#F8AB0E" d="M10.897,19.858c0-1.243,0.841-2.116,2.018-2.116c1.175,0,1.982,0.873,1.982,2.116
					c0,1.213-0.772,2.119-2.018,2.119C11.702,21.977,10.897,21.071,10.897,19.858z"/>
			</g>
		</g>
		<g>
			<g>
				<path fill="#F8AB0E" d="M17.86,19.858c0-1.243,0.841-2.116,2.015-2.116c1.177,0,1.985,0.873,1.985,2.116
					c0,1.213-0.772,2.119-2.018,2.119C18.665,21.977,17.86,21.071,17.86,19.858z"/>
			</g>
		</g>
		<g>
			<g>
				<path fill="#F8AB0E" d="M24.822,19.858c0-1.243,0.841-2.116,2.018-2.116c1.175,0,1.982,0.873,1.982,2.116
					c0,1.213-0.772,2.119-2.018,2.119C25.627,21.977,24.822,21.071,24.822,19.858z"/>
			</g>
		</g>
	</g>
</g>
</svg>
