<?xml version="1.0" encoding="utf-8"?>
<!-- Generator: Adobe Illustrator 21.0.2, SVG Export Plug-In . SVG Version: 6.00 Build 0)  -->
<svg version="1.1" id="Слой_2" xmlns="http://www.w3.org/2000/svg" xmlns:xlink="http://www.w3.org/1999/xlink" x="0px" y="0px"
	 width="53.578px" height="53.457px" viewBox="0 0 53.578 53.457" enable-background="new 0 0 53.578 53.457" xml:space="preserve">
<g>
	<g>
		<polygon fill="#FFFFFF" points="47.447,26.294 51.927,26.294 47.447,13.198 47.447,11.624 46.909,11.624 45.735,8.195 
			30.525,8.195 30.525,0.467 22.981,0.467 22.981,8.195 7.824,8.195 6.654,11.624 6.452,11.624 6.452,12.216 1.646,26.294 
			6.452,26.294 6.452,32.127 6.452,52.286 14.194,52.286 14.194,32.127 39.312,32.127 39.312,52.286 47.054,52.286 47.054,32.127 
			47.447,32.127 		"/>
	</g>
	<g>
		<path d="M48.59,53.457H5.254v-28.57H48.59V53.457z M7.54,51.171h38.764V27.173H7.54V51.171z"/>
	</g>
	<g>
		<polygon points="53.578,27.173 0,27.173 7.71,6.482 22.981,6.482 22.981,8.769 9.298,8.769 3.292,24.887 50.276,24.887 
			44.211,8.769 30.525,8.769 30.525,6.482 45.793,6.482 		"/>
	</g>
	<g>
		<path fill="#2E53A1" d="M25.064,49.168l-6.386-6.386c-0.595-0.595-0.595-1.561,0-2.155c0.595-0.595,1.56-0.595,2.155,0
			l4.231,4.231l8.507-8.507c0.595-0.595,1.56-0.595,2.155,0c0.595,0.595,0.595,1.56,0,2.155L25.064,49.168z"/>
	</g>
	<g>
		<path d="M30.525,11.454h-7.544c-0.274,0-0.496-0.222-0.496-0.496V0.496C22.485,0.222,22.707,0,22.981,0h7.544
			c0.274,0,0.496,0.222,0.496,0.496v10.463C31.021,11.233,30.799,11.454,30.525,11.454z M23.476,10.463h6.553V0.991h-6.553V10.463z"
			/>
	</g>
	<g>
		<path d="M39.312,52.809H14.194c-0.274,0-0.496-0.222-0.496-0.496V32.127c0-0.274,0.222-0.496,0.496-0.496h25.117
			c0.274,0,0.496,0.222,0.496,0.496v20.187C39.807,52.588,39.585,52.809,39.312,52.809z M14.69,51.818h24.126V32.622H14.69V51.818z"
			/>
	</g>
	<g>
		<path d="M47.493,15.704H6.014c-0.274,0-0.496-0.222-0.496-0.496s0.222-0.496,0.496-0.496h41.479c0.274,0,0.496,0.222,0.496,0.496
			S47.767,15.704,47.493,15.704z"/>
	</g>
</g>
</svg>
