<?xml version="1.0" encoding="utf-8"?>
<!-- Generator: Adobe Illustrator 21.0.2, SVG Export Plug-In . SVG Version: 6.00 Build 0)  -->
<svg version="1.1" id="Слой_2" xmlns="http://www.w3.org/2000/svg" xmlns:xlink="http://www.w3.org/1999/xlink" x="0px" y="0px"
	 width="45.4px" height="53.519px" viewBox="0 0 45.4 53.519" enable-background="new 0 0 45.4 53.519" xml:space="preserve">
<g>
	<g>
		<rect x="8.028" y="31.738" fill="#FFFFFF" width="26.608" height="14.987"/>
	</g>
	<g>
		<g>
			<rect x="8.028" y="10.667" width="26.576" height="0.991"/>
		</g>
		<g>
			<rect x="8.028" y="13.81" width="26.576" height="0.991"/>
		</g>
		<g>
			<rect x="8.028" y="17.239" width="26.576" height="0.991"/>
		</g>
		<g>
			<rect x="8.028" y="20.383" width="26.576" height="0.991"/>
		</g>
	</g>
	<g>
		<path d="M44.257,52.236H0.496C0.222,52.236,0,52.015,0,51.741V0.496C0,0.222,0.222,0,0.496,0h43.761
			c0.274,0,0.496,0.222,0.496,0.496v51.245C44.752,52.015,44.531,52.236,44.257,52.236z M0.991,51.245h42.77V0.991H0.991V51.245z"/>
	</g>
	<g>
		<path d="M34.636,47.22H8.028c-0.274,0-0.496-0.222-0.496-0.496V31.737c0-0.274,0.222-0.496,0.496-0.496h26.608
			c0.274,0,0.496,0.222,0.496,0.496v14.987C35.132,46.998,34.91,47.22,34.636,47.22z M8.524,46.229H34.14V32.233H8.524V46.229z"/>
	</g>
	<g>
		<polygon points="45.4,53.519 4.171,53.519 4.171,51.233 43.114,51.233 43.114,0.002 45.4,0.002 		"/>
	</g>
	<g>
		<path fill="#5BB460" d="M23.445,45.055l-7.936-7.936c-0.595-0.595-0.595-1.56,0-2.155c0.595-0.595,1.56-0.595,2.155,0l5.781,5.781
			L34.75,29.44c0.595-0.595,1.56-0.595,2.155,0c0.595,0.595,0.595,1.56,0,2.155L23.445,45.055z"/>
	</g>
</g>
</svg>
