<?xml version="1.0" encoding="utf-8"?>
<!-- Generator: Adobe Illustrator 21.0.2, SVG Export Plug-In . SVG Version: 6.00 Build 0)  -->
<svg version="1.1" id="Слой_2" xmlns="http://www.w3.org/2000/svg" xmlns:xlink="http://www.w3.org/1999/xlink" x="0px" y="0px"
	 width="53.657px" height="53.457px" viewBox="0 0 53.657 53.457" enable-background="new 0 0 53.657 53.457" xml:space="preserve">
<g>
	<g>
		<g>
			<path fill="#F8AB0E" d="M52.866,40.392c-0.274,0-0.496-0.222-0.496-0.496v-1.524c0-0.274,0.222-0.496,0.496-0.496
				s0.496,0.222,0.496,0.496v1.524C53.362,40.17,53.14,40.392,52.866,40.392z"/>
		</g>
		<g>
			<path fill="#F8AB0E" d="M52.866,36.292c-0.274,0-0.496-0.222-0.496-0.496V33.22c0-0.274,0.222-0.496,0.496-0.496
				s0.496,0.222,0.496,0.496v2.576C53.362,36.07,53.14,36.292,52.866,36.292z M52.866,31.139c-0.274,0-0.496-0.222-0.496-0.496
				v-2.577c0-0.274,0.222-0.496,0.496-0.496s0.496,0.222,0.496,0.496v2.577C53.362,30.917,53.14,31.139,52.866,31.139z
				 M52.866,25.986c-0.274,0-0.496-0.222-0.496-0.496v-2.576c0-0.274,0.222-0.496,0.496-0.496s0.496,0.222,0.496,0.496v2.576
				C53.362,25.764,53.14,25.986,52.866,25.986z"/>
		</g>
		<g>
			<path fill="#F8AB0E" d="M52.866,20.833c-0.274,0-0.496-0.222-0.496-0.496v-1.028h-1.028c-0.274,0-0.496-0.222-0.496-0.496
				s0.222-0.496,0.496-0.496h1.524c0.274,0,0.496,0.222,0.496,0.496v1.524C53.362,20.611,53.14,20.833,52.866,20.833z"/>
		</g>
		<g>
			<path fill="#F8AB0E" d="M48.606,19.309H45.87c-0.274,0-0.496-0.222-0.496-0.496s0.222-0.496,0.496-0.496h2.736
				c0.274,0,0.496,0.222,0.496,0.496S48.88,19.309,48.606,19.309z M43.134,19.309h-2.736c-0.274,0-0.496-0.222-0.496-0.496
				s0.222-0.496,0.496-0.496h2.736c0.274,0,0.496,0.222,0.496,0.496S43.408,19.309,43.134,19.309z M37.663,19.309h-2.736
				c-0.274,0-0.496-0.222-0.496-0.496s0.222-0.496,0.496-0.496h2.736c0.274,0,0.496,0.222,0.496,0.496S37.936,19.309,37.663,19.309z
				 M32.191,19.309h-2.736c-0.274,0-0.496-0.222-0.496-0.496s0.222-0.496,0.496-0.496h2.736c0.274,0,0.496,0.222,0.496,0.496
				S32.465,19.309,32.191,19.309z"/>
		</g>
		<g>
			<path fill="#F8AB0E" d="M26.718,19.309h-1.524c-0.274,0-0.496-0.222-0.496-0.496s0.222-0.496,0.496-0.496h1.524
				c0.274,0,0.496,0.222,0.496,0.496S26.992,19.309,26.718,19.309z"/>
		</g>
	</g>
	<g>
		<g>
			<path fill="#F8AB0E" d="M52.866,19.309c-0.274,0-0.496-0.222-0.496-0.496v-1.524c0-0.274,0.222-0.496,0.496-0.496
				s0.496,0.222,0.496,0.496v1.524C53.362,19.087,53.14,19.309,52.866,19.309z"/>
		</g>
		<g>
			<path fill="#F8AB0E" d="M52.866,14.731c-0.274,0-0.496-0.222-0.496-0.496v-3.054c0-0.274,0.222-0.496,0.496-0.496
				s0.496,0.222,0.496,0.496v3.054C53.362,14.509,53.14,14.731,52.866,14.731z M52.866,8.623c-0.274,0-0.496-0.222-0.496-0.496
				V5.074c0-0.274,0.222-0.496,0.496-0.496s0.496,0.222,0.496,0.496v3.053C53.362,8.401,53.14,8.623,52.866,8.623z"/>
		</g>
		<g>
			<path fill="#F8AB0E" d="M52.866,2.515c-0.274,0-0.496-0.222-0.496-0.496V0.991h-1.028c-0.274,0-0.496-0.222-0.496-0.496
				S51.068,0,51.342,0h1.524c0.274,0,0.496,0.222,0.496,0.496V2.02C53.362,2.294,53.14,2.515,52.866,2.515z"/>
		</g>
		<g>
			<path fill="#F8AB0E" d="M47.951,0.991H44.56c-0.274,0-0.496-0.222-0.496-0.496S44.286,0,44.56,0h3.391
				c0.274,0,0.496,0.222,0.496,0.496S48.225,0.991,47.951,0.991z M41.168,0.991h-3.39c-0.274,0-0.496-0.222-0.496-0.496
				S37.504,0,37.778,0h3.39c0.274,0,0.496,0.222,0.496,0.496S41.442,0.991,41.168,0.991z"/>
		</g>
		<g>
			<path fill="#F8AB0E" d="M32.863,2.515c-0.274,0-0.496-0.222-0.496-0.496V0.496C32.367,0.222,32.589,0,32.863,0h1.524
				c0.274,0,0.496,0.222,0.496,0.496s-0.222,0.496-0.496,0.496h-1.028V2.02C33.358,2.294,33.136,2.515,32.863,2.515z"/>
		</g>
		<g>
			<path fill="#F8AB0E" d="M32.863,15.721c-0.274,0-0.496-0.222-0.496-0.496v-3.301c0-0.274,0.222-0.496,0.496-0.496
				c0.274,0,0.496,0.222,0.496,0.496v3.301C33.358,15.499,33.136,15.721,32.863,15.721z M32.863,9.118
				c-0.274,0-0.496-0.222-0.496-0.496V5.321c0-0.274,0.222-0.496,0.496-0.496c0.274,0,0.496,0.222,0.496,0.496v3.301
				C33.358,8.896,33.136,9.118,32.863,9.118z"/>
		</g>
		<g>
			<path fill="#F8AB0E" d="M32.863,20.547c-0.274,0-0.496-0.222-0.496-0.496v-1.524c0-0.274,0.222-0.496,0.496-0.496
				c0.274,0,0.496,0.222,0.496,0.496v1.524C33.358,20.325,33.136,20.547,32.863,20.547z"/>
		</g>
	</g>
	<g>
		<g>
			<path fill="#F8AB0E" d="M1.143,20.547c-0.274,0-0.496-0.222-0.496-0.496v-1.524c0-0.274,0.222-0.496,0.496-0.496
				s0.496,0.222,0.496,0.496v1.524C1.639,20.325,1.417,20.547,1.143,20.547z"/>
		</g>
		<g>
			<path fill="#F8AB0E" d="M1.143,15.721c-0.274,0-0.496-0.222-0.496-0.496v-3.301c0-0.274,0.222-0.496,0.496-0.496
				s0.496,0.222,0.496,0.496v3.301C1.639,15.5,1.417,15.721,1.143,15.721z M1.143,9.118c-0.274,0-0.496-0.222-0.496-0.496V5.322
				c0-0.274,0.222-0.496,0.496-0.496s0.496,0.222,0.496,0.496v3.301C1.639,8.897,1.417,9.118,1.143,9.118z"/>
		</g>
		<g>
			<path fill="#F8AB0E" d="M1.143,2.515c-0.274,0-0.496-0.222-0.496-0.496V0.496C0.647,0.222,0.869,0,1.143,0h1.524
				c0.274,0,0.496,0.222,0.496,0.496S2.941,0.991,2.667,0.991H1.639V2.02C1.639,2.294,1.417,2.515,1.143,2.515z"/>
		</g>
		<g>
			<path fill="#F8AB0E" d="M28.153,0.991h-3.186c-0.274,0-0.496-0.222-0.496-0.496S24.693,0,24.967,0h3.186
				c0.274,0,0.496,0.222,0.496,0.496S28.427,0.991,28.153,0.991z M21.781,0.991h-3.185c-0.274,0-0.496-0.222-0.496-0.496
				S18.322,0,18.596,0h3.185c0.274,0,0.496,0.222,0.496,0.496S22.055,0.991,21.781,0.991z M15.41,0.991h-3.186
				c-0.274,0-0.496-0.222-0.496-0.496S11.951,0,12.225,0h3.186c0.274,0,0.496,0.222,0.496,0.496S15.684,0.991,15.41,0.991z
				 M9.039,0.991H5.853c-0.274,0-0.496-0.222-0.496-0.496S5.579,0,5.853,0h3.186c0.274,0,0.496,0.222,0.496,0.496
				S9.313,0.991,9.039,0.991z"/>
		</g>
		<g>
			<path fill="#F8AB0E" d="M32.863,0.991h-1.524c-0.274,0-0.496-0.222-0.496-0.496S31.065,0,31.339,0h1.524
				c0.274,0,0.496,0.222,0.496,0.496S33.136,0.991,32.863,0.991z"/>
		</g>
	</g>
	<g>
		<path fill="#F8AB0E" d="M0.952,18.813v33.501h51.371c0-13.614-6.551-24.901-19.569-27.011v-6.49H0.952z"/>
	</g>
	<g>
		<g>
			<path fill="#FFFFFF" d="M4.563,26.221c0.353-0.177,1.754-1.885,1.804-1.924c0.053-0.042,0.239-0.24,0.239-0.24
				c0.027-0.051,1.049-1.336,1.049-1.336c0.197-0.21,0.921-1.064,0.921-1.064l2.281-1.896c0.032-0.166-1.639,0.953-1.639,0.953
				c-0.109-0.021-1.214,0.609-1.214,0.609l3.602-3.256c0,0-6.106,5.201-6.205,5.438c0,0-4.97,5.815-4.947,5.85
				c0.042,0.087,5.228-5.072,5.291-5.047C5.164,25.324,4.768,25.934,4.563,26.221z"/>
		</g>
		<g>
			<path fill="#FFFFFF" d="M4.563,26.221c-0.024,0.012-0.044,0.018-0.057,0.014C4.348,26.478,4.375,26.485,4.563,26.221z"/>
		</g>
		<g>
			<path fill="#FFFFFF" d="M17.19,26.438c0,0-0.333,0.384-0.369,0.469c0,0-2.454,2.061-2.446,2.074
				c0.015,0.031,2.546-1.795,2.569-1.786c0.037,0.028,0.093,0.06,0.093,0.06c0.076,0.018,0.111-0.048,0.13-0.064
				c0.019-0.015,0.085-0.086,0.085-0.086c0.009-0.018,0.375-0.478,0.375-0.478c0.071-0.075,0.329-0.38,0.329-0.38l0.016-0.076
				c0.012-0.059-0.003-0.073-0.003-0.073l6.872-5.796L17.19,26.438z"/>
		</g>
		<g>
			<path fill="#FFFFFF" d="M8.448,25.853c0,0-0.504,0.58-0.557,0.708c0,0-0.952,1.281-0.94,1.301
				c0.023,0.047,1.091-0.88,1.126-0.867c0.055,0.043,0.141,0.09,0.141,0.09c0.115,0.027,0.167-0.073,0.196-0.096
				c0.029-0.023,0.129-0.13,0.129-0.13c0.015-0.027,0.567-0.722,0.567-0.722c0.106-0.113,2.224-1.747,2.224-1.747l-1.701,1.057
				c0.017-0.089-0.005-0.11-0.005-0.11c-0.059-0.011-0.329,0.044-0.329,0.044l-0.641,0.356c0.791-0.892,2.735-3.105,3.762-4.275
				c-0.046,0.014-0.082,0.022-0.085,0.014c-2.094,2.407-3.224,3.71-3.718,4.284L8.448,25.853z"/>
		</g>
		<g>
			<path fill="#FFFFFF" d="M11.834,22.864c0.115,0.027,1.737-1.703,1.765-1.726c0.029-0.023,0.129-0.13,0.129-0.13
				c0.014-0.027,0.567-0.722,0.567-0.722c0.107-0.113,2.977-2.364,2.977-2.364l-2.455,1.674c0.017-0.089-0.005-0.11-0.005-0.11
				c-0.059-0.011-0.146-1.155-0.146-1.155l-1.032,1.67c0,0-0.504,0.58-0.557,0.708c0,0-0.261,0.298-0.659,0.751
				c0.22-0.066,0.817-0.329,0.845-0.317C13.319,21.188,11.834,22.864,11.834,22.864z"/>
		</g>
		<g>
			<path fill="#FFFFFF" d="M12.357,26.135c0.029-0.023,0.129-0.13,0.129-0.13c0.014-0.027,0.567-0.722,0.567-0.722
				c0.107-0.113,0.497-0.575,0.497-0.575l0.025-0.115c0.017-0.089,5.537-5.468,5.537-5.468c-0.059-0.011-5.871,5.402-5.871,5.402
				l-0.849,0.471c0,0-0.504,0.58-0.557,0.708c0,0,0.015,0.145,0.027,0.164c0.023,0.047-11.444,13.214-11.409,13.228
				c0.055,0.043,11.709-12.868,11.709-12.868C12.276,26.258,12.328,26.158,12.357,26.135z"/>
		</g>
		<g>
			<path fill="#FFFFFF" d="M30.016,43.547c0.017-0.089-0.005-0.11-0.005-0.11c-0.059-0.011-0.329,0.044-0.329,0.044l-0.849,0.471
				c0,0-0.504,0.58-0.557,0.708c0,0-0.952,1.281-0.94,1.301c0.023,0.047,1.091-0.88,1.126-0.867c0.055,0.043,0.141,0.09,0.141,0.09
				c0.115,0.027,0.167-0.073,0.196-0.096c0.029-0.023,0.129-0.13,0.129-0.13c0.015-0.027,0.567-0.722,0.567-0.722
				c0.106-0.113,2.224-1.747,2.224-1.747L30.016,43.547z"/>
		</g>
		<g>
			<path fill="#FFFFFF" d="M33.593,37.314c-0.015,0.008-0.035,0.023-0.044,0.021C33.451,37.487,33.47,37.49,33.593,37.314z"/>
		</g>
		<g>
			<path fill="#FFFFFF" d="M33.593,37.314c0.215-0.11,1.051-1.127,1.081-1.15c0.032-0.026,0.144-0.145,0.144-0.145
				c0.016-0.031,0.634-0.807,0.634-0.807c0.119-0.127,0.556-0.643,0.556-0.643l1.379-1.146c0.02-0.1-0.991,0.576-0.991,0.576
				c-0.066-0.012-0.734,0.368-0.734,0.368l2.331-2.184c0,0-3.845,3.359-3.905,3.503c0,0-4.545,4.855-4.532,4.876
				c0.025,0.052,4.701-4.406,4.74-4.391C33.958,36.766,33.72,37.134,33.593,37.314z"/>
		</g>
		<g>
			<path fill="#FFFFFF" d="M41.215,37.458c0,0-0.201,0.232-0.223,0.283c0,0-1.483,1.246-1.478,1.253
				c0.009,0.019,1.539-1.085,1.553-1.08c0.022,0.017,0.056,0.036,0.056,0.036c0.046,0.011,0.067-0.029,0.079-0.038
				c0.011-0.009,0.052-0.052,0.052-0.052c0.006-0.011,0.227-0.289,0.227-0.289c0.043-0.045,0.199-0.23,0.199-0.23l0.01-0.046
				c0.007-0.036-0.002-0.044-0.002-0.044l4.153-3.503L41.215,37.458z"/>
		</g>
		<g>
			<path fill="#FFFFFF" d="M37.979,35.298c0.069,0.016,1.05-1.029,1.067-1.043c0.017-0.014,0.078-0.078,0.078-0.078
				c0.009-0.017,0.343-0.436,0.343-0.436c0.064-0.069,2.911-2.074,2.911-2.074l-2.595,1.657c0.011-0.054-0.003-0.066-0.003-0.066
				c-0.036-0.007-0.088-0.698-0.088-0.698l-0.624,1.009c0,0-0.305,0.35-0.337,0.428c0,0-0.158,0.18-0.398,0.454
				c0.133-0.04,0.493-0.199,0.511-0.192C38.876,34.285,37.979,35.298,37.979,35.298z"/>
		</g>
		<g>
			<path fill="#FFFFFF" d="M35.932,37.104c0,0-0.305,0.35-0.337,0.428c0,0-0.575,0.774-0.568,0.786
				c0.014,0.028,0.66-0.532,0.681-0.524c0.033,0.026,0.085,0.054,0.085,0.054c0.069,0.016,0.101-0.044,0.118-0.058
				c0.017-0.014,0.078-0.078,0.078-0.078c0.009-0.016,0.343-0.436,0.343-0.436c0.064-0.069,1.344-1.056,1.344-1.056l-1.028,0.639
				c0.011-0.054-0.003-0.066-0.003-0.066c-0.036-0.007-0.199,0.026-0.199,0.026l-0.388,0.215c0.478-0.539,1.653-1.876,2.274-2.584
				c-0.028,0.008-0.049,0.013-0.052,0.008c-1.266,1.455-1.949,2.242-2.247,2.589L35.932,37.104z"/>
		</g>
		<g>
			<path fill="#FFFFFF" d="M38.829,36.304l-0.513,0.285c0,0-0.304,0.351-0.337,0.428c0,0,0.009,0.088,0.016,0.099
				c0.014,0.028-7.69,8.811-7.669,8.819c0.033,0.026,7.85-8.602,7.85-8.602c0.069,0.016,0.101-0.044,0.118-0.058
				c0.017-0.014,0.078-0.078,0.078-0.078c0.009-0.016,0.342-0.436,0.342-0.436c0.064-0.069,0.301-0.347,0.301-0.347l0.015-0.069
				c0.011-0.054,3.346-3.305,3.346-3.305C42.341,33.032,38.829,36.304,38.829,36.304z"/>
		</g>
		<g>
			<path fill="#FFFFFF" d="M48.967,47.798c0.011-0.054-0.003-0.066-0.003-0.066c-0.036-0.007-0.199,0.026-0.199,0.026l-0.513,0.285
				c0,0-0.304,0.35-0.337,0.428c0,0-0.575,0.774-0.568,0.786c0.014,0.028,0.66-0.532,0.681-0.524
				c0.033,0.026,0.085,0.054,0.085,0.054c0.069,0.016,0.101-0.044,0.119-0.058c0.017-0.014,0.078-0.078,0.078-0.078
				c0.009-0.017,0.342-0.436,0.342-0.436c0.064-0.069,1.344-1.056,1.344-1.056L48.967,47.798z"/>
		</g>
		<g>
			<path fill="#FFFFFF" d="M14.083,45.437c0,0-4.545,4.855-4.531,4.876c0.025,0.052,4.701-4.406,4.74-4.391
				c-0.34,0.596-0.577,0.964-0.704,1.144c0.215-0.11,1.051-1.126,1.081-1.15c0.032-0.026,0.144-0.145,0.144-0.145
				c0.016-0.031,0.634-0.807,0.634-0.807c0.119-0.127,0.556-0.643,0.556-0.643l1.379-1.146c0.02-0.1-0.991,0.576-0.991,0.576
				c-0.066-0.012-0.734,0.368-0.734,0.368l2.331-2.184C17.988,41.934,14.143,45.293,14.083,45.437z"/>
		</g>
		<g>
			<path fill="#FFFFFF" d="M13.587,47.066c-0.015,0.008-0.036,0.023-0.044,0.021C13.445,47.239,13.463,47.242,13.587,47.066z"/>
		</g>
		<g>
			<path fill="#FFFFFF" d="M21.209,47.21c0,0-0.202,0.232-0.223,0.283c0,0-1.483,1.246-1.478,1.253
				c0.009,0.019,1.539-1.085,1.553-1.08c0.022,0.017,0.056,0.036,0.056,0.036c0.046,0.011,0.067-0.029,0.078-0.038
				c0.011-0.009,0.052-0.052,0.052-0.052c0.006-0.011,0.227-0.289,0.227-0.289c0.043-0.045,0.199-0.23,0.199-0.23l0.01-0.046
				c0.007-0.036-0.002-0.044-0.002-0.044l4.154-3.503L21.209,47.21z"/>
		</g>
		<g>
			<path fill="#FFFFFF" d="M16.637,46.545c-0.036-0.007-0.199,0.026-0.199,0.026l-0.513,0.285c0,0-0.304,0.351-0.337,0.428
				c0,0-0.575,0.774-0.568,0.786c0.014,0.028,0.66-0.532,0.681-0.524c0.033,0.026,0.085,0.054,0.085,0.054
				c0.069,0.016,0.101-0.044,0.118-0.058c0.017-0.014,0.078-0.078,0.078-0.078c0.009-0.016,0.343-0.436,0.343-0.436
				c0.064-0.069,1.344-1.056,1.344-1.056l-1.028,0.639C16.651,46.557,16.637,46.545,16.637,46.545z"/>
		</g>
	</g>
	<g>
		<path d="M53.657,53.457H0V17.67h34.088v6.678C46.188,26.781,53.657,37.4,53.657,52.314V53.457z M2.286,51.171h49.069
			c-0.376-13.496-7.428-22.929-18.593-24.74l-0.96-0.156v-6.319H2.286V51.171z"/>
	</g>
</g>
</svg>
