<?xml version="1.0" encoding="utf-8"?>
<!-- Generator: Adobe Illustrator 21.0.2, SVG Export Plug-In . SVG Version: 6.00 Build 0)  -->
<svg version="1.1" id="Слой_2" xmlns="http://www.w3.org/2000/svg" xmlns:xlink="http://www.w3.org/1999/xlink" x="0px" y="0px"
	 width="53.558px" height="53.414px" viewBox="0 0 53.558 53.414" enable-background="new 0 0 53.558 53.414" xml:space="preserve">
<g>
	<g>
		<path fill="#7E4942" d="M52.078,9.097c0,0-0.333-6.561-1.056-7.866c0,0-0.722-0.413-3.111,0.505l-3.055,1.239
			c0,0-2,1.514-4.444,4.634c0,0-15.647,16.778-16.314,17.267c0,0-2.296,2.937-2.74,3.732c-0.444,0.795-2.889,2.584-1.333,5.092
			c0,0,1.912,1.705,3.5,2.742c0.389,0.453,3.122,1.078,5.467,1.544c0.812,0.397,1.755,0.629,2.767,0.629
			c0.196,0,0.39-0.009,0.58-0.026c0.226,0.013,0.532-0.044,0.864-0.139c0.537-0.122,1.041-0.309,1.499-0.552
			c0.013-0.006,0.04-0.018,0.04-0.018c0.009-0.006,16.661-6.972,16.661-6.972l0.907-4.044c0.604-2.696,0.678-5.574,0.678-5.574
			L52.078,9.097z"/>
		<path d="M31.758,39.188c-1.03,0-2.048-0.226-2.95-0.654c-4.67-0.931-5.415-1.404-5.658-1.652
			c-1.592-1.051-3.428-2.683-3.506-2.753c-0.041-0.036-0.077-0.079-0.106-0.125c-1.464-2.361,0.089-4.187,0.924-5.169
			c0.172-0.202,0.335-0.393,0.397-0.504c0.46-0.825,2.694-3.684,2.789-3.806c0.032-0.041,0.07-0.077,0.112-0.109
			c0.592-0.481,10.034-10.549,16.234-17.197c2.43-3.105,4.433-4.636,4.517-4.699c0.04-0.031,0.084-0.055,0.13-0.074l3.056-1.239
			c2.461-0.946,3.385-0.6,3.609-0.471c0.091,0.052,0.166,0.128,0.217,0.22c0.762,1.375,1.089,7.39,1.127,8.107l0.909,12.188
			c-0.001,0.177-0.081,3.022-0.691,5.741l-0.907,4.044c-0.04,0.181-0.166,0.33-0.337,0.402c-0.164,0.069-16.451,6.883-16.655,6.97
			v-0.001c-0.022,0.01-0.045,0.02-0.06,0.026c-0.442,0.24-0.994,0.444-1.579,0.577c-0.38,0.109-0.728,0.161-0.977,0.153
			C32.157,39.179,31.959,39.188,31.758,39.188z M20.468,33.332c0.342,0.3,1.995,1.737,3.369,2.634
			c0.045,0.03,0.086,0.065,0.121,0.106c0.073,0.059,0.736,0.479,5.144,1.355c0.048,0.01,0.095,0.025,0.14,0.047
			c0.918,0.449,2.02,0.64,3.044,0.547c0.028-0.002,0.056-0.003,0.083-0.001c0.068,0.006,0.266-0.001,0.675-0.118
			c0.516-0.118,0.973-0.286,1.386-0.507l0.276,0.502l-0.064-0.174l-0.202-0.327c0.007-0.004,0.013-0.008,0.069-0.032l-0.001-0.004
			l0.001,0.003c0.329-0.143,2.377-1,16.399-6.866l0.843-3.756c0.584-2.608,0.663-5.435,0.664-5.464L51.508,9.14
			c0-0.004-0.001-0.009-0.001-0.013c-0.118-2.329-0.458-6.221-0.895-7.414c-0.278-0.024-1.028-0.006-2.496,0.557l-2.971,1.205
			c-0.338,0.269-2.145,1.758-4.283,4.487c-2.58,2.769-15.055,16.135-16.345,17.307c-0.655,0.839-2.32,3.009-2.66,3.619
			c-0.117,0.208-0.305,0.43-0.523,0.687C20.375,30.703,19.588,31.84,20.468,33.332z"/>
	</g>
	<g>
		<path fill="#FFFFFF" d="M11.92,44.311c0,0,0.333,6.561,1.055,7.866c0,0,0.722,0.413,3.111-0.505l3.055-1.239
			c0,0,2-1.514,4.444-4.634c0,0,15.648-16.778,16.314-17.267c0,0,2.296-2.937,2.74-3.732s2.889-2.584,1.333-5.092
			c0,0-1.912-1.705-3.5-2.742c-0.621-0.723-7.198-1.881-8.666-2.137c-0.622-0.168-4.8,0.315-4.8,0.315
			c-3.226,1.975-14.412,7.356-14.412,7.356l-0.907,4.044c-0.604,2.696-0.678,5.574-0.678,5.574L11.92,44.311z"/>
		<path d="M13.552,53.414c-0.58,0-0.936-0.126-1.145-0.245c-0.182-0.103-0.331-0.255-0.432-0.438
			c-0.787-1.421-1.113-6.73-1.196-8.348L9.87,32.201c-0.003-0.038-0.004-0.076-0.002-0.114c0.003-0.122,0.083-3.021,0.705-5.796
			l0.907-4.043c0.077-0.341,0.305-0.629,0.62-0.78c0.112-0.054,11.171-5.38,14.311-7.302c0.141-0.087,0.301-0.141,0.466-0.161
			c2.757-0.319,4.478-0.419,5.127-0.305l0,0c7.543,1.314,8.792,1.978,9.214,2.384c1.613,1.075,3.438,2.698,3.517,2.768
			c0.082,0.074,0.153,0.158,0.211,0.252c1.683,2.714-0.179,4.904-0.974,5.84c-0.124,0.145-0.292,0.343-0.334,0.415
			c-0.472,0.846-2.596,3.569-2.836,3.877c-0.064,0.083-0.14,0.156-0.224,0.217c-0.683,0.592-10.008,10.535-16.122,17.09
			c-2.493,3.174-4.537,4.737-4.624,4.801c-0.08,0.061-0.167,0.111-0.26,0.149l-3.056,1.238
			C15.163,53.251,14.213,53.414,13.552,53.414z M12.154,32.092l0.906,12.134c0.001,0.009,0.001,0.018,0.001,0.027
			c0.13,2.566,0.438,5.59,0.744,6.859c0.355-0.036,0.953-0.155,1.87-0.508l2.884-1.169c0.435-0.354,2.131-1.796,4.126-4.341
			c0.02-0.026,0.042-0.051,0.064-0.075c4.492-4.816,14.71-15.749,16.297-17.252c0.872-1.118,2.308-3.012,2.595-3.525
			c0.144-0.257,0.349-0.499,0.586-0.778c0.889-1.046,1.475-1.885,0.852-3.02c-0.45-0.394-1.968-1.697-3.232-2.523
			c-0.056-0.036-0.109-0.078-0.157-0.124c-0.43-0.243-2.571-0.885-8.081-1.845c-0.034-0.006-0.068-0.013-0.102-0.022
			c-0.359-0.047-2.386,0.124-4.124,0.319c-3.091,1.84-11.614,5.984-13.795,7.039l-0.786,3.504
			C12.276,29.146,12.169,31.692,12.154,32.092z"/>
	</g>
	<g>
		<path fill="#7E4942" d="M37.222,6.054c0,0-11.362-4.356-12.974-4.612c-0.001,0-0.004,0-0.005-0.001
			c-0.606-0.193-1.262-0.302-1.951-0.302c-1.271,0-2.438,0.363-3.365,0.966l-0.001,0C15.386,4.08,1.788,12.89,1.788,12.89
			c-0.663,2.696-0.744,5.574-0.744,5.574l0.998,12.195c0,0,0.366,6.561,1.158,7.866c0,0,0.793,0.413,3.414-0.505l3.353-1.239
			c0,0,2.195-1.514,4.878-4.634c0,0,17.173-16.778,17.905-17.267c0,0,2.52-2.937,3.008-3.732
			C36.246,10.352,38.929,8.563,37.222,6.054z"/>
	</g>
	<g>
		<path fill="#7E4942" d="M32.533,49.439c0,0,0.09,1.779,0.286,2.133c0,0,0.196,0.112,0.844-0.137l0.828-0.336
			c0,0,0.542-0.411,1.205-1.257c0,0,4.243-4.549,4.424-4.682c0,0,0.623-0.796,0.743-1.012c0.121-0.216,0.783-0.701,0.362-1.381
			c0,0-0.519-0.462-0.949-0.744c-0.168-0.196-1.952-0.51-2.35-0.579c-0.169-0.046-1.302,0.085-1.302,0.085
			c-0.875,0.536-3.908,1.995-3.908,1.995l-0.246,1.096c-0.164,0.731-0.184,1.511-0.184,1.511L32.533,49.439z"/>
		<path d="M32.974,52.092c-0.188,0-0.315-0.041-0.401-0.09c-0.079-0.045-0.144-0.111-0.188-0.191
			c-0.218-0.394-0.311-1.633-0.347-2.341l-0.247-3.3c0-0.084,0.022-0.888,0.194-1.657l0.247-1.097
			c0.033-0.147,0.132-0.272,0.269-0.338c0.03-0.014,3.02-1.453,3.863-1.971c0.062-0.037,0.13-0.061,0.202-0.069
			c1.226-0.142,1.408-0.093,1.487-0.072c2.006,0.347,2.395,0.539,2.542,0.676c0.444,0.298,0.936,0.736,0.958,0.755
			c0.036,0.032,0.066,0.068,0.092,0.109c0.528,0.851-0.06,1.541-0.281,1.802c-0.031,0.036-0.058,0.065-0.076,0.092
			c-0.124,0.221-0.627,0.871-0.778,1.066c-0.028,0.036-0.061,0.068-0.098,0.095c-0.197,0.178-2.779,2.931-4.353,4.62
			c-0.668,0.854-1.245,1.296-1.269,1.314c-0.035,0.026-0.073,0.048-0.113,0.064l-0.828,0.336
			C33.466,52.042,33.183,52.092,32.974,52.092z M33.147,43.867l-0.194,0.863c-0.151,0.676-0.171,1.408-0.172,1.415l0.246,3.256
			c0,0.004,0,0.008,0.001,0.012c0.029,0.581,0.094,1.267,0.161,1.655c0.077-0.019,0.174-0.049,0.295-0.096l0.752-0.305
			c0.138-0.115,0.568-0.49,1.069-1.131c2.587-2.776,4.07-4.346,4.44-4.702c0.285-0.365,0.622-0.817,0.684-0.927
			c0.036-0.063,0.099-0.146,0.18-0.24c0.249-0.293,0.303-0.419,0.224-0.582c-0.144-0.124-0.518-0.442-0.83-0.646
			c-0.016-0.01-0.031-0.021-0.045-0.033c-0.14-0.063-0.731-0.232-2.119-0.473c-0.116-0.015-0.617,0.029-1.054,0.077
			C35.949,42.503,33.835,43.534,33.147,43.867z"/>
	</g>
	<g>
		<g>
			<path fill="#FFFFFF" d="M12.109,10.838c0.353-0.177,1.754-1.885,1.804-1.924c0.053-0.042,0.239-0.24,0.239-0.24
				C14.178,8.624,15.2,7.339,15.2,7.339c0.197-0.21,0.921-1.064,0.921-1.064l2.281-1.896c0.032-0.166-1.639,0.953-1.639,0.953
				C16.654,5.31,15.549,5.94,15.549,5.94l3.602-3.256c0,0-6.106,5.201-6.205,5.438c0,0-4.97,5.815-4.947,5.85
				C8.04,14.059,13.226,8.9,13.29,8.925C12.71,9.941,12.314,10.551,12.109,10.838z"/>
		</g>
		<g>
			<path fill="#FFFFFF" d="M12.109,10.838c-0.024,0.012-0.044,0.018-0.057,0.014C11.894,11.095,11.921,11.103,12.109,10.838z"/>
		</g>
		<g>
			<path fill="#FFFFFF" d="M24.736,11.055c0,0-0.333,0.384-0.369,0.469c0,0-2.454,2.061-2.446,2.074
				c0.015,0.031,2.546-1.795,2.569-1.786c0.037,0.028,0.093,0.06,0.093,0.06c0.076,0.018,0.111-0.048,0.13-0.064
				c0.019-0.015,0.085-0.086,0.085-0.086c0.009-0.018,0.375-0.478,0.375-0.478c0.071-0.075,0.329-0.38,0.329-0.38l0.016-0.076
				c0.012-0.059-0.003-0.073-0.003-0.073l6.872-5.796L24.736,11.055z"/>
		</g>
		<g>
			<path fill="#FFFFFF" d="M15.994,10.47c0,0-0.504,0.58-0.557,0.708c0,0-0.952,1.281-0.94,1.301
				c0.023,0.047,1.091-0.88,1.126-0.867c0.055,0.043,0.141,0.09,0.141,0.09c0.115,0.027,0.167-0.073,0.196-0.096
				c0.029-0.023,0.129-0.13,0.129-0.13c0.015-0.027,0.567-0.722,0.567-0.722c0.106-0.113,2.224-1.747,2.224-1.747l-1.701,1.057
				c0.017-0.089-0.005-0.11-0.005-0.11c-0.059-0.011-0.329,0.044-0.329,0.044l-0.641,0.356c0.791-0.892,2.735-3.105,3.762-4.275
				c-0.046,0.014-0.082,0.022-0.085,0.014c-2.094,2.407-3.224,3.71-3.718,4.284L15.994,10.47z"/>
		</g>
		<g>
			<path fill="#FFFFFF" d="M19.38,7.481c0.115,0.027,1.737-1.703,1.765-1.726c0.029-0.023,0.129-0.13,0.129-0.13
				c0.014-0.027,0.567-0.722,0.567-0.722c0.107-0.113,2.977-2.364,2.977-2.364l-2.455,1.674c0.017-0.089-0.005-0.11-0.005-0.11
				c-0.059-0.011-0.146-1.155-0.146-1.155L21.18,4.62c0,0-0.504,0.58-0.557,0.708c0,0-0.261,0.298-0.659,0.751
				c0.22-0.066,0.817-0.329,0.845-0.317C20.865,5.805,19.38,7.481,19.38,7.481z"/>
		</g>
		<g>
			<path fill="#FFFFFF" d="M19.903,10.752c0.029-0.023,0.129-0.13,0.129-0.13c0.014-0.027,0.567-0.722,0.567-0.722
				c0.107-0.113,0.497-0.575,0.497-0.575l0.025-0.115c0.017-0.089,5.537-5.468,5.537-5.468c-0.059-0.011-5.871,5.402-5.871,5.402
				l-0.849,0.471c0,0-0.504,0.58-0.557,0.708c0,0,0.015,0.145,0.027,0.164C19.43,10.535,7.964,23.703,7.998,23.716
				c0.055,0.043,11.709-12.868,11.709-12.868C19.822,10.875,19.874,10.775,19.903,10.752z"/>
		</g>
		<g>
			<path fill="#FFFFFF" d="M22.457,21.347c0.017-0.089-0.005-0.11-0.005-0.11c-0.059-0.011-0.329,0.044-0.329,0.044l-0.849,0.471
				c0,0-0.504,0.58-0.557,0.708c0,0-0.952,1.281-0.94,1.301c0.023,0.047,1.091-0.88,1.126-0.867c0.055,0.043,0.141,0.09,0.141,0.09
				c0.115,0.027,0.167-0.073,0.196-0.096c0.029-0.023,0.129-0.13,0.129-0.13c0.015-0.027,0.567-0.722,0.567-0.722
				c0.106-0.113,2.224-1.747,2.224-1.747L22.457,21.347z"/>
		</g>
		<g>
			<path fill="#FFFFFF" d="M6.904,29.065c0.215-0.11,1.051-1.127,1.081-1.15C8.017,27.889,8.13,27.77,8.13,27.77
				c0.016-0.031,0.634-0.807,0.634-0.807C8.883,26.836,9.32,26.32,9.32,26.32l1.379-1.146c0.02-0.1-0.991,0.576-0.991,0.576
				c-0.066-0.012-0.734,0.368-0.734,0.368l2.331-2.184c0,0-3.845,3.359-3.905,3.503c0,0-4.545,4.855-4.532,4.876
				c0.025,0.052,4.701-4.406,4.74-4.391C7.269,28.517,7.031,28.885,6.904,29.065z"/>
		</g>
		<g>
			<path fill="#FFFFFF" d="M14.526,29.209c0,0-0.201,0.232-0.223,0.283c0,0-1.483,1.246-1.478,1.253
				c0.009,0.019,1.539-1.085,1.553-1.08c0.022,0.017,0.056,0.036,0.056,0.036c0.046,0.011,0.067-0.029,0.079-0.038
				c0.011-0.009,0.052-0.052,0.052-0.052c0.006-0.011,0.227-0.289,0.227-0.289c0.043-0.045,0.199-0.23,0.199-0.23l0.01-0.046
				c0.007-0.036-0.002-0.044-0.002-0.044l4.153-3.503L14.526,29.209z"/>
		</g>
		<g>
			<path fill="#FFFFFF" d="M11.29,27.049c0.069,0.016,1.05-1.029,1.067-1.043c0.017-0.014,0.078-0.078,0.078-0.078
				c0.009-0.017,0.343-0.436,0.343-0.436c0.064-0.069,2.911-2.074,2.911-2.074l-2.595,1.657c0.011-0.054-0.003-0.066-0.003-0.066
				c-0.036-0.007-0.088-0.698-0.088-0.698l-0.624,1.009c0,0-0.305,0.35-0.337,0.428c0,0-0.158,0.18-0.398,0.454
				c0.133-0.04,0.493-0.199,0.511-0.192C12.187,26.036,11.29,27.049,11.29,27.049z"/>
		</g>
		<g>
			<path fill="#FFFFFF" d="M9.243,28.855c0,0-0.305,0.35-0.337,0.428c0,0-0.575,0.774-0.568,0.786
				c0.014,0.028,0.66-0.532,0.681-0.524C9.052,29.571,9.104,29.6,9.104,29.6c0.069,0.016,0.101-0.044,0.118-0.058
				C9.239,29.528,9.3,29.463,9.3,29.463c0.009-0.016,0.343-0.436,0.343-0.436c0.064-0.069,1.344-1.056,1.344-1.056L9.958,28.61
				c0.011-0.054-0.003-0.066-0.003-0.066c-0.036-0.007-0.199,0.026-0.199,0.026l-0.388,0.215c0.478-0.539,1.653-1.876,2.274-2.584
				c-0.028,0.008-0.049,0.013-0.052,0.008c-1.266,1.455-1.949,2.242-2.247,2.589L9.243,28.855z"/>
		</g>
		<g>
			<path fill="#FFFFFF" d="M12.14,28.055l-0.513,0.285c0,0-0.304,0.351-0.337,0.428c0,0,0.009,0.088,0.016,0.099
				c0.014,0.028-7.69,8.811-7.669,8.819c0.033,0.026,7.85-8.602,7.85-8.602c0.069,0.016,0.101-0.044,0.118-0.058
				c0.017-0.014,0.078-0.078,0.078-0.078c0.009-0.016,0.342-0.436,0.342-0.436c0.064-0.069,0.301-0.347,0.301-0.347l0.015-0.069
				c0.011-0.054,3.346-3.305,3.346-3.305C15.652,24.783,12.14,28.055,12.14,28.055z"/>
		</g>
		<g>
			<path fill="#FFFFFF" d="M8.634,9.763c0.011-0.054-0.003-0.066-0.003-0.066C8.595,9.69,8.432,9.723,8.432,9.723l-0.513,0.285
				c0,0-0.304,0.35-0.337,0.428c0,0-0.575,0.774-0.568,0.786c0.014,0.028,0.66-0.532,0.681-0.524
				c0.033,0.026,0.085,0.054,0.085,0.054c0.069,0.016,0.101-0.044,0.119-0.058c0.017-0.014,0.078-0.078,0.078-0.078
				c0.009-0.017,0.342-0.436,0.342-0.436c0.064-0.069,1.344-1.056,1.344-1.056L8.634,9.763z"/>
		</g>
		<g>
			<path fill="#FFFFFF" d="M17.641,27.436c0,0-4.545,4.855-4.531,4.876c0.025,0.052,4.701-4.406,4.74-4.391
				c-0.34,0.596-0.577,0.964-0.704,1.144c0.215-0.11,1.051-1.126,1.081-1.15c0.032-0.026,0.144-0.145,0.144-0.145
				c0.016-0.031,0.634-0.807,0.634-0.807c0.119-0.127,0.556-0.643,0.556-0.643l1.379-1.146c0.02-0.1-0.991,0.576-0.991,0.576
				c-0.066-0.012-0.734,0.368-0.734,0.368l2.331-2.184C21.546,23.933,17.701,27.293,17.641,27.436z"/>
		</g>
		<g>
			<path fill="#FFFFFF" d="M13.65,25.009c0,0-0.202,0.232-0.223,0.283c0,0-1.483,1.246-1.478,1.253
				c0.009,0.019,1.539-1.085,1.553-1.08c0.022,0.017,0.056,0.036,0.056,0.036c0.046,0.011,0.067-0.029,0.078-0.038
				c0.011-0.009,0.052-0.052,0.052-0.052c0.006-0.011,0.227-0.289,0.227-0.289c0.043-0.045,0.199-0.23,0.199-0.23l0.01-0.046
				c0.007-0.036-0.002-0.044-0.002-0.044l4.154-3.503L13.65,25.009z"/>
		</g>
	</g>
	<g>
		<path d="M3.936,39.763c-0.592,0-0.953-0.115-1.165-0.225c-0.185-0.096-0.34-0.242-0.449-0.42C1.449,37.681,1.09,32.329,1,30.722
			L0.004,18.557c-0.003-0.042-0.004-0.083-0.003-0.125c0.003-0.123,0.092-3.032,0.776-5.816c0.07-0.283,0.245-0.528,0.489-0.686
			c0.554-0.359,13.589-8.8,17.17-10.805C20.19,0,22.518-0.312,24.613,0.329c1.874,0.366,11.232,3.935,13.117,4.658
			c0.217,0.083,0.405,0.231,0.536,0.424c1.879,2.761-0.186,4.975-1.068,5.92c-0.135,0.145-0.32,0.343-0.367,0.415
			c-0.52,0.847-2.849,3.57-3.114,3.877c-0.068,0.079-0.146,0.148-0.232,0.205c-0.74,0.58-10.985,10.534-17.706,17.1
			c-2.733,3.17-4.969,4.728-5.063,4.792c-0.078,0.054-0.163,0.098-0.253,0.132L7.11,39.092C5.647,39.604,4.632,39.763,3.936,39.763z
			 M2.287,18.437l0.993,12.129c0.146,2.611,0.487,5.668,0.824,6.903c0.396-0.022,1.103-0.132,2.232-0.528l3.189-1.178
			c0.459-0.339,2.34-1.787,4.553-4.362c0.022-0.025,0.045-0.05,0.068-0.073c4.941-4.827,16.199-15.803,17.889-17.255
			c0.957-1.118,2.533-3.012,2.848-3.524c0.158-0.257,0.383-0.499,0.642-0.777c1.069-1.147,1.499-1.865,1.021-2.79
			c-4.373-1.671-11.292-4.232-12.373-4.41c-0.06-0.009-0.121-0.022-0.179-0.041c-1.482-0.471-3.137-0.255-4.346,0.531
			c-0.022,0.014-0.044,0.028-0.067,0.04C16.448,4.852,5.137,12.15,2.895,13.599C2.407,15.808,2.302,18.048,2.287,18.437z"/>
	</g>
</g>
</svg>
