<?xml version="1.0" standalone="no"?>
<!DOCTYPE svg PUBLIC "-//W3C//DTD SVG 1.1//EN" "http://www.w3.org/Graphics/SVG/1.1/DTD/svg11.dtd" >
<svg xmlns="http://www.w3.org/2000/svg" xmlns:xlink="http://www.w3.org/1999/xlink" version="1.1">
<metadata></metadata>
<defs>
<font id="helioscondblackitalic" horiz-adv-x="991" >
<font-face units-per-em="2048" ascent="1673" descent="-375" />
<missing-glyph horiz-adv-x="536" />
<glyph horiz-adv-x="0" />
<glyph horiz-adv-x="682" />
<glyph unicode=" "  horiz-adv-x="536" />
<glyph unicode="&#x09;" horiz-adv-x="536" />
<glyph unicode="&#xa0;" horiz-adv-x="536" />
<glyph unicode="!" horiz-adv-x="669" d="M39 0l74 342h321l-74 -342h-321zM217 479l64 656l73 352h322l-74 -352l-213 -656h-172z" />
<glyph unicode="&#x22;" horiz-adv-x="724" d="M12 918l119 552h231l-118 -552h-232zM387 918l119 552h231l-119 -552h-231z" />
<glyph unicode="#" d="M-49 432l47 221h201l71 199h-184l47 217h215l152 418h184l-149 -418h155l148 418h188l-149 -418h167l-47 -217h-200l-72 -199h172l-47 -221h-203l-151 -432h-189l154 432h-154l-153 -432h-185l150 432h-168zM387 653h154l71 199h-157z" />
<glyph unicode="$" horiz-adv-x="1052" d="M27 272q0 84 32 232h326q-29 -136 -29 -176q0 -54 26.5 -75.5t80.5 -21.5q57 0 106 53t49 128q0 52 -37 97t-165 140q-122 92 -172.5 169t-50.5 169q0 201 130.5 349t323.5 165l43 203h170l-43 -203q124 -20 195 -95.5t71 -213.5q0 -57 -20 -160h-309q16 80 16 115 q0 102 -94 102q-55 0 -95 -38t-40 -103q0 -18 4 -33.5t18 -39t46.5 -53.5t82.5 -64q148 -102 209.5 -187t61.5 -190q0 -144 -59.5 -272.5t-169.5 -212t-245 -91.5l-43 -203h-170l43 203q-146 14 -219 89t-73 218z" />
<glyph unicode="%" horiz-adv-x="1652" d="M94 946q0 60 10.5 122.5t40 134t74.5 126t121.5 91t173.5 36.5q132 0 197 -55t65 -176q0 -31 -3.5 -68t-15.5 -88t-30 -98.5t-51 -95.5t-75 -83t-105.5 -57t-139.5 -22q-130 0 -196 56t-66 177zM242 -47l989 1520h168l-987 -1520h-170zM340 958q0 -75 53 -75q32 0 60 42 t43.5 100.5t24.5 111t9 82.5q0 34 -11.5 50.5t-39.5 16.5q-37 0 -66 -43t-43.5 -102.5t-22 -108t-7.5 -74.5zM868 217q0 60 10.5 122.5t40 134t74.5 126t121.5 91t173.5 36.5q132 0 197 -55t65 -176q0 -31 -3.5 -68t-15.5 -88t-30 -98.5t-51 -95.5t-75 -83t-105.5 -57 t-139.5 -22q-130 0 -196 56t-66 177zM1114 229q0 -75 53 -75q32 0 60 42t44 100t25 110.5t9 82.5q0 68 -52 68q-37 0 -66 -43t-43.5 -102.5t-22 -108t-7.5 -74.5z" />
<glyph unicode="&#x26;" horiz-adv-x="1312" d="M39 287q0 101 31 192t86.5 162.5t122 127t145.5 99.5q-64 125 -64 240q0 89 30.5 160t77.5 113.5t109.5 70.5t120.5 38.5t117 10.5q152 0 226.5 -62t74.5 -171q0 -127 -90.5 -252.5t-226.5 -194.5l108 -231q29 37 49.5 100.5t20.5 100.5h278q-27 -123 -90.5 -246 t-144.5 -219l147 -326h-358l-39 94q-72 -62 -167.5 -94.5t-188.5 -32.5q-80 0 -146.5 18t-118.5 55.5t-81 100.5t-29 146zM375 391q0 -69 38 -115.5t103 -46.5q39 0 83.5 22.5t74.5 59.5l-158 342q-73 -73 -107 -135t-34 -127zM649 1155q0 -87 35 -147q154 95 154 213 q0 29 -18 46t-54 17q-117 0 -117 -129z" />
<glyph unicode="'" horiz-adv-x="342" d="M-45 918l119 552h231l-119 -552h-231z" />
<glyph unicode="(" horiz-adv-x="614" d="M55 193q0 671 447 1277h248q-171 -256 -289.5 -656.5t-118.5 -778.5q0 -216 35 -391h-248q-74 269 -74 549z" />
<glyph unicode=")" horiz-adv-x="634" d="M-162 -356q212 352 314 727.5t102 752.5q0 187 -27 346h248q70 -236 70 -503q0 -703 -459 -1323h-248z" />
<glyph unicode="*" d="M117 1163l98 170l201 -80l45 217h184l-45 -217l234 80l24 -170l-244 -61l127 -201l-176 -110l-119 184l-176 -184l-135 110l197 184z" />
<glyph unicode="+" horiz-adv-x="983" d="M27 379l49 227h327l78 363h228l-78 -363h327l-49 -227h-327l-76 -363h-227l75 363h-327z" />
<glyph unicode="," horiz-adv-x="667" d="M90 -279l23 107q82 0 144 46t79 126h-186l71 342h322l-72 -342q-27 -122 -130.5 -200.5t-250.5 -78.5z" />
<glyph unicode="-" horiz-adv-x="655" d="M51 379l49 227h533l-49 -227h-533z" />
<glyph unicode="." horiz-adv-x="667" d="M135 0l74 342h321l-73 -342h-322z" />
<glyph unicode="/" horiz-adv-x="552" d="M-176 -184l788 1654h215l-784 -1654h-219z" />
<glyph unicode="0" horiz-adv-x="1026" d="M25 260q0 56 12 115l147 692q14 65 38.5 121.5t67 109.5t99 90t138 59.5t180.5 22.5q372 0 372 -284q0 -47 -14 -119l-147 -692q-85 -406 -531 -406q-194 0 -278 79.5t-84 211.5zM350 293q0 -38 20 -57t66 -19q68 0 103 37t51 113l151 706q9 50 9 62q0 88 -101 88 q-63 0 -92 -35.5t-45 -114.5l-152 -706q-10 -48 -10 -74z" />
<glyph unicode="1" horiz-adv-x="1026" d="M193 993l49 228h22q144 0 260 59t156 160h225l-307 -1440h-315l211 993h-301z" />
<glyph unicode="2" horiz-adv-x="1026" d="M-51 0q22 107 70.5 207t103 172.5t128.5 147t132.5 121.5t131.5 105.5t108 90.5q59 53 89.5 134.5t30.5 143.5q0 88 -92 88q-66 0 -107.5 -56t-70.5 -189h-319q22 105 67 194t113.5 160t167.5 111t219 40q164 0 259 -79.5t95 -223.5q0 -83 -22 -160t-63 -141.5 t-80.5 -112t-92.5 -98.5q-33 -32 -140.5 -113t-189 -154t-98.5 -124h529l-56 -264h-913z" />
<glyph unicode="3" horiz-adv-x="1026" d="M25 287q0 65 30 213h312q-23 -112 -23 -148q0 -119 90 -119q58 0 100.5 46.5t61 112t18.5 138.5q0 64 -40.5 88.5t-137.5 24.5h-71l49 231h49q62 0 106.5 10.5t81.5 36.5t55.5 76t18.5 125q0 45 -20.5 73t-63.5 28q-55 0 -95 -38.5t-54 -103.5l-17 -77h-311l8 40 q18 86 59.5 161t105.5 135t157.5 95t205.5 35q160 0 253.5 -77t93.5 -207q0 -45 -8.5 -90.5t-29 -95t-51 -89.5t-80 -72t-110.5 -46q94 -40 133 -95.5t39 -136.5q0 -119 -33.5 -223.5t-99.5 -188t-176.5 -132t-253.5 -48.5q-164 0 -258 79.5t-94 238.5z" />
<glyph unicode="4" horiz-adv-x="1028" d="M2 283l66 313l626 844h344l-194 -914h135l-51 -243h-135l-62 -283h-311l61 283h-479zM293 526h239l103 480z" />
<glyph unicode="5" horiz-adv-x="1026" d="M43 260q0 70 23 182h309q-17 -90 -17 -127q0 -54 20.5 -77t63.5 -23q53 0 94 55.5t61 134t30 144t10 104.5q0 55 -20.5 78t-63.5 23q-52 0 -83 -28t-52 -79h-293l209 793h753l-51 -246h-501l-95 -311q62 56 123 85t154 29q124 0 188 -72.5t64 -213.5q0 -50 -6 -107 t-23 -130.5t-43.5 -142t-71.5 -135.5t-102 -116.5t-140 -80t-182 -30.5q-185 0 -271.5 69.5t-86.5 221.5z" />
<glyph unicode="6" horiz-adv-x="1026" d="M35 270q0 58 14 121l144 678q42 199 179.5 300t321.5 101q168 0 262.5 -67t94.5 -209q0 -44 -13 -111h-311q4 16 4 45q0 39 -24.5 62.5t-67.5 23.5q-103 0 -131 -131l-53 -252q105 125 258 125q239 0 239 -260q0 -59 -7 -120.5t-25 -134.5t-45.5 -138.5t-72.5 -127.5 t-102.5 -107t-139 -72t-177.5 -27q-55 0 -103.5 9t-94 31t-78.5 55.5t-52.5 86.5t-19.5 119zM356 319q0 -47 19.5 -67.5t62.5 -20.5q72 0 106.5 51t65.5 199q17 80 17 123q0 101 -86 101q-67 0 -101.5 -53.5t-58.5 -168.5q-25 -113 -25 -164z" />
<glyph unicode="7" horiz-adv-x="1026" d="M139 0q48 143 102 272t104 229.5t124.5 223t134.5 212.5t162 239h-555l57 264h869l-52 -240q-198 -258 -354.5 -568t-245.5 -632h-346z" />
<glyph unicode="8" horiz-adv-x="1026" d="M27 270q0 176 74 314t208 194q-116 46 -116 201q0 98 32.5 185.5t94.5 156.5t160.5 109t221.5 40q183 0 268 -74t85 -198q0 -150 -82 -270.5t-185 -149.5q140 -78 140 -237q0 -93 -22 -178t-67 -157t-109 -124.5t-153 -82.5t-194 -30q-179 0 -267.5 73.5t-88.5 227.5z M344 315q0 -52 21.5 -76t70.5 -24q44 0 79 28t54 67.5t31.5 88.5t16.5 84.5t4 61.5q0 52 -22.5 75t-72.5 23q-44 0 -78 -27t-53 -65t-31 -86.5t-16 -84.5t-4 -65zM489 977q0 -103 86 -103q77 0 120.5 78.5t43.5 175.5q0 50 -22.5 72.5t-67.5 22.5q-71 0 -115.5 -70 t-44.5 -176z" />
<glyph unicode="9" horiz-adv-x="1026" d="M43 246q0 48 12 110h312q-5 -30 -5 -39q0 -42 24 -67t69 -25q108 0 133 131l53 250q-112 -133 -262 -133q-106 0 -169 69t-63 212q0 41 4 89t18.5 120t38 138t66.5 135t100 119.5t143.5 82.5t191.5 32q77 0 139 -15t111.5 -47.5t76.5 -91t27 -138.5q0 -53 -16 -131 l-146 -685q-28 -134 -105 -224.5t-177 -129.5t-220 -39q-168 0 -262 67.5t-94 209.5zM469 834q0 -109 82 -109q43 0 77.5 33.5t54.5 81.5t33.5 105.5t18 99.5t4.5 69q0 51 -20.5 72.5t-65.5 21.5q-51 0 -90 -46t-58 -112.5t-27.5 -122t-8.5 -93.5z" />
<glyph unicode=":" horiz-adv-x="555" d="M6 0l74 342h321l-73 -342h-322zM172 776l74 342h321l-73 -342h-322z" />
<glyph unicode=";" horiz-adv-x="552" d="M-39 -279l23 107q82 0 144 46t79 126h-187l72 342h322l-72 -342q-27 -122 -130.5 -200.5t-250.5 -78.5zM182 760l74 342h322l-74 -342h-322z" />
<glyph unicode="&#x3c;" d="M45 422l41 184l930 449l-45 -217l-660 -326l520 -328l-49 -231z" />
<glyph unicode="=" d="M-35 188l49 228h914l-49 -228h-914zM47 578l49 227h914l-49 -227h-914z" />
<glyph unicode="&#x3e;" d="M-39 -47l49 233l656 310l-521 327l54 248l737 -465l-43 -200z" />
<glyph unicode="?" d="M117 1038q12 54 30.5 104.5t48.5 105t73 99t97 80.5t128 56t159 20q176 0 272.5 -82.5t96.5 -206.5q0 -117 -58 -217.5t-133 -162.5q-65 -53 -104.5 -93t-65.5 -83.5t-40 -85t-27 -107.5h-322q28 173 79.5 273t152.5 175q7 5 32 23t33.5 24.5t29.5 24t29.5 28t23 29.5 t20.5 35t11 38t5 46q0 39 -22.5 58.5t-73.5 19.5q-57 0 -100 -49.5t-64 -151.5h-311zM174 0l74 342h321l-73 -342h-322z" />
<glyph unicode="@" horiz-adv-x="1916" d="M217 549q0 174 79 340.5t207 289t299 197t347 74.5q158 0 288 -58.5t208.5 -171.5t78.5 -259q0 -96 -25.5 -184t-68.5 -155.5t-99 -126t-116 -98.5t-120.5 -69t-112.5 -42.5t-92 -13.5q-89 0 -89 103l-4 2q-50 -46 -111.5 -75.5t-115.5 -29.5q-112 0 -184 77t-72 192 q0 87 43 185t113.5 180.5t172 137t206.5 54.5q157 0 208 -127l50 104h172q-172 -387 -213 -483.5t-41 -118.5q0 -24 22 -24q68 0 139 62t120.5 173t49.5 234q0 178 -121.5 275t-322.5 97q-145 0 -276.5 -62.5t-223 -164.5t-146 -234.5t-54.5 -269.5q0 -200 130 -318 t349 -118q120 0 235.5 42t210.5 116h176q-135 -152 -309 -235t-358 -83q-278 0 -453.5 163.5t-175.5 422.5zM735 592q0 -58 32 -91.5t91 -33.5q72 0 141.5 49t111.5 122t42 144q0 56 -33 89.5t-92 33.5q-73 0 -142 -50t-110 -123t-41 -140z" />
<glyph unicode="A" horiz-adv-x="1089" d="M-106 0l630 1470h424l15 -1470h-349l9 295h-271l-106 -295h-352zM444 559h189l43 647h-2z" />
<glyph unicode="B" horiz-adv-x="1130" d="M-14 0l311 1470h565q79 0 143.5 -26.5t108 -90t43.5 -155.5q0 -82 -26 -155.5t-67.5 -124t-89 -84t-93.5 -43.5q76 -35 114.5 -91t38.5 -145q0 -37 -5.5 -79t-22 -97t-42 -106.5t-69 -102t-99.5 -87.5t-138 -60t-179 -23h-493zM383 264h80q107 0 164 70.5t57 191.5 q0 57 -31.5 85t-101.5 28h-88zM518 903h105q49 0 86 21t57 54t29.5 68t9.5 68q0 92 -117 92h-104z" />
<glyph unicode="C" horiz-adv-x="1130" d="M43 281q0 73 18 165l138 641q19 89 63 163t112.5 131.5t169 89.5t222.5 32q203 0 301 -87t98 -232q0 -70 -30 -199h-355q31 139 31 158q0 43 -32.5 66.5t-73.5 23.5q-49 0 -91 -28.5t-53 -80.5l-155 -733q-9 -37 -9 -61q0 -94 95 -94q130 0 161 151l41 195h355l-29 -138 q-54 -249 -194.5 -364t-387.5 -115q-201 0 -298 76.5t-97 239.5z" />
<glyph unicode="D" horiz-adv-x="1146" d="M-14 0l311 1470h494q196 0 289.5 -63t93.5 -197q0 -45 -13 -112l-153 -717q-39 -185 -171 -283t-358 -98h-493zM395 264h88q76 0 118.5 35.5t60.5 120.5l135 635q8 46 8 57q0 50 -30 72t-93 22h-86z" />
<glyph unicode="E" horiz-adv-x="976" d="M-14 0l311 1470h823l-59 -278h-469l-62 -289h420l-57 -278h-420l-74 -346h469l-59 -279h-823z" />
<glyph unicode="F" horiz-adv-x="976" d="M-14 0l311 1470h823l-59 -278h-469l-62 -289h420l-57 -278h-420l-133 -625h-354z" />
<glyph unicode="G" horiz-adv-x="1103" d="M43 254q0 53 16 135l150 701q87 413 553 413q389 0 389 -293q0 -61 -37 -225h-338q35 153 35 174q0 74 -100 74q-61 0 -101 -30t-51 -79l-158 -739q-8 -40 -8 -51q0 -50 30 -77.5t73 -27.5q48 0 91 35t56 96l37 166h-125l55 265h463l-168 -791h-231l12 125 q-40 -71 -137.5 -115.5t-212.5 -44.5q-59 0 -109.5 15.5t-93 48t-66.5 90t-24 135.5z" />
<glyph unicode="H" horiz-adv-x="1144" d="M-14 0l311 1470h354l-121 -567h232l121 567h354l-311 -1470h-355l134 625h-232l-133 -625h-354z" />
<glyph unicode="I" horiz-adv-x="559" d="M-14 0l311 1470h354l-311 -1470h-354z" />
<glyph unicode="J" horiz-adv-x="1024" d="M8 236q0 40 47 260h326q-41 -180 -41 -201q0 -22 22 -38.5t48 -16.5q31 0 64 18t40 51l248 1161h354l-246 -1157q-32 -152 -170 -248t-329 -96q-172 0 -267.5 72t-95.5 195z" />
<glyph unicode="K" horiz-adv-x="1103" d="M-14 0l311 1470h338l-123 -585l371 585h385l-463 -649l151 -821h-372l-56 512l-133 -170l-71 -342h-338z" />
<glyph unicode="L" horiz-adv-x="927" d="M-14 0l311 1470h354l-250 -1175h420l-61 -295h-774z" />
<glyph unicode="M" horiz-adv-x="1531" d="M-14 0l311 1470h494q0 -592 -58 -1060h4q13 38 70.5 221t81.5 243l241 596h494l-311 -1470h-338l108 516q90 408 156 641h-2l-465 -1157h-246l27 1157h-2q-51 -322 -119 -639l-108 -518h-338z" />
<glyph unicode="N" horiz-adv-x="1132" d="M-14 0l311 1470h342l104 -923h2q10 63 27 264.5t37 292.5l78 366h338l-312 -1470h-342l-114 895h-2q-2 -20 -20 -236.5t-38 -310.5l-73 -348h-338z" />
<glyph unicode="O" horiz-adv-x="1128" d="M43 287q0 59 16 141l142 662q39 184 183.5 298.5t383.5 114.5q202 0 298.5 -84.5t96.5 -228.5q0 -64 -14 -133l-135 -629q-100 -463 -576 -463q-199 0 -297 82.5t-98 239.5zM397 330q0 -43 29 -68.5t70 -25.5q49 0 93.5 34.5t57.5 96.5l158 745q4 20 4 31 q0 43 -29.5 66.5t-70.5 23.5q-51 0 -94 -31t-56 -90l-158 -745q-4 -24 -4 -37z" />
<glyph unicode="P" horiz-adv-x="1132" d="M-14 0l311 1470h514q352 0 352 -301q0 -46 -6 -95t-22.5 -108.5t-42 -113.5t-68.5 -106t-97.5 -89.5t-133 -60.5t-172.5 -23h-160l-121 -573h-354zM518 838h64q72 0 123.5 38t73.5 93.5t22 120.5t-38.5 90.5t-109.5 25.5h-57z" />
<glyph unicode="Q" horiz-adv-x="1128" d="M43 287q0 65 18 151l140 652q18 82 58.5 153t107 131t170 94.5t231.5 34.5q107 0 185.5 -25t123 -68.5t65.5 -96t21 -113.5q0 -78 -20 -172l-123 -573q-48 -224 -170 -349l129 -169l-238 -168l-161 204q-78 -8 -138 -8q-399 0 -399 322zM397 330q0 -43 29 -68.5t70 -25.5 q49 0 93.5 34.5t57.5 96.5l158 745q4 20 4 31q0 43 -29.5 66.5t-70.5 23.5q-51 0 -94 -31t-56 -90l-158 -745q-4 -24 -4 -37z" />
<glyph unicode="R" horiz-adv-x="1136" d="M-14 0l311 1470h557q147 0 233.5 -70.5t86.5 -203.5q0 -40 -7.5 -87t-28 -106t-52 -110t-84.5 -96.5t-119 -69.5q137 -42 137 -184q0 -49 -38 -221.5t-38 -204.5q0 -70 43 -70l-10 -47h-311q-80 0 -80 90q0 52 35.5 210t35.5 185q0 46 -27 67t-91 21h-78l-121 -573h-354z M518 838h90q76 0 134.5 65.5t58.5 183.5q0 119 -117 119h-88z" />
<glyph unicode="S" horiz-adv-x="1071" d="M31 256q0 78 39 233h323q-28 -122 -28 -161q0 -54 28 -76.5t82 -22.5q62 0 107 53t45 134q0 44 -24.5 78.5t-74.5 70.5l-186 131q-137 96 -137 283q0 160 72.5 280.5t193 182t270.5 61.5q163 0 261 -79t98 -240q0 -58 -19 -156h-319q14 69 14 105q0 106 -94 106 q-64 0 -101.5 -44.5t-37.5 -111.5q0 -71 84 -129l190 -133q73 -50 111.5 -113.5t38.5 -158.5q0 -111 -34.5 -213t-101 -186t-175.5 -134.5t-246 -50.5q-379 0 -379 291z" />
<glyph unicode="T" horiz-adv-x="933" d="M168 1192l59 278h865l-60 -278h-260l-252 -1192h-325l251 1192h-278z" />
<glyph unicode="U" horiz-adv-x="1148" d="M61 268q0 72 21 166l219 1036h354l-231 -1093q-6 -30 -6 -53q0 -88 92 -88q119 0 149 141l232 1093h354l-219 -1036q-55 -255 -196 -362t-377 -107q-195 0 -293.5 69.5t-98.5 233.5z" />
<glyph unicode="V" horiz-adv-x="1103" d="M211 1470h358l-34 -776q-2 -37 -17.5 -177.5t-28.5 -227.5h5q15 49 42.5 146t48 166.5t31.5 96.5l306 772h358l-637 -1470h-418z" />
<glyph unicode="W" horiz-adv-x="1533" d="M147 0l64 1470h342l-90 -765q-7 -63 -39 -237t-37 -206h4q121 426 125 436l285 772h323l-53 -765q-4 -45 -14.5 -119t-26.5 -173.5t-22 -142.5h4q7 28 33 132.5t45.5 180t35.5 122.5l246 765h326l-559 -1470h-385l73 725q11 105 78 487h-4q-107 -397 -137 -487l-244 -725 h-373z" />
<glyph unicode="X" horiz-adv-x="1095" d="M-100 0l483 743l-158 727h342l78 -432l262 432h342l-465 -727l168 -743h-372l-60 449l-278 -449h-342z" />
<glyph unicode="Y" horiz-adv-x="1103" d="M211 1470h358l86 -464l283 464h342l-530 -817l-138 -653h-354l137 653z" />
<glyph unicode="Z" horiz-adv-x="989" d="M-55 0l59 279l649 913h-426l60 278h807l-60 -278l-635 -913h459l-59 -279h-854z" />
<glyph unicode="[" horiz-adv-x="622" d="M-51 -373l393 1843h434l-39 -184h-155l-316 -1474h158l-39 -185h-436z" />
<glyph unicode="\" horiz-adv-x="917" d="M156 1470h264l338 -1470h-264z" />
<glyph unicode="]" horiz-adv-x="622" d="M-158 -373l39 185h170l316 1474h-168l39 184h446l-393 -1843h-449z" />
<glyph unicode="^" horiz-adv-x="989" d="M-70 729l514 744h248l180 -744l-233 -92l-133 541l-379 -541z" />
<glyph unicode="_" d="M-14 -233l26 124h992l-27 -124h-991z" />
<glyph unicode="`" horiz-adv-x="716" d="M33 1565h422l151 -312h-280z" />
<glyph unicode="a" horiz-adv-x="1003" d="M10 162q0 142 71.5 255.5t209.5 176.5l237 108q66 30 94.5 65t28.5 81q0 67 -80 67q-100 0 -129 -133l-8 -39h-295q39 181 157.5 285.5t321.5 104.5q349 0 349 -232q0 -29 -11 -86l-133 -629q-20 -94 -20 -137q0 -25 6 -49h-299l10 139q-57 -82 -121.5 -126t-169.5 -44 q-219 0 -219 193zM338 268q0 -32 16.5 -45.5t53.5 -13.5q56 0 91 40t54 126l37 172q-12 -12 -158 -92q-44 -24 -69 -77t-25 -110z" />
<glyph unicode="b" horiz-adv-x="995" d="M-51 0l313 1470h311l-98 -466q97 129 264 129q93 0 148 -55t55 -156q0 -52 -10 -93l-103 -487q-38 -181 -130 -277t-207 -96q-72 0 -138 33t-88 94l-20 -96h-297zM334 293q0 -76 63 -76q39 0 75 33t52 104l76 361q10 45 10 78q0 43 -21 64.5t-52 21.5q-35 0 -68 -36 t-47 -100l-82 -389q-6 -30 -6 -61z" />
<glyph unicode="c" horiz-adv-x="974" d="M33 248q0 59 14 119l74 346q91 420 493 420q330 0 330 -281q0 -62 -24 -172h-312l21 92q6 27 6 49q0 68 -72 68q-43 0 -74 -26t-40 -70l-99 -465q-6 -24 -6 -43q0 -37 18.5 -57.5t53.5 -20.5q44 0 75.5 31t43.5 90l28 137h311l-12 -62q-49 -226 -174 -330t-321 -104 q-160 0 -247 70.5t-87 208.5z" />
<glyph unicode="d" horiz-adv-x="995" d="M31 205q0 55 16 137l105 494q21 96 73 165.5t114.5 100.5t127.5 31q90 0 142.5 -31.5t74.5 -97.5l98 466h312l-314 -1470h-278l26 125q-118 -156 -309 -156q-85 0 -136.5 60t-51.5 176zM356 293q0 -76 64 -76q39 0 75 33t52 104l76 361q10 45 10 78q0 43 -21.5 64.5 t-52.5 21.5q-35 0 -68 -36t-47 -100l-82 -389q-6 -30 -6 -61z" />
<glyph unicode="e" horiz-adv-x="962" d="M29 242q0 33 10 88l96 448q20 94 69.5 165.5t116 111t138 59t145.5 19.5q65 0 122 -15t104.5 -46t75.5 -84.5t28 -123.5q0 -35 -10 -90l-56 -262h-495l-37 -170q-8 -50 -8 -63q0 -80 78 -80q102 0 131 143l14 66h295l-17 -80q-17 -76 -53 -138t-83 -102.5t-104.5 -68 t-114.5 -39t-116 -11.5q-51 0 -98 9.5t-89.5 30.5t-73.5 52t-49.5 77.5t-18.5 103.5zM416 713h200q19 90 19 121q0 41 -18.5 59t-59.5 18q-56 0 -88.5 -43t-52.5 -155z" />
<glyph unicode="f" horiz-adv-x="632" d="M18 0l189 885h-125l45 217h125l27 121q28 130 118 198t230 68h172l-49 -234q-80 0 -114.5 -14t-45.5 -65l-17 -74h144l-45 -217h-144l-188 -885h-322z" />
<glyph unicode="g" horiz-adv-x="997" d="M-49 -137q0 49 10 90h311q-6 -18 -6 -39q0 -68 78 -68q48 0 75.5 25t39.5 84l43 203q-54 -57 -126 -90t-143 -33q-89 0 -144.5 52t-55.5 159q0 52 10 96l109 506q28 133 124.5 209t206.5 76q73 0 130.5 -42t74.5 -116l27 127h299l-238 -1118q-76 -359 -467 -359 q-358 0 -358 238zM362 358q0 -75 74 -75q46 0 75.5 28t43.5 95l74 350q6 30 6 51q0 72 -72 72q-96 0 -121 -123l-73 -348q-7 -32 -7 -50z" />
<glyph unicode="h" horiz-adv-x="995" d="M-14 0l311 1470h311l-94 -442q105 105 254 105q91 0 147 -46.5t56 -136.5q0 -34 -8 -67l-187 -883h-311l166 776q4 16 4 39q0 64 -64 64q-43 0 -71 -27.5t-37 -75.5l-166 -776h-311z" />
<glyph unicode="i" horiz-adv-x="516" d="M-14 0l233 1102h311l-233 -1102h-311zM246 1223l57 264h311l-57 -264h-311z" />
<glyph unicode="j" horiz-adv-x="536" d="M-180 -375l51 232q64 0 88 21t43 108l238 1116h311l-246 -1151q-18 -85 -48 -147t-62.5 -95.5t-75 -53.5t-75 -25t-71.5 -5h-153zM264 1223l58 264h311l-58 -264h-311z" />
<glyph unicode="k" horiz-adv-x="989" d="M-14 0l311 1470h311l-151 -720l264 352h350l-387 -434l166 -668h-322l-96 432l-59 -76l-76 -356h-311z" />
<glyph unicode="l" horiz-adv-x="516" d="M-14 0l311 1470h311l-311 -1470h-311z" />
<glyph unicode="m" horiz-adv-x="1474" d="M-16 0l233 1102h295l-25 -117q58 71 135 109.5t148 38.5t122 -38.5t58 -109.5q47 72 124.5 110t158.5 38q91 0 152 -50.5t61 -140.5q0 -29 -6 -59l-187 -883h-311l166 776q4 16 4 39q0 64 -63 64q-43 0 -71.5 -27.5t-37.5 -75.5l-166 -776h-311l166 776q4 16 4 39 q0 64 -64 64q-43 0 -71 -27.5t-37 -75.5l-166 -776h-311z" />
<glyph unicode="n" horiz-adv-x="995" d="M-16 0l233 1102h277l-31 -146h2q49 76 136.5 126.5t164.5 50.5q89 0 146 -45t57 -132q0 -29 -6 -59l-189 -897h-311l166 776q4 16 4 39q0 64 -64 64q-43 0 -71 -27.5t-37 -75.5l-166 -776h-311z" />
<glyph unicode="o" horiz-adv-x="978" d="M33 256q0 45 18 135l70 322q91 420 493 420q330 0 330 -283q0 -57 -16 -139l-68 -318q-91 -424 -491 -424q-336 0 -336 287zM344 283q0 -76 74 -76q42 0 73 28.5t41 81.5l95 447q6 24 6 53q0 72 -70 72q-93 0 -119 -115l-92 -428q-8 -40 -8 -63z" />
<glyph unicode="p" horiz-adv-x="1001" d="M-98 -375l313 1477h281l-29 -131q65 80 141.5 121t147.5 41q99 0 155 -60.5t56 -173.5q0 -46 -13 -113l-106 -503q-30 -138 -129 -226t-211 -88q-63 0 -110 31t-85 98l-100 -473h-311zM360 293q0 -76 64 -76q39 0 75 33t52 104l76 361q10 45 10 78q0 43 -21.5 64.5 t-52.5 21.5q-35 0 -67.5 -36t-46.5 -100l-82 -389q-7 -35 -7 -61z" />
<glyph unicode="q" horiz-adv-x="1001" d="M31 201q0 34 10 82l106 503q34 164 129 255.5t218 91.5q71 0 130 -41t89 -121l28 131h281l-313 -1477h-312l101 473q-126 -129 -252 -129q-94 0 -154.5 64t-60.5 168zM362 293q0 -76 64 -76q39 0 75 33t52 104l76 361q10 45 10 78q0 43 -21.5 64.5t-52.5 21.5 q-35 0 -67.5 -36t-46.5 -100l-82 -389q-7 -35 -7 -61z" />
<glyph unicode="r" horiz-adv-x="679" d="M-16 0l233 1102h291l-35 -160q78 111 144 151t143 40l-74 -342q-126 0 -185.5 -50.5t-84.5 -169.5l-121 -571h-311z" />
<glyph unicode="s" horiz-adv-x="952" d="M25 231q0 51 12 113h295q-10 -41 -10 -84q0 -82 73 -82q131 0 131 129q0 33 -21 56.5t-77 52.5l-160 82q-129 67 -129 231q0 86 29 156t75.5 115t108.5 76t125 44t127 13q130 0 214.5 -77t84.5 -196q0 -44 -12 -86h-275q13 44 13 64q0 31 -20 52t-54 21 q-46 0 -79.5 -27.5t-33.5 -80.5q0 -35 22.5 -57.5t82.5 -55.5l155 -80q129 -66 129 -217q0 -205 -129 -314.5t-352 -109.5q-325 0 -325 262z" />
<glyph unicode="t" horiz-adv-x="651" d="M35 164q0 32 10 84l135 637h-125l47 217h125l66 307h311l-65 -307h168l-48 -217h-167l-113 -531q-14 -72 -14 -73q0 -32 39 -44t116 -12l-47 -225q-114 -12 -256 -12q-83 0 -132.5 42.5t-49.5 133.5z" />
<glyph unicode="u" horiz-adv-x="995" d="M23 125q0 25 6 59l194 918h312l-166 -776q-7 -35 -7 -43q0 -30 18 -48t50 -18q85 0 105 94l167 791h312l-234 -1102h-293l29 139h-2q-40 -86 -118.5 -128t-166.5 -42q-98 0 -152 39t-54 117z" />
<glyph unicode="v" horiz-adv-x="886" d="M133 0v1102h342l-59 -547q-14 -120 -60 -354h4q52 221 103 354l213 547h309l-481 -1102h-371z" />
<glyph unicode="w" horiz-adv-x="1302" d="M84 0l33 1102h311l-49 -498q-2 -15 -27 -181t-28 -179h4q4 16 54.5 182t55.5 178l191 498h262l-27 -494q-13 -121 -49 -364h4q84 302 107 360l166 498h311l-465 -1102h-328l15 350q1 15 30.5 214t32.5 216h-4q-2 -11 -59 -212t-64 -218l-135 -350h-342z" />
<glyph unicode="x" horiz-adv-x="894" d="M-100 0l376 543l-129 559h328l25 -311l159 311h326l-367 -559l134 -543h-326l-25 328l-159 -328h-342z" />
<glyph unicode="y" horiz-adv-x="911" d="M-47 -352l49 225q16 -4 61 -4q60 0 78.5 43t18.5 168v1022h309q-8 -208 -34 -482t-52 -407h4q111 366 119 389l182 500h301l-497 -1182q-64 -152 -162 -217t-244 -65q-88 0 -133 10z" />
<glyph unicode="z" horiz-adv-x="847" d="M-53 0l49 231l473 623h-326l54 248h696l-49 -232l-496 -622h365l-54 -248h-712z" />
<glyph unicode="{" horiz-adv-x="645" d="M27 653q104 33 143 75.5t63 156.5l86 401q24 107 119 159t234 52q73 0 123 -10q-70 -11 -125 -66.5t-68 -117.5l-90 -418q-14 -64 -30.5 -103.5t-44 -65.5t-59.5 -38.5t-87 -24.5q76 -12 107.5 -40.5t31.5 -88.5q0 -41 -51 -270.5t-51 -282.5q0 -59 25 -86.5t89 -56.5 q-50 -4 -131 -4q-136 0 -199 38t-63 124q0 32 51.5 268t51.5 276q0 48 -26.5 72.5t-98.5 50.5z" />
<glyph unicode="|" horiz-adv-x="483" d="M-47 0l315 1487h279l-316 -1487h-278z" />
<glyph unicode="}" horiz-adv-x="667" d="M-102 -174q106 39 145 82t63 155l72 343q24 114 74 168.5t147 78.5q-133 15 -133 135q0 34 50.5 268t50.5 271q0 31 -6.5 54t-25 42.5t-34 31.5t-49.5 34q69 0 115.5 -2t95 -7.5t79 -16.5t55.5 -29t36.5 -45t11.5 -64q0 -34 -51 -273.5t-51 -265.5q0 -106 121 -133 q-14 -6 -41 -17.5t-38.5 -17t-31 -17t-29 -24.5t-23 -33t-22 -47.5t-16.5 -64.5l-82 -385q-24 -111 -103 -170t-192 -59q-139 0 -188 8z" />
<glyph unicode="~" d="M49 449q138 247 313 247q46 0 98 -19.5t90.5 -43t80.5 -43t69 -19.5q77 0 181 142l77 -138q-81 -117 -157.5 -176t-157.5 -59q-41 0 -91 19.5t-89 43t-82.5 43t-71.5 19.5q-38 0 -77.5 -34.5t-100.5 -119.5z" />
<glyph unicode="&#xa9;" horiz-adv-x="1632" d="M45 535q0 164 54.5 311.5t147 255.5t211 188t250.5 120t261 40q128 0 239 -38t193.5 -109t130 -178.5t47.5 -239.5q0 -137 -38.5 -264t-105.5 -226.5t-157 -181t-193 -135.5t-213.5 -83.5t-218.5 -29.5q-172 0 -309 66t-218 197t-81 307zM264 567q0 -196 117.5 -313 t308.5 -117q119 0 239 54t215.5 146t155.5 227t60 284q0 194 -120 312t-308 118q-98 0 -196 -34t-182 -98.5t-149.5 -150.5t-103 -197t-37.5 -231zM422 608q0 92 34.5 185t97 171t160.5 126.5t214 48.5q137 0 210.5 -74.5t73.5 -226.5h-168q0 64 -42.5 96.5t-110.5 32.5 q-113 0 -187.5 -95.5t-74.5 -226.5q0 -84 42 -136t115 -52q74 0 130 36t77 103h176q-54 -145 -170 -227t-249 -82q-153 0 -240.5 89t-87.5 232z" />
<glyph unicode="&#xab;" d="M35 481l59 279l418 231l-55 -262l-224 -106l175 -127l-56 -263zM502 481l59 279l418 231l-55 -262l-224 -106l174 -127l-55 -263z" />
<glyph unicode="&#xad;" horiz-adv-x="655" d="M51 379l49 227h533l-49 -227h-533z" />
<glyph unicode="&#xae;" horiz-adv-x="1681" d="M78 528q0 164 54.5 312t147 257.5t211 190t250.5 121.5t263 41q128 0 238.5 -38t193 -109t129.5 -178.5t47 -239.5q0 -164 -54.5 -312t-146.5 -257.5t-210.5 -190t-250.5 -121.5t-262 -41q-129 0 -240 38t-193.5 109t-129.5 178.5t-47 239.5zM299 565q0 -195 118 -312.5 t308 -117.5q119 0 238.5 54t214 146t154 226t59.5 283q0 196 -118.5 315t-305.5 119q-128 0 -250.5 -57.5t-214 -153.5t-147.5 -228t-56 -274zM467 307l170 801h299q141 0 213 -40.5t72 -135.5q0 -119 -73.5 -197t-172.5 -78l131 -350h-203l-115 338h-77l-72 -338h-172z M739 780h150q145 0 145 125q0 68 -135 68h-119z" />
<glyph unicode="&#xbb;" d="M14 248l56 262l227 127l-178 106l55 263l320 -232l-60 -278zM479 248l56 262l227 127l-178 106l55 263l319 -232l-59 -278z" />
<glyph unicode="&#x401;" horiz-adv-x="976" d="M-14 0l311 1470h823l-59 -278h-469l-62 -289h420l-57 -278h-420l-74 -346h469l-59 -279h-823zM373 1559l45 210h262l-45 -210h-262zM834 1559l45 210h262l-45 -210h-262z" />
<glyph unicode="&#x402;" horiz-adv-x="1312" d="M168 1192l59 278h865l-60 -278h-260l-74 -346q95 28 252 28q47 0 92.5 -17t86 -50.5t65.5 -93.5t25 -138q0 -54 -8.5 -108.5t-28 -112t-48.5 -108.5t-73 -96.5t-98.5 -78.5t-128.5 -52t-160 -19h-92l55 264q61 0 106.5 22.5t69 60.5t34.5 79t11 86q0 84 -78 84 q-71 0 -139 -29l-121 -567h-325l251 1192h-278z" />
<glyph unicode="&#x403;" horiz-adv-x="976" d="M-14 0l311 1470h823l-59 -278h-469l-252 -1192h-354zM600 1571l297 327h315l-368 -327h-244z" />
<glyph unicode="&#x404;" horiz-adv-x="1130" d="M43 279q0 63 20 165l138 646q39 185 183 299t384 114q203 0 302 -87t99 -232q0 -68 -30 -189h-355q29 125 29 148q0 40 -31.5 65t-74.5 25q-49 0 -92 -29t-54 -82l-45 -219h189l-60 -278h-188l-51 -236q-7 -40 -7 -57q0 -96 95 -96q130 0 161 151l33 152h354l-20 -95 q-54 -249 -194.5 -364t-387.5 -115q-201 0 -299 76t-98 238z" />
<glyph unicode="&#x405;" horiz-adv-x="1071" d="M31 256q0 78 39 233h323q-28 -122 -28 -161q0 -54 28 -76.5t82 -22.5q62 0 107 53t45 134q0 44 -24.5 78.5t-74.5 70.5l-186 131q-137 96 -137 283q0 160 72.5 280.5t193 182t270.5 61.5q163 0 261 -79t98 -240q0 -58 -19 -156h-319q14 69 14 105q0 106 -94 106 q-64 0 -101.5 -44.5t-37.5 -111.5q0 -71 84 -129l190 -133q73 -50 111.5 -113.5t38.5 -158.5q0 -111 -34.5 -213t-101 -186t-175.5 -134.5t-246 -50.5q-379 0 -379 291z" />
<glyph unicode="&#x406;" horiz-adv-x="559" d="M-14 0l311 1470h354l-311 -1470h-354z" />
<glyph unicode="&#x407;" horiz-adv-x="559" d="M-14 0l311 1470h354l-311 -1470h-354zM131 1559l45 210h262l-45 -210h-262zM592 1559l45 210h262l-45 -210h-262z" />
<glyph unicode="&#x408;" horiz-adv-x="1024" d="M8 236q0 40 47 260h326q-41 -180 -41 -201q0 -22 22 -38.5t48 -16.5q31 0 64 18t40 51l248 1161h354l-246 -1157q-32 -152 -170 -248t-329 -96q-172 0 -267.5 72t-95.5 195z" />
<glyph unicode="&#x409;" horiz-adv-x="1832" d="M-74 27l54 247q21 -12 83 -12q72 0 106 83t107 431l148 694h930l-121 -567h160q72 0 130.5 -14.5t110 -48t80.5 -96t29 -150.5q0 -38 -4.5 -81.5t-19.5 -103t-38.5 -114t-65.5 -109.5t-96.5 -95.5t-136.5 -65.5t-180 -25h-514l252 1192h-233l-107 -506 q-45 -209 -92.5 -344.5t-108 -215t-128.5 -111t-162 -31.5q-92 0 -183 43zM1098 264h61q55 0 97 18t64.5 44t37 61.5t18.5 64t4 58.5q0 68 -37 98.5t-98 30.5h-67z" />
<glyph unicode="&#x40a;" horiz-adv-x="1718" d="M-14 0l311 1470h354l-121 -567h232l121 567h354l-121 -567h160q72 0 130.5 -14.5t110 -48t80.5 -96t29 -150.5q0 -38 -4.5 -81.5t-19.5 -103t-38.5 -114t-65.5 -109.5t-96.5 -95.5t-136.5 -65.5t-180 -25h-514l136 639h-232l-135 -639h-354zM981 264h61q55 0 97 18t65 44 t37 61.5t18.5 64t4.5 58.5q0 68 -37.5 98.5t-98.5 30.5h-67z" />
<glyph unicode="&#x40b;" horiz-adv-x="1288" d="M168 1192l59 278h865l-60 -278h-260l-74 -346q65 16 120.5 22t154.5 6q95 0 165 -60.5t70 -184.5q0 -52 -10 -101l-113 -528h-333l96 455q12 62 12 73q0 68 -80 68q-71 0 -139 -29l-121 -567h-325l251 1192h-278z" />
<glyph unicode="&#x40c;" horiz-adv-x="1103" d="M-14 0l311 1470h338l-123 -585l371 585h385l-463 -649l151 -821h-372l-56 512l-133 -170l-71 -342h-338zM649 1571l297 327h316l-369 -327h-244z" />
<glyph unicode="&#x40e;" horiz-adv-x="1107" d="M72 23l53 249q23 -10 86 -10q66 0 94 49l-86 1159h371v-493q0 -187 -49 -451h4q66 227 100 303l273 641h366l-555 -1132q-105 -213 -202.5 -283.5t-284.5 -70.5q-53 0 -103.5 10.5t-66.5 28.5zM512 1757q0 30 6 64h135q0 -34 12.5 -56t37 -32t49.5 -13.5t61 -3.5 q73 0 118.5 20.5t78.5 84.5h131q-28 -125 -134.5 -195t-236.5 -70q-258 0 -258 201z" />
<glyph unicode="&#x40f;" horiz-adv-x="1144" d="M-14 0l311 1470h354l-252 -1191h232l252 1191h354l-311 -1470h-342l-64 -303h-256l64 303h-342z" />
<glyph unicode="&#x410;" horiz-adv-x="1089" d="M-106 0l630 1470h424l15 -1470h-349l9 295h-271l-106 -295h-352zM444 559h189l43 647h-2z" />
<glyph unicode="&#x411;" horiz-adv-x="1132" d="M-14 0l311 1470h801l-56 -264h-446l-66 -303h160q72 0 130.5 -14.5t110 -48t80.5 -96t29 -150.5q0 -39 -4.5 -82t-19.5 -102.5t-38 -114t-65.5 -109.5t-97 -95.5t-136 -65.5t-179.5 -25h-514zM395 264h62q55 0 97 18t64.5 44t37 61.5t18.5 64t4 58.5q0 68 -37 98.5 t-98 30.5h-68z" />
<glyph unicode="&#x412;" horiz-adv-x="1130" d="M-14 0l311 1470h565q79 0 143.5 -26.5t108 -90t43.5 -155.5q0 -82 -26 -155.5t-67.5 -124t-89 -84t-93.5 -43.5q76 -35 114.5 -91t38.5 -145q0 -37 -5.5 -79t-22 -97t-42 -106.5t-69 -102t-99.5 -87.5t-138 -60t-179 -23h-493zM383 264h80q107 0 164 70.5t57 191.5 q0 57 -31.5 85t-101.5 28h-88zM518 903h105q49 0 86 21t57 54t29.5 68t9.5 68q0 92 -117 92h-104z" />
<glyph unicode="&#x413;" horiz-adv-x="976" d="M-14 0l311 1470h823l-59 -278h-469l-252 -1192h-354z" />
<glyph unicode="&#x414;" horiz-adv-x="1280" d="M-133 -301l123 580h49q108 127 169 281.5t132 490.5l90 419h936l-254 -1191h76l-123 -580h-344l63 301h-510l-63 -301h-344zM410 279h348l194 913h-235l-60 -277q-46 -222 -102 -369.5t-145 -266.5z" />
<glyph unicode="&#x415;" horiz-adv-x="976" d="M-14 0l311 1470h823l-59 -278h-469l-62 -289h420l-57 -278h-420l-74 -346h469l-59 -279h-823z" />
<glyph unicode="&#x416;" horiz-adv-x="1665" d="M-86 0l500 821l-189 649h385l125 -585l123 585h338l-123 -585l371 585h385l-463 -649l152 -821h-373l-55 512l-134 -170l-71 -342h-338l71 342l-59 170l-272 -512h-373z" />
<glyph unicode="&#x417;" horiz-adv-x="1081" d="M23 293q0 74 16 147h326q-13 -70 -13 -104q0 -58 23.5 -82.5t68.5 -24.5q50 0 88 26.5t58 71.5t29.5 93.5t9.5 101.5q0 58 -30 84.5t-95 26.5h-51l55 264h84q56 0 102.5 69.5t46.5 168.5q0 104 -88 104q-66 0 -103.5 -50.5t-62.5 -166.5h-325q32 149 114 259t193.5 166 t239.5 56q176 0 270 -86.5t94 -222.5q0 -140 -73.5 -253.5t-217.5 -166.5q99 -35 148 -87t49 -157q0 -136 -45.5 -245t-125 -178t-183.5 -105.5t-224 -36.5q-60 0 -112 9t-102 32.5t-85.5 59.5t-57 94t-21.5 133z" />
<glyph unicode="&#x418;" horiz-adv-x="1128" d="M-14 0l311 1470h338l-78 -364q-18 -90 -86.5 -292.5t-85.5 -266.5h2l496 923h338l-312 -1470h-338l72 342q21 95 101.5 321t82.5 232h-2l-495 -895h-344z" />
<glyph unicode="&#x419;" horiz-adv-x="1128" d="M-14 0l311 1470h338l-78 -364q-18 -90 -86.5 -292.5t-85.5 -266.5h2l496 923h338l-312 -1470h-338l72 342q21 95 101.5 321t82.5 232h-2l-495 -895h-344zM518 1757q0 30 6 64h135q0 -34 12.5 -56t37 -32t49.5 -13.5t61 -3.5q73 0 118.5 20.5t78.5 84.5h131 q-28 -125 -134.5 -195t-236.5 -70q-258 0 -258 201z" />
<glyph unicode="&#x41a;" horiz-adv-x="1103" d="M-14 0l311 1470h338l-123 -585l371 585h385l-463 -649l151 -821h-372l-56 512l-133 -170l-71 -342h-338z" />
<glyph unicode="&#x41b;" horiz-adv-x="1259" d="M-74 27l54 247q21 -12 83 -12q72 0 106 83t107 431l148 694h930l-312 -1470h-354l252 1192h-233l-107 -506q-45 -209 -92.5 -344.5t-108 -215t-128.5 -111t-162 -31.5q-92 0 -183 43z" />
<glyph unicode="&#x41c;" horiz-adv-x="1531" d="M-14 0l311 1470h494q0 -592 -58 -1060h4q13 38 70.5 221t81.5 243l241 596h494l-311 -1470h-338l108 516q90 408 156 641h-2l-465 -1157h-246l27 1157h-2q-51 -322 -119 -639l-108 -518h-338z" />
<glyph unicode="&#x41d;" horiz-adv-x="1144" d="M-14 0l311 1470h354l-121 -567h232l121 567h354l-311 -1470h-355l134 625h-232l-133 -625h-354z" />
<glyph unicode="&#x41e;" horiz-adv-x="1128" d="M43 287q0 59 16 141l142 662q39 184 183.5 298.5t383.5 114.5q202 0 298.5 -84.5t96.5 -228.5q0 -64 -14 -133l-135 -629q-100 -463 -576 -463q-199 0 -297 82.5t-98 239.5zM397 330q0 -43 29 -68.5t70 -25.5q49 0 93.5 34.5t57.5 96.5l158 745q4 20 4 31 q0 43 -29.5 66.5t-70.5 23.5q-51 0 -94 -31t-56 -90l-158 -745q-4 -24 -4 -37z" />
<glyph unicode="&#x41f;" horiz-adv-x="1144" d="M-14 0l311 1470h940l-311 -1470h-355l252 1192h-231l-252 -1192h-354z" />
<glyph unicode="&#x420;" horiz-adv-x="1132" d="M-14 0l311 1470h514q352 0 352 -301q0 -46 -6 -95t-22.5 -108.5t-42 -113.5t-68.5 -106t-97.5 -89.5t-133 -60.5t-172.5 -23h-160l-121 -573h-354zM518 838h64q72 0 123.5 38t73.5 93.5t22 120.5t-38.5 90.5t-109.5 25.5h-57z" />
<glyph unicode="&#x421;" horiz-adv-x="1130" d="M43 281q0 73 18 165l138 641q19 89 63 163t112.5 131.5t169 89.5t222.5 32q203 0 301 -87t98 -232q0 -70 -30 -199h-355q31 139 31 158q0 43 -32.5 66.5t-73.5 23.5q-49 0 -91 -28.5t-53 -80.5l-155 -733q-9 -37 -9 -61q0 -94 95 -94q130 0 161 151l41 195h355l-29 -138 q-54 -249 -194.5 -364t-387.5 -115q-201 0 -298 76.5t-97 239.5z" />
<glyph unicode="&#x422;" horiz-adv-x="933" d="M168 1192l59 278h865l-60 -278h-260l-252 -1192h-325l251 1192h-278z" />
<glyph unicode="&#x423;" horiz-adv-x="1107" d="M72 23l53 249q23 -10 86 -10q66 0 94 49l-86 1159h371v-493q0 -187 -49 -451h4q66 227 100 303l273 641h366l-555 -1132q-105 -213 -202.5 -283.5t-284.5 -70.5q-53 0 -103.5 10.5t-66.5 28.5z" />
<glyph unicode="&#x424;" horiz-adv-x="1648" d="M98 532q0 65 9.5 136t31.5 149.5t54.5 150.5t83 138.5t112 115.5t145.5 78t181 29h104l29 141h342l-29 -141h105q171 0 268.5 -94t97.5 -285q0 -45 -6.5 -101.5t-24.5 -134.5t-46 -152.5t-77 -149t-110.5 -130t-152.5 -90t-199 -34.5h-105l-32 -158h-342l32 158h-104 q-171 0 -269 91t-98 283zM428 582q0 -160 127 -160h70l137 643h-74q-62 0 -111 -42t-75.5 -101.5t-44.5 -131.5t-23.5 -123t-5.5 -85zM967 422h71q67 0 118.5 47t78 110.5t43.5 139.5t21 121t4 69q0 156 -123 156h-76z" />
<glyph unicode="&#x425;" horiz-adv-x="1095" d="M-100 0l483 743l-158 727h342l78 -432l262 432h342l-465 -727l168 -743h-372l-60 449l-278 -449h-342z" />
<glyph unicode="&#x426;" horiz-adv-x="1169" d="M-14 0l311 1470h354l-254 -1191h232l254 1191h354l-254 -1191h76l-123 -582h-346l63 303h-667z" />
<glyph unicode="&#x427;" horiz-adv-x="1128" d="M160 852q0 50 10 94l111 524h354l-105 -493q-4 -24 -4 -35q0 -68 80 -68q71 0 139 29l121 567h355l-312 -1470h-354l133 625q-67 -16 -121.5 -22.5t-152.5 -6.5q-45 0 -88 14.5t-81 43.5t-61.5 80t-23.5 118z" />
<glyph unicode="&#x428;" horiz-adv-x="1722" d="M-14 0l311 1470h354l-252 -1191h234l252 1191h342l-252 -1191h233l252 1191h355l-312 -1470h-1517z" />
<glyph unicode="&#x429;" horiz-adv-x="1744" d="M-14 0l311 1470h354l-252 -1191h234l252 1191h342l-252 -1191h233l252 1191h355l-252 -1191h71l-123 -582h-346l64 303h-1243z" />
<glyph unicode="&#x42a;" horiz-adv-x="1302" d="M139 1206l56 264h626l-121 -567h160q72 0 130.5 -14.5t110 -48t80.5 -96t29 -150.5q0 -39 -4.5 -82t-19.5 -102.5t-38 -114t-65.5 -109.5t-97 -95.5t-136 -65.5t-179.5 -25h-514l256 1206h-273zM565 264h62q55 0 97 18t64.5 44t37 61.5t18.5 64t4 58.5q0 68 -37 98.5 t-98 30.5h-68z" />
<glyph unicode="&#x42b;" horiz-adv-x="1644" d="M-14 0l311 1470h354l-121 -567h160q72 0 130.5 -14.5t110 -48t80.5 -96t29 -150.5q0 -39 -4.5 -82t-19.5 -102.5t-38 -114t-65.5 -109.5t-97 -95.5t-136 -65.5t-179.5 -25h-514zM395 264h62q55 0 97 18t64.5 44t37 61.5t18.5 64t4 58.5q0 68 -37 98.5t-98 30.5h-68z M1071 0l311 1470h355l-312 -1470h-354z" />
<glyph unicode="&#x42c;" horiz-adv-x="1132" d="M-14 0l311 1470h354l-121 -567h160q72 0 130.5 -14.5t110 -48t80.5 -96t29 -150.5q0 -39 -4.5 -82t-19.5 -102.5t-38 -114t-65.5 -109.5t-97 -95.5t-136 -65.5t-179.5 -25h-514zM395 264h62q55 0 97 18t64.5 44t37 61.5t18.5 64t4 58.5q0 68 -37 98.5t-98 30.5h-68z" />
<glyph unicode="&#x42d;" horiz-adv-x="1130" d="M43 279q0 66 41 260h354q-39 -169 -39 -205q0 -98 103 -98q121 0 153 153l52 236h-189l60 278h188l41 199q6 30 6 49q0 39 -28.5 60.5t-69.5 21.5q-48 0 -95.5 -30.5t-58.5 -84.5l-26 -123h-355q34 244 186.5 376t401.5 132q205 0 304 -84t99 -227q0 -50 -12 -102 l-137 -646q-54 -250 -195 -364.5t-387 -114.5q-201 0 -299 76t-98 238z" />
<glyph unicode="&#x42e;" horiz-adv-x="1705" d="M-14 0l311 1470h354l-121 -567h207l39 187q39 184 183.5 298.5t383.5 114.5q203 0 299.5 -85t96.5 -228q0 -62 -13 -125l-137 -637q-100 -463 -573 -463q-201 0 -299.5 83t-98.5 241q0 52 17 139l41 197h-205l-131 -625h-354zM973 330q0 -43 28.5 -68.5t69.5 -25.5 q49 0 94 34.5t58 96.5l157 745q4 20 4 31q0 43 -29.5 66.5t-70.5 23.5q-50 0 -93 -31t-56 -90l-158 -745q-4 -24 -4 -37z" />
<glyph unicode="&#x42f;" horiz-adv-x="1144" d="M-84 0l414 649q-63 37 -99 112t-36 171q0 139 64 262t181 199.5t258 76.5h539l-311 -1470h-355l119 565h-69l-328 -565h-377zM551 963q0 -61 29 -97.5t82 -36.5h86l79 377h-82q-81 0 -137.5 -69.5t-56.5 -173.5z" />
<glyph unicode="&#x430;" horiz-adv-x="1003" d="M10 162q0 142 71.5 255.5t209.5 176.5l237 108q66 30 94.5 65t28.5 81q0 67 -80 67q-100 0 -129 -133l-8 -39h-295q39 181 157.5 285.5t321.5 104.5q349 0 349 -232q0 -29 -11 -86l-133 -629q-20 -94 -20 -137q0 -25 6 -49h-299l10 139q-57 -82 -121.5 -126t-169.5 -44 q-219 0 -219 193zM338 268q0 -32 16.5 -45.5t53.5 -13.5q56 0 91 40t54 126l37 172q-12 -12 -158 -92q-44 -24 -69 -77t-25 -110z" />
<glyph unicode="&#x431;" horiz-adv-x="978" d="M37 252q0 57 16 139l82 389q49 232 183.5 404t308.5 205q112 22 161.5 39t63.5 45h172q-25 -57 -55.5 -97t-71 -66t-81.5 -41t-101 -30q-111 -26 -175 -90.5t-122 -210.5h20q113 139 295 139q101 0 156 -59t55 -170q0 -52 -12 -117l-72 -338q-91 -424 -491 -424 q-332 0 -332 283zM346 285q0 -78 74 -78q42 0 72 28.5t40 81.5l84 396q7 32 7 53q0 68 -70 68q-46 0 -77 -29t-42 -80l-80 -381q-8 -33 -8 -59z" />
<glyph unicode="&#x432;" horiz-adv-x="954" d="M-14 0l233 1102h451q115 0 182.5 -54t67.5 -151q0 -104 -63 -196.5t-167 -125.5q71 -31 105 -74t34 -114q0 -68 -23.5 -135t-67.5 -124t-116.5 -92.5t-160.5 -35.5h-475zM326 217h69q70 0 106 44.5t36 117.5q0 80 -91 80h-69zM420 657h53q64 0 99.5 41.5t35.5 116.5 q0 37 -21 53.5t-65 16.5h-53z" />
<glyph unicode="&#x433;" horiz-adv-x="825" d="M-14 0l233 1102h690l-53 -248h-379l-180 -854h-311z" />
<glyph unicode="&#x434;" horiz-adv-x="1085" d="M-115 -233l103 481h61q83 130 121.5 226.5t77.5 279.5l74 348h770l-181 -854h88l-102 -481h-295l49 233h-422l-49 -233h-295zM348 248h252l129 606h-164l-37 -174q-31 -137 -71 -236t-109 -196z" />
<glyph unicode="&#x435;" horiz-adv-x="962" d="M29 242q0 33 10 88l96 448q20 94 69.5 165.5t116 111t138 59t145.5 19.5q65 0 122 -15t104.5 -46t75.5 -84.5t28 -123.5q0 -35 -10 -90l-56 -262h-495l-37 -170q-8 -50 -8 -63q0 -80 78 -80q102 0 131 143l14 66h295l-17 -80q-17 -76 -53 -138t-83 -102.5t-104.5 -68 t-114.5 -39t-116 -11.5q-51 0 -98 9.5t-89.5 30.5t-73.5 52t-49.5 77.5t-18.5 103.5zM416 713h200q19 90 19 121q0 41 -18.5 59t-59.5 18q-56 0 -88.5 -43t-52.5 -155z" />
<glyph unicode="&#x436;" horiz-adv-x="1433" d="M-98 0l448 668l-203 434h351l116 -352l74 352h285l-74 -352l264 352h350l-387 -434l166 -668h-321l-97 432l-59 -76l-76 -356h-284l75 356l-26 76l-281 -432h-321z" />
<glyph unicode="&#x437;" horiz-adv-x="960" d="M14 229q0 37 23 152h295q-15 -74 -15 -92q0 -82 74 -82q64 0 97.5 51t33.5 129q0 42 -22.5 59t-69.5 17h-16l43 201h16q65 0 103 41.5t38 107.5q0 76 -69 76q-48 0 -76 -33t-45 -113h-295q28 133 102 222.5t170 128.5t213 39q146 0 228 -63t82 -177q0 -108 -61 -195.5 t-175 -122.5q75 -24 110.5 -65.5t35.5 -110.5q0 -87 -30.5 -164t-87.5 -136.5t-147 -94.5t-200 -35q-54 0 -101.5 6.5t-95.5 25t-82 46.5t-55 75t-21 107z" />
<glyph unicode="&#x438;" horiz-adv-x="1030" d="M-14 0l233 1102h285l-103 -484l-79 -223l-3 -6l420 713h305l-233 -1102h-285l103 485l84 226v4l-420 -715h-307z" />
<glyph unicode="&#x439;" horiz-adv-x="1030" d="M-20 0l233 1102h285l-103 -484l-80 -223l-2 -6l420 713h305l-233 -1102h-285l103 485l84 226v4l-420 -715h-307zM383 1380q0 28 6 62h135q0 -34 12.5 -55.5t37 -31.5t49 -13t61.5 -3q49 0 80 6t63 29.5t54 67.5h131q-28 -126 -133 -194t-236 -68q-260 0 -260 200z" />
<glyph unicode="&#x43a;" horiz-adv-x="989" d="M-14 0l233 1102h311l-73 -352l264 352h350l-387 -434l166 -668h-322l-96 432l-59 -76l-76 -356h-311z" />
<glyph unicode="&#x43b;" horiz-adv-x="1071" d="M-92 0l47 221q27 -6 49 -6q70 0 105.5 82t91.5 350l96 455h790l-233 -1102h-311l182 854h-176l-72 -338q-44 -209 -104.5 -328.5t-134 -165t-179.5 -45.5q-67 0 -151 23z" />
<glyph unicode="&#x43c;" horiz-adv-x="1265" d="M-14 0l233 1102h385q3 -50 7.5 -234t4.5 -209q0 -113 -30 -329h4q81 274 104 329l201 443h385l-233 -1102h-285l104 496q9 45 119 358h-2l-395 -854h-142l-26 854h-2q-32 -313 -43 -362l-105 -492h-284z" />
<glyph unicode="&#x43d;" horiz-adv-x="995" d="M-14 0l233 1102h311l-90 -422h168l90 422h312l-234 -1102h-311l94 444h-168l-94 -444h-311z" />
<glyph unicode="&#x43e;" horiz-adv-x="978" d="M33 256q0 45 18 135l70 322q91 420 493 420q330 0 330 -283q0 -57 -16 -139l-68 -318q-91 -424 -491 -424q-336 0 -336 287zM344 283q0 -76 74 -76q42 0 73 28.5t41 81.5l95 447q6 24 6 53q0 72 -70 72q-93 0 -119 -115l-92 -428q-8 -40 -8 -63z" />
<glyph unicode="&#x43f;" horiz-adv-x="995" d="M-14 0l233 1102h791l-234 -1102h-311l180 854h-168l-180 -854h-311z" />
<glyph unicode="&#x440;" horiz-adv-x="1001" d="M-98 -375l313 1477h281l-29 -131q65 80 141.5 121t147.5 41q99 0 155 -60.5t56 -173.5q0 -46 -13 -113l-106 -503q-30 -138 -129 -226t-211 -88q-63 0 -110 31t-85 98l-100 -473h-311zM360 293q0 -76 64 -76q39 0 75 33t52 104l76 361q10 45 10 78q0 43 -21.5 64.5 t-52.5 21.5q-35 0 -67.5 -36t-46.5 -100l-82 -389q-7 -35 -7 -61z" />
<glyph unicode="&#x441;" horiz-adv-x="974" d="M33 248q0 59 14 119l74 346q91 420 493 420q330 0 330 -281q0 -62 -24 -172h-312l21 92q6 27 6 49q0 68 -72 68q-43 0 -74 -26t-40 -70l-99 -465q-6 -24 -6 -43q0 -37 18.5 -57.5t53.5 -20.5q44 0 75.5 31t43.5 90l28 137h311l-12 -62q-49 -226 -174 -330t-321 -104 q-160 0 -247 70.5t-87 208.5z" />
<glyph unicode="&#x442;" horiz-adv-x="796" d="M86 854l53 248h742l-54 -248h-215l-180 -854h-311l180 854h-215z" />
<glyph unicode="&#x443;" horiz-adv-x="911" d="M-47 -352l49 225q16 -4 61 -4q60 0 78.5 43t18.5 168v1022h309q-8 -208 -34 -482t-52 -407h4q111 366 119 389l182 500h301l-497 -1182q-64 -152 -162 -217t-244 -65q-88 0 -133 10z" />
<glyph unicode="&#x444;" horiz-adv-x="1425" d="M20 205q0 36 9 74l106 499q35 166 122.5 260.5t188.5 94.5q151 0 213 -140l103 477h295l-103 -477q111 140 267 140q84 0 133 -60t49 -170q0 -62 -14 -125l-107 -497q-27 -125 -120.5 -218.5t-198.5 -93.5q-123 0 -199 123l-100 -467h-295l100 465q-127 -121 -250 -121 q-90 0 -144.5 68t-54.5 168zM332 293q0 -76 63 -76q39 0 75 33t52 104l76 361q10 45 10 78q0 43 -21 64.5t-52 21.5q-35 0 -68 -36t-47 -100l-82 -389q-6 -30 -6 -61zM815 293q0 -76 64 -76q39 0 75 33t52 104l75 361q11 50 11 78q0 43 -21.5 64.5t-52.5 21.5q-35 0 -68 -36 t-47 -100l-82 -389q-6 -30 -6 -61z" />
<glyph unicode="&#x445;" horiz-adv-x="894" d="M-100 0l376 543l-129 559h328l25 -311l159 311h326l-367 -559l134 -543h-326l-25 328l-159 -328h-342z" />
<glyph unicode="&#x446;" horiz-adv-x="1017" d="M-14 0l233 1102h311l-180 -854h168l180 854h312l-181 -854h89l-103 -481h-295l49 233h-583z" />
<glyph unicode="&#x447;" horiz-adv-x="985" d="M109 594q0 30 6 65l94 443h311l-67 -318q-9 -44 -9 -51q0 -31 18 -49t50 -18q54 0 86 14l90 422h311l-233 -1102h-311l96 455q-113 -37 -248 -37q-94 0 -144 46t-50 130z" />
<glyph unicode="&#x448;" horiz-adv-x="1474" d="M-14 0l233 1102h311l-180 -854h168l180 854h312l-181 -854h168l181 854h311l-234 -1102h-1269z" />
<glyph unicode="&#x449;" horiz-adv-x="1497" d="M-14 0l233 1102h311l-180 -854h168l180 854h312l-181 -854h168l181 854h311l-180 -854h88l-103 -481h-295l50 233h-1063z" />
<glyph unicode="&#x44a;" horiz-adv-x="1089" d="M76 866l49 236h516l-82 -383h133q142 0 214.5 -66.5t72.5 -187.5q0 -53 -10.5 -109t-41 -121.5t-77 -116t-127 -84.5t-182.5 -34h-445l185 866h-205zM457 229h49q76 0 121 43t45 125q0 92 -105 92h-55z" />
<glyph unicode="&#x44b;" horiz-adv-x="1452" d="M-14 0l233 1102h311l-81 -383h133q142 0 214 -66.5t72 -187.5q0 -53 -10.5 -109t-41 -121.5t-77 -116t-127 -84.5t-182.5 -34h-444zM346 229h49q76 0 121 43t45 125q0 92 -104 92h-56zM922 0l233 1102h311l-233 -1102h-311z" />
<glyph unicode="&#x44c;" horiz-adv-x="978" d="M-14 0l233 1102h311l-81 -383h133q142 0 214 -66.5t72 -187.5q0 -53 -10.5 -109t-41 -121.5t-77 -116t-127 -84.5t-182.5 -34h-444zM346 229h49q76 0 121 43t45 125q0 92 -104 92h-56z" />
<glyph unicode="&#x44d;" horiz-adv-x="962" d="M20 254q0 62 19 149h311q-20 -91 -20 -122q0 -74 69 -74q44 0 75.5 32t43.5 89l27 131h-133l43 200h133l24 113q6 27 6 47q0 33 -19.5 51.5t-55.5 18.5q-44 0 -74 -30.5t-41 -82.5l-10 -55h-299q44 211 173 311.5t314 100.5q322 0 322 -281q0 -51 -17 -141l-73 -344 q-42 -197 -168 -297.5t-318 -100.5q-332 0 -332 285z" />
<glyph unicode="&#x44e;" horiz-adv-x="1470" d="M-14 0l233 1102h311l-90 -422h164l8 33q91 420 492 420q332 0 332 -283q0 -52 -17 -139l-67 -316q-91 -426 -494 -426q-156 0 -245 69t-89 218q0 59 31 188h-164l-94 -444h-311zM836 283q0 -76 73 -76q42 0 73.5 28.5t41.5 81.5l94 447q6 24 6 53q0 72 -69 72 q-93 0 -119 -115l-92 -428q-8 -40 -8 -63z" />
<glyph unicode="&#x44f;" horiz-adv-x="974" d="M-86 0l291 430q-42 32 -70.5 90t-28.5 139q0 85 33.5 165t92 141.5t146 99t189.5 37.5h422l-233 -1102h-312l82 383h-59l-238 -383h-315zM422 711q0 -107 110 -107h41l56 268h-43q-70 0 -117 -43t-47 -118z" />
<glyph unicode="&#x451;" horiz-adv-x="962" d="M29 242q0 33 10 88l96 448q20 94 69.5 165.5t116 111t138 59t145.5 19.5q65 0 122 -15t104.5 -46t75.5 -84.5t28 -123.5q0 -35 -10 -90l-56 -262h-495l-37 -170q-8 -50 -8 -63q0 -80 78 -80q102 0 131 143l14 66h295l-17 -80q-17 -76 -53 -138t-83 -102.5t-104.5 -68 t-114.5 -39t-116 -11.5q-51 0 -98 9.5t-89.5 30.5t-73.5 52t-49.5 77.5t-18.5 103.5zM268 1223l45 211h262l-45 -211h-262zM416 713h200q19 90 19 121q0 41 -18.5 59t-59.5 18q-56 0 -88.5 -43t-52.5 -155zM692 1223l45 211h262l-45 -211h-262z" />
<glyph unicode="&#x452;" horiz-adv-x="995" d="M-14 0l260 1225h-111l33 153h111l20 92h311l-20 -92h258l-33 -153h-258l-41 -197q105 105 254 105q91 0 147 -46.5t56 -136.5q0 -34 -8 -67l-199 -932q-18 -85 -48 -147t-62.5 -95.5t-75 -53.5t-75 -25t-71.5 -5h-153l49 232q62 0 89.5 27.5t45.5 115.5l166 776 q4 24 4 39q0 64 -66 64q-86 0 -106 -103l-166 -776h-311z" />
<glyph unicode="&#x453;" horiz-adv-x="825" d="M-14 0l233 1102h690l-51 -248h-379l-182 -854h-311zM430 1208l260 295h293l-315 -295h-238z" />
<glyph unicode="&#x454;" horiz-adv-x="978" d="M33 248q0 59 14 119l74 348q90 418 491 418q322 0 322 -275q0 -55 -16 -133h-300q15 71 15 88q0 76 -70 76q-43 0 -74 -26t-40 -70l-29 -134h133l-43 -200h-133l-27 -131q-6 -24 -6 -43q0 -37 18.5 -57.5t53.5 -20.5q94 0 121 129l14 67h311q-49 -226 -174 -330 t-321 -104q-160 0 -247 70.5t-87 208.5z" />
<glyph unicode="&#x455;" horiz-adv-x="952" d="M25 231q0 51 12 113h295q-10 -41 -10 -84q0 -82 73 -82q131 0 131 129q0 33 -21 56.5t-77 52.5l-160 82q-129 67 -129 231q0 86 29 156t75.5 115t108.5 76t125 44t127 13q130 0 214.5 -77t84.5 -196q0 -44 -12 -86h-275q13 44 13 64q0 31 -20 52t-54 21 q-46 0 -79.5 -27.5t-33.5 -80.5q0 -35 22.5 -57.5t82.5 -55.5l155 -80q129 -66 129 -217q0 -205 -129 -314.5t-352 -109.5q-325 0 -325 262z" />
<glyph unicode="&#x456;" horiz-adv-x="516" d="M-14 0l233 1102h311l-233 -1102h-311zM246 1223l57 264h311l-57 -264h-311z" />
<glyph unicode="&#x457;" horiz-adv-x="598" d="M-8 0l233 1102h312l-234 -1102h-311zM49 1223l45 211h262l-45 -211h-262zM504 1223l45 211h262l-45 -211h-262z" />
<glyph unicode="&#x458;" horiz-adv-x="536" d="M-180 -375l51 232q64 0 88 21t43 108l238 1116h311l-246 -1151q-18 -85 -48 -147t-62.5 -95.5t-75 -53.5t-75 -25t-71.5 -5h-153zM264 1223l58 264h311l-58 -264h-311z" />
<glyph unicode="&#x459;" horiz-adv-x="1533" d="M-92 0l47 221q27 -6 49 -6q70 0 105.5 82t91.5 350l96 455h790l-81 -383h133q142 0 214 -66.5t72 -187.5q0 -53 -10.5 -109t-41 -121.5t-77 -116t-127 -84.5t-182.5 -34h-444l182 854h-176l-72 -338q-44 -209 -104.5 -328.5t-134 -165t-179.5 -45.5q-67 0 -151 23z M903 229h49q76 0 121 43t45 125q0 92 -104 92h-56z" />
<glyph unicode="&#x45a;" horiz-adv-x="1458" d="M-14 0l233 1102h311l-81 -383h167l82 383h312l-82 -383h133q142 0 214.5 -66.5t72.5 -187.5q0 -53 -10.5 -109t-41.5 -121.5t-77.5 -116t-127 -84.5t-182.5 -34h-444l104 489h-168l-104 -489h-311zM825 229h49q76 0 121 43t45 125q0 92 -104 92h-55z" />
<glyph unicode="&#x45b;" horiz-adv-x="995" d="M-14 0l260 1225h-111l33 153h111l18 92h311l-18 -92h258l-33 -153h-258l-43 -197q105 105 254 105q91 0 147 -46.5t56 -136.5q0 -34 -8 -67l-187 -883h-311l166 776q4 16 4 39q0 64 -64 64q-43 0 -71 -27.5t-37 -75.5l-166 -776h-311z" />
<glyph unicode="&#x45c;" horiz-adv-x="989" d="M-14 0l233 1102h311l-73 -352l264 352h350l-387 -434l166 -668h-322l-96 432l-59 -76l-76 -356h-311zM506 1208l260 295h293l-316 -295h-237z" />
<glyph unicode="&#x45e;" horiz-adv-x="911" d="M-47 -352l49 225q16 -4 61 -4q60 0 78.5 43t18.5 168v1022h309q-8 -208 -34 -482t-52 -407h4q111 366 119 389l182 500h301l-497 -1182q-64 -152 -162 -217t-244 -65q-88 0 -133 10zM346 1380q0 28 6 62h135q0 -34 12.5 -55.5t37 -31.5t49 -13t61.5 -3q49 0 80 6t63 29.5 t54 67.5h131q-28 -126 -133 -194t-236 -68q-260 0 -260 200z" />
<glyph unicode="&#x45f;" horiz-adv-x="995" d="M-14 0l233 1102h311l-180 -854h168l180 854h312l-234 -1102h-268l-49 -233h-254l49 233h-268z" />
<glyph unicode="&#x490;" horiz-adv-x="976" d="M-14 0l311 1470h553l45 209h270l-104 -487h-467l-254 -1192h-354z" />
<glyph unicode="&#x491;" horiz-adv-x="825" d="M-14 0l233 1102h465l49 229h225l-100 -477h-379l-182 -854h-311z" />
<glyph unicode="&#x2000;" horiz-adv-x="949" />
<glyph unicode="&#x2001;" horiz-adv-x="1898" />
<glyph unicode="&#x2002;" horiz-adv-x="949" />
<glyph unicode="&#x2003;" horiz-adv-x="1898" />
<glyph unicode="&#x2004;" horiz-adv-x="632" />
<glyph unicode="&#x2005;" horiz-adv-x="474" />
<glyph unicode="&#x2006;" horiz-adv-x="316" />
<glyph unicode="&#x2007;" horiz-adv-x="316" />
<glyph unicode="&#x2008;" horiz-adv-x="237" />
<glyph unicode="&#x2009;" horiz-adv-x="379" />
<glyph unicode="&#x200a;" horiz-adv-x="105" />
<glyph unicode="&#x2010;" horiz-adv-x="655" d="M51 379l49 227h533l-49 -227h-533z" />
<glyph unicode="&#x2011;" horiz-adv-x="655" d="M51 379l49 227h533l-49 -227h-533z" />
<glyph unicode="&#x2012;" horiz-adv-x="655" d="M51 379l49 227h533l-49 -227h-533z" />
<glyph unicode="&#x2013;" horiz-adv-x="1032" d="M-12 379l49 227h1007l-49 -227h-1007z" />
<glyph unicode="&#x2014;" horiz-adv-x="1966" d="M-25 379l50 227h1949l-49 -227h-1950z" />
<glyph unicode="&#x2018;" horiz-adv-x="471" d="M45 883l72 340q27 127 125.5 195.5t240.5 68.5l-22 -109q-170 0 -211 -186h172l-66 -309h-311z" />
<glyph unicode="&#x2019;" horiz-adv-x="489" d="M45 866l23 109q81 0 137.5 51t73.5 135h-173l66 309h311l-71 -340q-25 -120 -122 -192t-245 -72z" />
<glyph unicode="&#x201a;" horiz-adv-x="667" d="M90 -279l23 107q82 0 144 46t79 126h-186l71 342h322l-72 -342q-27 -122 -130.5 -200.5t-250.5 -78.5z" />
<glyph unicode="&#x201c;" horiz-adv-x="940" d="M45 883l72 340q27 127 125.5 195.5t240.5 68.5l-22 -109q-170 0 -211 -186h172l-66 -309h-311zM508 883l72 340q27 127 125.5 195.5t240.5 68.5l-22 -109q-170 0 -211 -186h172l-66 -309h-311z" />
<glyph unicode="&#x201d;" horiz-adv-x="948" d="M23 866l22 109q81 0 137.5 51t73.5 135h-172l66 309h311l-72 -340q-25 -120 -121.5 -192t-244.5 -72zM487 866l23 109q81 0 137.5 51t73.5 135h-172l65 309h312l-72 -340q-25 -120 -122 -192t-245 -72z" />
<glyph unicode="&#x201e;" horiz-adv-x="948" d="M6 -279l23 107q82 0 144 46t79 126h-186l71 342h322l-72 -342q-27 -122 -130.5 -200.5t-250.5 -78.5zM471 -279l23 107q82 0 144 46t79 126h-187l72 342h322l-72 -342q-27 -122 -130.5 -200.5t-250.5 -78.5z" />
<glyph unicode="&#x2022;" horiz-adv-x="856" d="M39 680q0 112 64 215t172 167t227 64q132 0 215.5 -86t83.5 -211q0 -107 -63.5 -211t-171 -170.5t-224.5 -66.5q-134 0 -218.5 87.5t-84.5 211.5z" />
<glyph unicode="&#x2026;" horiz-adv-x="1902" d="M102 0l74 342h322l-74 -342h-322zM764 0l74 342h321l-74 -342h-321zM1425 0l74 342h322l-74 -342h-322z" />
<glyph unicode="&#x202f;" horiz-adv-x="379" />
<glyph unicode="&#x2039;" horiz-adv-x="516" d="M35 481l59 279l418 231l-55 -262l-224 -106l175 -127l-56 -263z" />
<glyph unicode="&#x203a;" horiz-adv-x="516" d="M-16 233l55 263l227 127l-178 106l55 262l320 -231l-60 -279z" />
<glyph unicode="&#x205f;" horiz-adv-x="474" />
<glyph unicode="&#x20ac;" horiz-adv-x="1026" d="M16 469l99 188h73q1 9 5 31l6 33q7 32 14 55h-131l98 189h88q180 505 596 505q94 0 163.5 -20.5t96.5 -46.5l-57 -273q-54 80 -205 80q-107 0 -179 -60t-116 -185h408l-101 -189h-364q0 -1 -6 -22t-8 -33q-9 -44 -11 -64h328l-100 -188h-248q-18 -240 188 -240 q145 0 238 74l-57 -270q-35 -25 -111 -43.5t-178 -18.5q-208 0 -303.5 122t-75.5 376h-150z" />
<glyph unicode="&#x2122;" horiz-adv-x="1966" d="M137 1245l35 168h672l-35 -168h-225l-138 -643h-221l137 643h-225zM825 602l172 811h299l82 -491l287 491h299l-172 -811h-207l117 553h-4l-309 -553h-160l-76 553h-4l-117 -553h-207z" />
<glyph unicode="&#x25fc;" horiz-adv-x="1105" d="M0 0v1106h1106v-1106h-1106z" />
</font>
</defs>
</svg>
