<?xml version="1.0" encoding="utf-8"?>
<!-- Generator: Adobe Illustrator 21.0.2, SVG Export Plug-In . SVG Version: 6.00 Build 0)  -->
<svg version="1.1" id="Layer_1" xmlns="http://www.w3.org/2000/svg" xmlns:xlink="http://www.w3.org/1999/xlink" x="0px" y="0px"
	 width="126.587px" height="169.973px" viewBox="0 0 126.587 169.973" enable-background="new 0 0 126.587 169.973"
	 xml:space="preserve">
<g>
	
		<linearGradient id="SVGID_1_" gradientUnits="userSpaceOnUse" x1="-2175.4014" y1="-397.0234" x2="-2049.0195" y2="-397.0234" gradientTransform="matrix(1 0 0 1 2175.4014 540.6953)">
		<stop  offset="0.1758" style="stop-color:#F0EFEF"/>
		<stop  offset="0.5853" style="stop-color:#DADADA"/>
		<stop  offset="0.76" style="stop-color:#D0D1D0"/>
	</linearGradient>
	<polygon fill="url(#SVGID_1_)" points="45.902,143.657 37.115,134.955 0,134.955 0,152.389 126.382,152.389 126.382,143.657 	"/>
	
		<linearGradient id="SVGID_2_" gradientUnits="userSpaceOnUse" x1="-2175.2295" y1="-524.6545" x2="-2098.5381" y2="-524.6545" gradientTransform="matrix(1 0 0 1 2175.4014 540.6953)">
		<stop  offset="0.1758" style="stop-color:#F0EFEF"/>
		<stop  offset="0.5853" style="stop-color:#DADADA"/>
		<stop  offset="0.76" style="stop-color:#D0D1D0"/>
	</linearGradient>
	<path fill="url(#SVGID_2_)" d="M0.172,0h40.149L55.47,9.958c0,0,3.446,2.158,4.955,4.308c1.506,2.157,2.295,2.157,3.517,3.091
		c1.218,0.93,5.023,2.587,5.387,2.728c0.358,0.141,6.889,3.229,7.535,9.547c0,0-0.429,0.649-2.444,0.792
		c-2.006,0.144-11.7,1.29-11.7,1.29l-10.263,0.367c0,0-3.809-1.156-6.463-1.73c-2.66-0.574-11.271-2.153-11.271-2.153
		s-7.51-3.372-9.766-4.812c-2.156-1.374-8.689-4.99-8.689-4.99L4.596,10.704c0,0-4.424-2.501-4.424-7.202V0z"/>
	
		<linearGradient id="SVGID_3_" gradientUnits="userSpaceOnUse" x1="-2129.4077" y1="-526.5201" x2="-2077.0342" y2="-526.5201" gradientTransform="matrix(1 0 0 1 2175.4014 540.6953)">
		<stop  offset="0.1758" style="stop-color:#F0EFEF"/>
		<stop  offset="0.5853" style="stop-color:#DADADA"/>
		<stop  offset="0.76" style="stop-color:#D0D1D0"/>
	</linearGradient>
	<path fill="url(#SVGID_3_)" d="M92.172,19.904L77.149,0.252L76.863,0h-30.87c0,0,0.342,3.193,4.81,5.834
		c4.468,2.636,13.586,7.071,13.586,7.071s14.937,8.671,16.38,9.693c1.44,1.024,6.666,3.661,6.666,3.661s5.758,3.287,10.931,1.617
		L92.172,19.904z"/>
	
		<linearGradient id="SVGID_4_" gradientUnits="userSpaceOnUse" x1="-2093.3933" y1="-508.185" x2="-2072.5137" y2="-508.185" gradientTransform="matrix(1 0 0 1 2175.4014 540.6953)">
		<stop  offset="0.1758" style="stop-color:#F0EFEF"/>
		<stop  offset="0.5853" style="stop-color:#DADADA"/>
		<stop  offset="0.76" style="stop-color:#D0D1D0"/>
	</linearGradient>
	<path fill="url(#SVGID_4_)" d="M82.303,25.58l8.904,5.42l5.328,3.176l4.58,2.691c0,0,1.772,1.185,1.772,2.369v0.226l-6.353-1.841
		c0,0-8.613-3.028-9.314-3.23c-0.644-0.186-1.913-0.807-1.913-0.807s-0.831-1.348-1.159-2.641c-0.319-1.294-1.88-4.413-1.88-4.413
		s-0.469-0.863-0.146-0.972"/>
	
		<linearGradient id="SVGID_5_" gradientUnits="userSpaceOnUse" x1="-2175.2295" y1="-516.5359" x2="-2145.093" y2="-516.5359" gradientTransform="matrix(1 0 0 1 2175.4014 540.6953)">
		<stop  offset="0.1758" style="stop-color:#F0EFEF"/>
		<stop  offset="0.5853" style="stop-color:#DADADA"/>
		<stop  offset="0.76" style="stop-color:#D0D1D0"/>
	</linearGradient>
	<path fill="url(#SVGID_5_)" d="M28.368,34.175l-5.223-4.579l-6.732-6.623c0,0-3.661-3.822-4.631-4.793
		c-0.969-0.968-3.069-2.691-3.069-2.691l-8.54-4.251v14.753l11.071,4.36l19.062,6.729C30.414,35.465,28.368,34.175,28.368,34.175z"
		/>
	
		<linearGradient id="SVGID_6_" gradientUnits="userSpaceOnUse" x1="-2154.5129" y1="-497.7426" x2="-2138.781" y2="-497.7426" gradientTransform="matrix(1 0 0 1 2175.4014 540.6953)">
		<stop  offset="0.1758" style="stop-color:#F0EFEF"/>
		<stop  offset="0.5853" style="stop-color:#DADADA"/>
		<stop  offset="0.76" style="stop-color:#D0D1D0"/>
	</linearGradient>
	<path fill="url(#SVGID_6_)" d="M21.188,34.662l4.416,2.26l3.949,1.795c0,0,1.218,0.106,2.226,1.866
		c1.004,1.762,2.764,3.95,2.764,3.95s1.687,2.69,1.973,3.84c0.286,1.15-0.103,2.873-0.103,2.873l-3.926-3.828l-6.489-6.726
		l-4.442-4.712C21.555,35.979,20.343,34.625,21.188,34.662z"/>
	<defs>
		<filter id="Adobe_OpacityMaskFilter" filterUnits="userSpaceOnUse" x="68.771" y="84.589" width="26.198" height="14.09">
			<feFlood  style="flood-color:white;flood-opacity:1" result="back"/>
			<feBlend  in="SourceGraphic" in2="back" mode="normal"/>
		</filter>
	</defs>
	<mask maskUnits="userSpaceOnUse" x="68.771" y="84.589" width="26.198" height="14.09" id="SVGID_7_">
		<g filter="url(#Adobe_OpacityMaskFilter)">
			<defs>
				<filter id="Adobe_OpacityMaskFilter_1_" filterUnits="userSpaceOnUse" x="68.771" y="84.589" width="26.198" height="14.09">
					<feFlood  style="flood-color:white;flood-opacity:1" result="back"/>
					<feBlend  in="SourceGraphic" in2="back" mode="normal"/>
				</filter>
			</defs>
			<mask maskUnits="userSpaceOnUse" x="68.771" y="84.589" width="26.198" height="14.09" id="SVGID_7_">
			</mask>
			
				<linearGradient id="SVGID_8_" gradientUnits="userSpaceOnUse" x1="-2106.6306" y1="-449.061" x2="-2080.4326" y2="-449.061" gradientTransform="matrix(1 0 0 1 2175.4014 540.6953)">
				<stop  offset="0.2" style="stop-color:#CCCCCC"/>
				<stop  offset="0.5642" style="stop-color:#B5B5B5"/>
				<stop  offset="1" style="stop-color:#949494"/>
				<stop  offset="1" style="stop-color:#363636"/>
			</linearGradient>
			<path mask="url(#SVGID_7_)" fill="url(#SVGID_8_)" d="M94.969,98.679l-3.526-3.23c0,0-5.351-2.322-10.7-5.225
				c-3.555-1.918-6.7-3.06-8.725-4.016c-1.205-0.568-3.449-1.862-3.233-1.579C69.833,85.981,71.874,88,71.874,88l7.595,7.615
				c0,0,3.221,0.755,4.36,1.179c0.8,0.305,4.647,0.813,5.241,1.114L94.969,98.679z"/>
		</g>
	</mask>
	
		<linearGradient id="SVGID_9_" gradientUnits="userSpaceOnUse" x1="-2106.6306" y1="-449.061" x2="-2080.4326" y2="-449.061" gradientTransform="matrix(1 0 0 1 2175.4014 540.6953)">
		<stop  offset="0.2" style="stop-color:#FFFFFF"/>
		<stop  offset="1" style="stop-color:#FFFFFF"/>
		<stop  offset="1" style="stop-color:#F5F6F7"/>
	</linearGradient>
	<path opacity="0.46" fill="url(#SVGID_9_)" d="M94.969,98.679l-3.526-3.23c0,0-5.351-2.322-10.7-5.225
		c-3.555-1.918-6.7-3.06-8.725-4.016c-1.205-0.568-3.449-1.862-3.233-1.579C69.833,85.981,71.874,88,71.874,88l7.595,7.615
		c0,0,3.221,0.755,4.36,1.179c0.8,0.305,4.647,0.813,5.241,1.114L94.969,98.679z"/>
	
		<linearGradient id="SVGID_10_" gradientUnits="userSpaceOnUse" x1="-2175.2502" y1="-469.6127" x2="-2158.9194" y2="-469.6127" gradientTransform="matrix(1 0 0 1 2175.4014 540.6953)">
		<stop  offset="0.1758" style="stop-color:#F0EFEF"/>
		<stop  offset="0.5853" style="stop-color:#DADADA"/>
		<stop  offset="0.76" style="stop-color:#D0D1D0"/>
	</linearGradient>
	<path fill="url(#SVGID_10_)" d="M0.172,63.086l13.28,12.711c0,0,3.301,2.606,3.012,3.128c-0.356,0.65-9.377-0.973-10.076-1.024
		c-0.657-0.048-5.603-5.424-6.219-5.926C0.127,71.944,0.172,63.086,0.172,63.086z"/>
	<defs>
		<filter id="Adobe_OpacityMaskFilter_2_" filterUnits="userSpaceOnUse" x="77.896" y="0" width="36.639" height="33.749">
			<feFlood  style="flood-color:white;flood-opacity:1" result="back"/>
			<feBlend  in="SourceGraphic" in2="back" mode="normal"/>
		</filter>
	</defs>
	<mask maskUnits="userSpaceOnUse" x="77.896" y="0" width="36.639" height="33.749" id="SVGID_11_">
		<g filter="url(#Adobe_OpacityMaskFilter_2_)">
			<defs>
				<filter id="Adobe_OpacityMaskFilter_3_" filterUnits="userSpaceOnUse" x="77.896" y="0" width="36.639" height="33.749">
					<feFlood  style="flood-color:white;flood-opacity:1" result="back"/>
					<feBlend  in="SourceGraphic" in2="back" mode="normal"/>
				</filter>
			</defs>
			<mask maskUnits="userSpaceOnUse" x="77.896" y="0" width="36.639" height="33.749" id="SVGID_11_">
			</mask>
			
				<linearGradient id="SVGID_12_" gradientUnits="userSpaceOnUse" x1="-2097.5059" y1="-523.8208" x2="-2060.8667" y2="-523.8208" gradientTransform="matrix(1 0 0 1 2175.4014 540.6953)">
				<stop  offset="0.2" style="stop-color:#CCCCCC"/>
				<stop  offset="0.5642" style="stop-color:#B5B5B5"/>
				<stop  offset="1" style="stop-color:#949494"/>
				<stop  offset="1" style="stop-color:#363636"/>
			</linearGradient>
			<path mask="url(#SVGID_11_)" fill="url(#SVGID_12_)" d="M80.77,0h-2.875l0.294,0.346l6.569,7.822c0,0,10.77,14.144,11.632,15.222
				c0.861,1.073,3.232,4.503,3.232,4.503l4.741,2.026c0,0,3.208,1.395,5.67,2.162c2.636,0.826,4.502,1.667,4.502,1.667L80.77,0z"/>
		</g>
	</mask>
	
		<linearGradient id="SVGID_13_" gradientUnits="userSpaceOnUse" x1="-2097.5059" y1="-523.8208" x2="-2060.8667" y2="-523.8208" gradientTransform="matrix(1 0 0 1 2175.4014 540.6953)">
		<stop  offset="0.2" style="stop-color:#FFFFFF"/>
		<stop  offset="1" style="stop-color:#FFFFFF"/>
		<stop  offset="1" style="stop-color:#F5F6F7"/>
	</linearGradient>
	<path opacity="0.46" fill="url(#SVGID_13_)" d="M80.77,0h-2.875l0.294,0.346l6.569,7.822c0,0,10.77,14.144,11.632,15.222
		c0.861,1.073,3.232,4.503,3.232,4.503l4.741,2.026c0,0,3.208,1.395,5.67,2.162c2.636,0.826,4.502,1.667,4.502,1.667L80.77,0z"/>
	<defs>
		<filter id="Adobe_OpacityMaskFilter_4_" filterUnits="userSpaceOnUse" x="85.497" y="26.824" width="40.991" height="18.872">
			<feFlood  style="flood-color:white;flood-opacity:1" result="back"/>
			<feBlend  in="SourceGraphic" in2="back" mode="normal"/>
		</filter>
	</defs>
	<mask maskUnits="userSpaceOnUse" x="85.497" y="26.824" width="40.991" height="18.872" id="SVGID_14_">
		<g filter="url(#Adobe_OpacityMaskFilter_4_)">
			<defs>
				<filter id="Adobe_OpacityMaskFilter_5_" filterUnits="userSpaceOnUse" x="85.497" y="26.824" width="40.991" height="18.872">
					<feFlood  style="flood-color:white;flood-opacity:1" result="back"/>
					<feBlend  in="SourceGraphic" in2="back" mode="normal"/>
				</filter>
			</defs>
			<mask maskUnits="userSpaceOnUse" x="85.497" y="26.824" width="40.991" height="18.872" id="SVGID_14_">
			</mask>
			
				<linearGradient id="SVGID_15_" gradientUnits="userSpaceOnUse" x1="-2089.9048" y1="-504.435" x2="-2048.9136" y2="-504.435" gradientTransform="matrix(1 0 0 1 2175.4014 540.6953)">
				<stop  offset="0.2" style="stop-color:#CCCCCC"/>
				<stop  offset="0.5642" style="stop-color:#B5B5B5"/>
				<stop  offset="1" style="stop-color:#949494"/>
				<stop  offset="1" style="stop-color:#363636"/>
			</linearGradient>
			<path mask="url(#SVGID_14_)" fill="url(#SVGID_15_)" d="M117.048,36.259l-4.701-1.922c0,0-5.472-2.261-6.764-2.91
				c-1.292-0.646-6.677-2.725-6.677-2.725c-2.69,1.435-13.409-1.877-13.409-1.877l17.635,10.957l12.087,7.915h11.269L117.048,36.259
				z"/>
		</g>
	</mask>
	
		<linearGradient id="SVGID_16_" gradientUnits="userSpaceOnUse" x1="-2089.9048" y1="-504.435" x2="-2048.9136" y2="-504.435" gradientTransform="matrix(1 0 0 1 2175.4014 540.6953)">
		<stop  offset="0.2" style="stop-color:#FFFFFF"/>
		<stop  offset="1" style="stop-color:#FFFFFF"/>
		<stop  offset="1" style="stop-color:#F5F6F7"/>
	</linearGradient>
	<path opacity="0.46" fill="url(#SVGID_16_)" d="M117.048,36.259l-4.701-1.922c0,0-5.472-2.261-6.764-2.91
		c-1.292-0.646-6.677-2.725-6.677-2.725c-2.69,1.435-13.409-1.877-13.409-1.877l17.635,10.957l12.087,7.915h11.269L117.048,36.259z"
		/>
	<defs>
		<filter id="Adobe_OpacityMaskFilter_6_" filterUnits="userSpaceOnUse" x="89.786" y="35.89" width="23.342" height="9.807">
			<feFlood  style="flood-color:white;flood-opacity:1" result="back"/>
			<feBlend  in="SourceGraphic" in2="back" mode="normal"/>
		</filter>
	</defs>
	<mask maskUnits="userSpaceOnUse" x="89.786" y="35.89" width="23.342" height="9.807" id="SVGID_17_">
		<g filter="url(#Adobe_OpacityMaskFilter_6_)">
			<defs>
				<filter id="Adobe_OpacityMaskFilter_7_" filterUnits="userSpaceOnUse" x="89.786" y="35.89" width="23.342" height="9.807">
					<feFlood  style="flood-color:white;flood-opacity:1" result="back"/>
					<feBlend  in="SourceGraphic" in2="back" mode="normal"/>
				</filter>
			</defs>
			<mask maskUnits="userSpaceOnUse" x="89.786" y="35.89" width="23.342" height="9.807" id="SVGID_17_">
			</mask>
			
				<linearGradient id="SVGID_18_" gradientUnits="userSpaceOnUse" x1="-2085.6155" y1="-499.9023" x2="-2062.2729" y2="-499.9023" gradientTransform="matrix(1 0 0 1 2175.4014 540.6953)">
				<stop  offset="0.2" style="stop-color:#CCCCCC"/>
				<stop  offset="0.5642" style="stop-color:#B5B5B5"/>
				<stop  offset="1" style="stop-color:#949494"/>
				<stop  offset="1" style="stop-color:#363636"/>
			</linearGradient>
			<path mask="url(#SVGID_17_)" fill="url(#SVGID_18_)" d="M89.821,35.89c0,0,9.68,3.068,11.182,3.572
				c1.511,0.509,3.26,0.421,3.26,0.421l8.068,5.041l0.797,0.772h-12.394c0,0-8.355-7.436-8.966-7.835
				C91.769,37.861,89.479,35.933,89.821,35.89z"/>
		</g>
	</mask>
	
		<linearGradient id="SVGID_19_" gradientUnits="userSpaceOnUse" x1="-2085.6155" y1="-499.9023" x2="-2062.2729" y2="-499.9023" gradientTransform="matrix(1 0 0 1 2175.4014 540.6953)">
		<stop  offset="0.2" style="stop-color:#FFFFFF"/>
		<stop  offset="1" style="stop-color:#FFFFFF"/>
		<stop  offset="1" style="stop-color:#F5F6F7"/>
	</linearGradient>
	<path opacity="0.46" fill="url(#SVGID_19_)" d="M89.821,35.89c0,0,9.68,3.068,11.182,3.572c1.511,0.509,3.26,0.421,3.26,0.421
		l8.068,5.041l0.797,0.772h-12.394c0,0-8.355-7.436-8.966-7.835C91.769,37.861,89.479,35.933,89.821,35.89z"/>
	<defs>
		<filter id="Adobe_OpacityMaskFilter_8_" filterUnits="userSpaceOnUse" x="53.809" y="30.818" width="44.387" height="14.878">
			<feFlood  style="flood-color:white;flood-opacity:1" result="back"/>
			<feBlend  in="SourceGraphic" in2="back" mode="normal"/>
		</filter>
	</defs>
	<mask maskUnits="userSpaceOnUse" x="53.809" y="30.818" width="44.387" height="14.878" id="SVGID_20_">
		<g filter="url(#Adobe_OpacityMaskFilter_8_)">
			<defs>
				<filter id="Adobe_OpacityMaskFilter_9_" filterUnits="userSpaceOnUse" x="53.809" y="30.818" width="44.387" height="14.878">
					<feFlood  style="flood-color:white;flood-opacity:1" result="back"/>
					<feBlend  in="SourceGraphic" in2="back" mode="normal"/>
				</filter>
			</defs>
			<mask maskUnits="userSpaceOnUse" x="53.809" y="30.818" width="44.387" height="14.878" id="SVGID_20_">
			</mask>
			
				<linearGradient id="SVGID_21_" gradientUnits="userSpaceOnUse" x1="-2121.5928" y1="-502.4382" x2="-2077.2058" y2="-502.4382" gradientTransform="matrix(1 0 0 1 2175.4014 540.6953)">
				<stop  offset="0.2" style="stop-color:#CCCCCC"/>
				<stop  offset="0.5642" style="stop-color:#B5B5B5"/>
				<stop  offset="1" style="stop-color:#949494"/>
				<stop  offset="1" style="stop-color:#363636"/>
			</linearGradient>
			<path mask="url(#SVGID_20_)" fill="url(#SVGID_21_)" d="M98.192,45.696c0,0,0.14-1.415-1.408-2.888
				c-1.541-1.474-6.684-5.511-6.684-5.511l-2.907-2.419l-5.446-2.185l-4.418-1.875c0,0-4.099,0.26-6.428,0.789
				c-2.373,0.541-8.935,1.086-8.935,1.086l-8.158-0.025c0,0,0.558,1.038,1.695,1.994c1.702,1.417,4.522,4.559,4.522,4.559
				l4.059,4.663l1.104,1.814H98.192z"/>
		</g>
	</mask>
	
		<linearGradient id="SVGID_22_" gradientUnits="userSpaceOnUse" x1="-2121.5928" y1="-502.4382" x2="-2077.2058" y2="-502.4382" gradientTransform="matrix(1 0 0 1 2175.4014 540.6953)">
		<stop  offset="0.2" style="stop-color:#FFFFFF"/>
		<stop  offset="1" style="stop-color:#FFFFFF"/>
		<stop  offset="1" style="stop-color:#F5F6F7"/>
	</linearGradient>
	<path opacity="0.46" fill="url(#SVGID_22_)" d="M98.192,45.696c0,0,0.14-1.415-1.408-2.888c-1.541-1.474-6.684-5.511-6.684-5.511
		l-2.907-2.419l-5.446-2.185l-4.418-1.875c0,0-4.099,0.26-6.428,0.789c-2.373,0.541-8.935,1.086-8.935,1.086l-8.158-0.025
		c0,0,0.558,1.038,1.695,1.994c1.702,1.417,4.522,4.559,4.522,4.559l4.059,4.663l1.104,1.814H98.192z"/>
	<defs>
		<filter id="Adobe_OpacityMaskFilter_10_" filterUnits="userSpaceOnUse" x="56.635" y="9.433" width="28.027" height="23.748">
			<feFlood  style="flood-color:white;flood-opacity:1" result="back"/>
			<feBlend  in="SourceGraphic" in2="back" mode="normal"/>
		</filter>
	</defs>
	<mask maskUnits="userSpaceOnUse" x="56.635" y="9.433" width="28.027" height="23.748" id="SVGID_23_">
		<g filter="url(#Adobe_OpacityMaskFilter_10_)">
			<defs>
				<filter id="Adobe_OpacityMaskFilter_11_" filterUnits="userSpaceOnUse" x="56.635" y="9.433" width="28.027" height="23.748">
					<feFlood  style="flood-color:white;flood-opacity:1" result="back"/>
					<feBlend  in="SourceGraphic" in2="back" mode="normal"/>
				</filter>
			</defs>
			<mask maskUnits="userSpaceOnUse" x="56.635" y="9.433" width="28.027" height="23.748" id="SVGID_23_">
			</mask>
			
				<linearGradient id="SVGID_24_" gradientUnits="userSpaceOnUse" x1="-2118.7661" y1="-519.3889" x2="-2090.7393" y2="-519.3889" gradientTransform="matrix(1 0 0 1 2175.4014 540.6953)">
				<stop  offset="0.2" style="stop-color:#CCCCCC"/>
				<stop  offset="0.5642" style="stop-color:#B5B5B5"/>
				<stop  offset="1" style="stop-color:#949494"/>
				<stop  offset="1" style="stop-color:#363636"/>
			</linearGradient>
			<path mask="url(#SVGID_23_)" fill="url(#SVGID_24_)" d="M83.265,29.57c-0.519-1.462-3.796-6.621-3.796-6.621l-3.961-2.396
				l-6.864-4.148L56.635,9.433c0.023,0.393,4.55,4.98,4.9,5.438c0.347,0.46,4.011,3.018,4.011,3.018s5.387,2.447,5.978,2.769
				c0.591,0.325,3.923,3.504,4.226,4.04c0.296,0.538,1.508,3.418,1.645,4.336c0.128,0.915,1.552,1.347,1.552,1.347l5.714,2.8
				C84.662,33.18,83.787,31.065,83.265,29.57z"/>
		</g>
	</mask>
	
		<linearGradient id="SVGID_25_" gradientUnits="userSpaceOnUse" x1="-2118.7661" y1="-519.3889" x2="-2090.7393" y2="-519.3889" gradientTransform="matrix(1 0 0 1 2175.4014 540.6953)">
		<stop  offset="0.2" style="stop-color:#FFFFFF"/>
		<stop  offset="1" style="stop-color:#FFFFFF"/>
		<stop  offset="1" style="stop-color:#F5F6F7"/>
	</linearGradient>
	<path opacity="0.46" fill="url(#SVGID_25_)" d="M83.265,29.57c-0.519-1.462-3.796-6.621-3.796-6.621l-3.961-2.396l-6.864-4.148
		L56.635,9.433c0.023,0.393,4.55,4.98,4.9,5.438c0.347,0.46,4.011,3.018,4.011,3.018s5.387,2.447,5.978,2.769
		c0.591,0.325,3.923,3.504,4.226,4.04c0.296,0.538,1.508,3.418,1.645,4.336c0.128,0.915,1.552,1.347,1.552,1.347l5.714,2.8
		C84.662,33.18,83.787,31.065,83.265,29.57z"/>
	<defs>
		<filter id="Adobe_OpacityMaskFilter_12_" filterUnits="userSpaceOnUse" x="11.916" y="16.703" width="50.91" height="29.002">
			<feFlood  style="flood-color:white;flood-opacity:1" result="back"/>
			<feBlend  in="SourceGraphic" in2="back" mode="normal"/>
		</filter>
	</defs>
	<mask maskUnits="userSpaceOnUse" x="11.916" y="16.703" width="50.91" height="29.002" id="SVGID_26_">
		<g filter="url(#Adobe_OpacityMaskFilter_12_)">
			<defs>
				<filter id="Adobe_OpacityMaskFilter_13_" filterUnits="userSpaceOnUse" x="11.916" y="16.703" width="50.91" height="29.002">
					<feFlood  style="flood-color:white;flood-opacity:1" result="back"/>
					<feBlend  in="SourceGraphic" in2="back" mode="normal"/>
				</filter>
			</defs>
			<mask maskUnits="userSpaceOnUse" x="11.916" y="16.703" width="50.91" height="29.002" id="SVGID_26_">
			</mask>
			
				<linearGradient id="SVGID_27_" gradientUnits="userSpaceOnUse" x1="-2163.4854" y1="-509.4909" x2="-2112.575" y2="-509.4909" gradientTransform="matrix(1 0 0 1 2175.4014 540.6953)">
				<stop  offset="0.2" style="stop-color:#CCCCCC"/>
				<stop  offset="0.5642" style="stop-color:#B5B5B5"/>
				<stop  offset="1" style="stop-color:#949494"/>
				<stop  offset="1" style="stop-color:#363636"/>
			</linearGradient>
			<path mask="url(#SVGID_26_)" fill="url(#SVGID_27_)" d="M62.039,43.274c-1.188-1.363-10.223-10.606-10.223-10.606
				s-6.684-1.599-7.621-1.85c-0.931-0.251-8.109-1.186-8.109-1.186S27.95,25.94,26.43,25.11c-1.356-0.74-10.061-5.654-10.528-6.011
				c-0.469-0.36-3.986-2.396-3.986-2.396s1.838,2.573,3.132,3.631c0.967,0.789,6.677,6.138,6.677,6.138s10.552,9.523,11.27,10.27
				c0.718,0.743,7.146,4.451,8.224,5.098l4.76,3.865l16.741-0.009C62.72,45.696,63.225,44.636,62.039,43.274z"/>
		</g>
	</mask>
	
		<linearGradient id="SVGID_28_" gradientUnits="userSpaceOnUse" x1="-2163.4854" y1="-509.4909" x2="-2112.575" y2="-509.4909" gradientTransform="matrix(1 0 0 1 2175.4014 540.6953)">
		<stop  offset="0.2" style="stop-color:#FFFFFF"/>
		<stop  offset="1" style="stop-color:#FFFFFF"/>
		<stop  offset="1" style="stop-color:#F5F6F7"/>
	</linearGradient>
	<path opacity="0.46" fill="url(#SVGID_28_)" d="M62.039,43.274c-1.188-1.363-10.223-10.606-10.223-10.606s-6.684-1.599-7.621-1.85
		c-0.931-0.251-8.109-1.186-8.109-1.186S27.95,25.94,26.43,25.11c-1.356-0.74-10.061-5.654-10.528-6.011
		c-0.469-0.36-3.986-2.396-3.986-2.396s1.838,2.573,3.132,3.631c0.967,0.789,6.677,6.138,6.677,6.138s10.552,9.523,11.27,10.27
		c0.718,0.743,7.146,4.451,8.224,5.098l4.76,3.865l16.741-0.009C62.72,45.696,63.225,44.636,62.039,43.274z"/>
	<defs>
		<filter id="Adobe_OpacityMaskFilter_14_" filterUnits="userSpaceOnUse" x="80.77" y="75.797" width="29.682" height="27.976">
			<feFlood  style="flood-color:white;flood-opacity:1" result="back"/>
			<feBlend  in="SourceGraphic" in2="back" mode="normal"/>
		</filter>
	</defs>
	<mask maskUnits="userSpaceOnUse" x="80.77" y="75.797" width="29.682" height="27.976" id="SVGID_29_">
		<g filter="url(#Adobe_OpacityMaskFilter_14_)">
			<defs>
				<filter id="Adobe_OpacityMaskFilter_15_" filterUnits="userSpaceOnUse" x="80.77" y="75.797" width="29.682" height="27.976">
					<feFlood  style="flood-color:white;flood-opacity:1" result="back"/>
					<feBlend  in="SourceGraphic" in2="back" mode="normal"/>
				</filter>
			</defs>
			<mask maskUnits="userSpaceOnUse" x="80.77" y="75.797" width="29.682" height="27.976" id="SVGID_29_">
			</mask>
			
				<linearGradient id="SVGID_30_" gradientUnits="userSpaceOnUse" x1="-2094.6313" y1="-450.9102" x2="-2064.9492" y2="-450.9102" gradientTransform="matrix(1 0 0 1 2175.4014 540.6953)">
				<stop  offset="0.2" style="stop-color:#CCCCCC"/>
				<stop  offset="0.5642" style="stop-color:#B5B5B5"/>
				<stop  offset="1" style="stop-color:#949494"/>
				<stop  offset="1" style="stop-color:#363636"/>
			</linearGradient>
			<path mask="url(#SVGID_29_)" fill="url(#SVGID_30_)" d="M110.452,103.773c-0.453-2.048-5.586-8.291-6.054-8.992
				c-0.61-0.919-2.48-3.258-3.396-4.015c-0.914-0.753-5.652-4.842-5.652-4.842L80.77,75.797v4.743c0,0,4.403,6.35,5.482,7.453
				c1.075,1.104,6.823,7.994,7.645,8.643c0.456,0.358,3.682,2.855,3.682,2.855l6.854,2.478L110.452,103.773z"/>
		</g>
	</mask>
	
		<linearGradient id="SVGID_31_" gradientUnits="userSpaceOnUse" x1="-2094.6313" y1="-450.9102" x2="-2064.9492" y2="-450.9102" gradientTransform="matrix(1 0 0 1 2175.4014 540.6953)">
		<stop  offset="0.2" style="stop-color:#FFFFFF"/>
		<stop  offset="1" style="stop-color:#FFFFFF"/>
		<stop  offset="1" style="stop-color:#F5F6F7"/>
	</linearGradient>
	<path opacity="0.46" fill="url(#SVGID_31_)" d="M110.452,103.773c-0.453-2.048-5.586-8.291-6.054-8.992
		c-0.61-0.919-2.48-3.258-3.396-4.015c-0.914-0.753-5.652-4.842-5.652-4.842L80.77,75.797v4.743c0,0,4.403,6.35,5.482,7.453
		c1.075,1.104,6.823,7.994,7.645,8.643c0.456,0.358,3.682,2.855,3.682,2.855l6.854,2.478L110.452,103.773z"/>
	<defs>
		<filter id="Adobe_OpacityMaskFilter_16_" filterUnits="userSpaceOnUse" x="105.939" y="95.044" width="20.508" height="15.175">
			<feFlood  style="flood-color:white;flood-opacity:1" result="back"/>
			<feBlend  in="SourceGraphic" in2="back" mode="normal"/>
		</filter>
	</defs>
	<mask maskUnits="userSpaceOnUse" x="105.939" y="95.044" width="20.508" height="15.175" id="SVGID_32_">
		<g filter="url(#Adobe_OpacityMaskFilter_16_)">
			<defs>
				<filter id="Adobe_OpacityMaskFilter_17_" filterUnits="userSpaceOnUse" x="105.939" y="95.044" width="20.508" height="15.175">
					<feFlood  style="flood-color:white;flood-opacity:1" result="back"/>
					<feBlend  in="SourceGraphic" in2="back" mode="normal"/>
				</filter>
			</defs>
			<mask maskUnits="userSpaceOnUse" x="105.939" y="95.044" width="20.508" height="15.175" id="SVGID_32_">
			</mask>
			
				<linearGradient id="SVGID_33_" gradientUnits="userSpaceOnUse" x1="-2069.4619" y1="-438.0633" x2="-2048.9536" y2="-438.0633" gradientTransform="matrix(1 0 0 1 2175.4014 540.6953)">
				<stop  offset="0.2" style="stop-color:#CCCCCC"/>
				<stop  offset="0.5642" style="stop-color:#B5B5B5"/>
				<stop  offset="1" style="stop-color:#949494"/>
				<stop  offset="1" style="stop-color:#363636"/>
			</linearGradient>
			<path mask="url(#SVGID_32_)" fill="url(#SVGID_33_)" d="M105.939,95.044c0,0,5.486,8.816,6.241,9.141
				c0.753,0.322,11.062,5.592,12.246,5.858c1.188,0.271,1.787,0.233,2.022-0.139v-1.188L105.939,95.044z"/>
		</g>
	</mask>
	
		<linearGradient id="SVGID_34_" gradientUnits="userSpaceOnUse" x1="-2069.4619" y1="-438.0633" x2="-2048.9536" y2="-438.0633" gradientTransform="matrix(1 0 0 1 2175.4014 540.6953)">
		<stop  offset="0.2" style="stop-color:#FFFFFF"/>
		<stop  offset="1" style="stop-color:#FFFFFF"/>
		<stop  offset="1" style="stop-color:#F5F6F7"/>
	</linearGradient>
	<path opacity="0.46" fill="url(#SVGID_34_)" d="M105.939,95.044c0,0,5.486,8.816,6.241,9.141
		c0.753,0.322,11.062,5.592,12.246,5.858c1.188,0.271,1.787,0.233,2.022-0.139v-1.188L105.939,95.044z"/>
	<defs>
		<filter id="Adobe_OpacityMaskFilter_18_" filterUnits="userSpaceOnUse" x="33.437" y="38.73" width="12.557" height="16.175">
			<feFlood  style="flood-color:white;flood-opacity:1" result="back"/>
			<feBlend  in="SourceGraphic" in2="back" mode="normal"/>
		</filter>
	</defs>
	<mask maskUnits="userSpaceOnUse" x="33.437" y="38.73" width="12.557" height="16.175" id="SVGID_35_">
		<g filter="url(#Adobe_OpacityMaskFilter_18_)">
			<defs>
				<filter id="Adobe_OpacityMaskFilter_19_" filterUnits="userSpaceOnUse" x="33.437" y="38.73" width="12.557" height="16.175">
					<feFlood  style="flood-color:white;flood-opacity:1" result="back"/>
					<feBlend  in="SourceGraphic" in2="back" mode="normal"/>
				</filter>
			</defs>
			<mask maskUnits="userSpaceOnUse" x="33.437" y="38.73" width="12.557" height="16.175" id="SVGID_35_">
			</mask>
			
				<linearGradient id="SVGID_36_" gradientUnits="userSpaceOnUse" x1="-2141.9648" y1="-493.8779" x2="-2129.4077" y2="-493.8779" gradientTransform="matrix(1 0 0 1 2175.4014 540.6953)">
				<stop  offset="0.2" style="stop-color:#CCCCCC"/>
				<stop  offset="0.5642" style="stop-color:#B5B5B5"/>
				<stop  offset="1" style="stop-color:#949494"/>
				<stop  offset="1" style="stop-color:#363636"/>
			</linearGradient>
			<path mask="url(#SVGID_35_)" fill="url(#SVGID_36_)" d="M43.821,45.265c-0.916-0.429-4.262-2.557-4.262-2.557l-5.539-3.956
				c-1.312-0.308,0,2.582,0,2.582c0.542,2.639,4.498,7.217,4.498,7.217s3.418,2.421,4.01,3.123c0.591,0.701,3.466,3.231,3.466,3.231
				v-8.023C45.994,46.882,44.737,45.696,43.821,45.265z"/>
		</g>
	</mask>
	
		<linearGradient id="SVGID_37_" gradientUnits="userSpaceOnUse" x1="-2141.9648" y1="-493.8779" x2="-2129.4077" y2="-493.8779" gradientTransform="matrix(1 0 0 1 2175.4014 540.6953)">
		<stop  offset="0.2" style="stop-color:#FFFFFF"/>
		<stop  offset="1" style="stop-color:#FFFFFF"/>
		<stop  offset="1" style="stop-color:#F5F6F7"/>
	</linearGradient>
	<path opacity="0.46" fill="url(#SVGID_37_)" d="M43.821,45.265c-0.916-0.429-4.262-2.557-4.262-2.557l-5.539-3.956
		c-1.312-0.308,0,2.582,0,2.582c0.542,2.639,4.498,7.217,4.498,7.217s3.418,2.421,4.01,3.123c0.591,0.701,3.466,3.231,3.466,3.231
		v-8.023C45.994,46.882,44.737,45.696,43.821,45.265z"/>
	<defs>
		<filter id="Adobe_OpacityMaskFilter_20_" filterUnits="userSpaceOnUse" x="38.026" y="48.847" width="7.968" height="12.601">
			<feFlood  style="flood-color:white;flood-opacity:1" result="back"/>
			<feBlend  in="SourceGraphic" in2="back" mode="normal"/>
		</filter>
	</defs>
	<mask maskUnits="userSpaceOnUse" x="38.026" y="48.847" width="7.968" height="12.601" id="SVGID_38_">
		<g filter="url(#Adobe_OpacityMaskFilter_20_)">
			<defs>
				<filter id="Adobe_OpacityMaskFilter_21_" filterUnits="userSpaceOnUse" x="38.026" y="48.847" width="7.968" height="12.601">
					<feFlood  style="flood-color:white;flood-opacity:1" result="back"/>
					<feBlend  in="SourceGraphic" in2="back" mode="normal"/>
				</filter>
			</defs>
			<mask maskUnits="userSpaceOnUse" x="38.026" y="48.847" width="7.968" height="12.601" id="SVGID_38_">
			</mask>
			
				<linearGradient id="SVGID_39_" gradientUnits="userSpaceOnUse" x1="-2137.3757" y1="-485.5479" x2="-2129.4077" y2="-485.5479" gradientTransform="matrix(1 0 0 1 2175.4014 540.6953)">
				<stop  offset="0.2" style="stop-color:#CCCCCC"/>
				<stop  offset="0.5642" style="stop-color:#B5B5B5"/>
				<stop  offset="1" style="stop-color:#949494"/>
				<stop  offset="1" style="stop-color:#363636"/>
			</linearGradient>
			<path mask="url(#SVGID_38_)" fill="url(#SVGID_39_)" d="M38.934,48.847l3.505,3.292l3.555,3.953v5.355
				c0,0-6.454-7.16-6.886-7.998c-0.431-0.832-1.155-1.478-1.048-2.635c0,0-0.135-0.701,0.134-1.293
				C38.465,48.927,38.934,48.847,38.934,48.847z"/>
		</g>
	</mask>
	
		<linearGradient id="SVGID_40_" gradientUnits="userSpaceOnUse" x1="-2137.3757" y1="-485.5479" x2="-2129.4077" y2="-485.5479" gradientTransform="matrix(1 0 0 1 2175.4014 540.6953)">
		<stop  offset="0.2" style="stop-color:#FFFFFF"/>
		<stop  offset="1" style="stop-color:#FFFFFF"/>
		<stop  offset="1" style="stop-color:#F5F6F7"/>
	</linearGradient>
	<path opacity="0.46" fill="url(#SVGID_40_)" d="M38.934,48.847l3.505,3.292l3.555,3.953v5.355c0,0-6.454-7.16-6.886-7.998
		c-0.431-0.832-1.155-1.478-1.048-2.635c0,0-0.135-0.701,0.134-1.293C38.465,48.927,38.934,48.847,38.934,48.847z"/>
	<defs>
		<filter id="Adobe_OpacityMaskFilter_22_" filterUnits="userSpaceOnUse" x="0.149" y="73.805" width="27.362" height="34.079">
			<feFlood  style="flood-color:white;flood-opacity:1" result="back"/>
			<feBlend  in="SourceGraphic" in2="back" mode="normal"/>
		</filter>
	</defs>
	<mask maskUnits="userSpaceOnUse" x="0.149" y="73.805" width="27.362" height="34.079" id="SVGID_41_">
		<g filter="url(#Adobe_OpacityMaskFilter_22_)">
			<defs>
				<filter id="Adobe_OpacityMaskFilter_23_" filterUnits="userSpaceOnUse" x="0.149" y="73.805" width="27.362" height="34.079">
					<feFlood  style="flood-color:white;flood-opacity:1" result="back"/>
					<feBlend  in="SourceGraphic" in2="back" mode="normal"/>
				</filter>
			</defs>
			<mask maskUnits="userSpaceOnUse" x="0.149" y="73.805" width="27.362" height="34.079" id="SVGID_41_">
			</mask>
			
				<linearGradient id="SVGID_42_" gradientUnits="userSpaceOnUse" x1="-2175.252" y1="-449.8505" x2="-2147.8901" y2="-449.8505" gradientTransform="matrix(1 0 0 1 2175.4014 540.6953)">
				<stop  offset="0.2" style="stop-color:#CCCCCC"/>
				<stop  offset="0.5642" style="stop-color:#B5B5B5"/>
				<stop  offset="1" style="stop-color:#949494"/>
				<stop  offset="1" style="stop-color:#363636"/>
			</linearGradient>
			<path mask="url(#SVGID_41_)" fill="url(#SVGID_42_)" d="M17.129,80.273L5.425,78.382l-5.276-4.577l0.022,6.739l27.339,27.34
				c0,0-1-3.399-2.054-6.834c-1.131-3.698-2.852-9.103-3.391-10.39C21.53,89.366,17.129,80.273,17.129,80.273z"/>
		</g>
	</mask>
	
		<linearGradient id="SVGID_43_" gradientUnits="userSpaceOnUse" x1="-2175.252" y1="-449.8505" x2="-2147.8901" y2="-449.8505" gradientTransform="matrix(1 0 0 1 2175.4014 540.6953)">
		<stop  offset="0.2" style="stop-color:#FFFFFF"/>
		<stop  offset="1" style="stop-color:#FFFFFF"/>
		<stop  offset="1" style="stop-color:#F5F6F7"/>
	</linearGradient>
	<path opacity="0.46" fill="url(#SVGID_43_)" d="M17.129,80.273L5.425,78.382l-5.276-4.577l0.022,6.739l27.339,27.34
		c0,0-1-3.399-2.054-6.834c-1.131-3.698-2.852-9.103-3.391-10.39C21.53,89.366,17.129,80.273,17.129,80.273z"/>
	<defs>
		<filter id="Adobe_OpacityMaskFilter_24_" filterUnits="userSpaceOnUse" x="24.784" y="96.186" width="9.919" height="18.883">
			<feFlood  style="flood-color:white;flood-opacity:1" result="back"/>
			<feBlend  in="SourceGraphic" in2="back" mode="normal"/>
		</filter>
	</defs>
	<mask maskUnits="userSpaceOnUse" x="24.784" y="96.186" width="9.919" height="18.883" id="SVGID_44_">
		<g filter="url(#Adobe_OpacityMaskFilter_24_)">
			<defs>
				<filter id="Adobe_OpacityMaskFilter_25_" filterUnits="userSpaceOnUse" x="24.784" y="96.186" width="9.919" height="18.883">
					<feFlood  style="flood-color:white;flood-opacity:1" result="back"/>
					<feBlend  in="SourceGraphic" in2="back" mode="normal"/>
				</filter>
			</defs>
			<mask maskUnits="userSpaceOnUse" x="24.784" y="96.186" width="9.919" height="18.883" id="SVGID_44_">
			</mask>
			
				<linearGradient id="SVGID_45_" gradientUnits="userSpaceOnUse" x1="-2150.6177" y1="-435.0679" x2="-2140.6987" y2="-435.0679" gradientTransform="matrix(1 0 0 1 2175.4014 540.6953)">
				<stop  offset="0.2" style="stop-color:#CCCCCC"/>
				<stop  offset="0.5642" style="stop-color:#B5B5B5"/>
				<stop  offset="1" style="stop-color:#949494"/>
				<stop  offset="1" style="stop-color:#363636"/>
			</linearGradient>
			<path mask="url(#SVGID_44_)" fill="url(#SVGID_45_)" d="M24.784,96.186c0,0,1.382,0.519,2.728,3.087
				c1.387,2.645,4.985,10.632,4.985,10.632l2.207,5.164l-6.517-6.459c0,0-1.723-6.568-2.082-7.77
				C25.362,98.346,24.784,96.186,24.784,96.186z"/>
		</g>
	</mask>
	
		<linearGradient id="SVGID_46_" gradientUnits="userSpaceOnUse" x1="-2150.6177" y1="-435.0679" x2="-2140.6987" y2="-435.0679" gradientTransform="matrix(1 0 0 1 2175.4014 540.6953)">
		<stop  offset="0.2" style="stop-color:#FFFFFF"/>
		<stop  offset="1" style="stop-color:#FFFFFF"/>
		<stop  offset="1" style="stop-color:#F5F6F7"/>
	</linearGradient>
	<path opacity="0.46" fill="url(#SVGID_46_)" d="M24.784,96.186c0,0,1.382,0.519,2.728,3.087c1.387,2.645,4.985,10.632,4.985,10.632
		l2.207,5.164l-6.517-6.459c0,0-1.723-6.568-2.082-7.77C25.362,98.346,24.784,96.186,24.784,96.186z"/>
	<defs>
		<filter id="Adobe_OpacityMaskFilter_26_" filterUnits="userSpaceOnUse" x="53.146" y="102.769" width="42.097" height="23.499">
			<feFlood  style="flood-color:white;flood-opacity:1" result="back"/>
			<feBlend  in="SourceGraphic" in2="back" mode="normal"/>
		</filter>
	</defs>
	<mask maskUnits="userSpaceOnUse" x="53.146" y="102.769" width="42.097" height="23.499" id="SVGID_47_">
		<g filter="url(#Adobe_OpacityMaskFilter_26_)">
			<defs>
				<filter id="Adobe_OpacityMaskFilter_27_" filterUnits="userSpaceOnUse" x="53.146" y="102.769" width="42.097" height="23.499">
					<feFlood  style="flood-color:white;flood-opacity:1" result="back"/>
					<feBlend  in="SourceGraphic" in2="back" mode="normal"/>
				</filter>
			</defs>
			<mask maskUnits="userSpaceOnUse" x="53.146" y="102.769" width="42.097" height="23.499" id="SVGID_47_">
			</mask>
			
				<linearGradient id="SVGID_48_" gradientUnits="userSpaceOnUse" x1="-2122.2554" y1="-426.1769" x2="-2080.1582" y2="-426.1769" gradientTransform="matrix(1 0 0 1 2175.4014 540.6953)">
				<stop  offset="0.2" style="stop-color:#CCCCCC"/>
				<stop  offset="0.5642" style="stop-color:#B5B5B5"/>
				<stop  offset="1" style="stop-color:#949494"/>
				<stop  offset="1" style="stop-color:#363636"/>
			</linearGradient>
			<path mask="url(#SVGID_47_)" fill="url(#SVGID_48_)" d="M95.243,126.268c0,0-9.223-6.155-9.591-6.524
				c-4.488-3.053-14.695-7.864-15.719-8.434c-1.459-0.816-16.756-8.536-16.756-8.536c-0.481-0.221,4.76,6.601,4.76,6.601
				s3.632,4.652,4.527,5.757c1.122,1.374,8.789,11.137,8.789,11.137H95.243z"/>
		</g>
	</mask>
	
		<linearGradient id="SVGID_49_" gradientUnits="userSpaceOnUse" x1="-2122.2554" y1="-426.1769" x2="-2080.1582" y2="-426.1769" gradientTransform="matrix(1 0 0 1 2175.4014 540.6953)">
		<stop  offset="0.2" style="stop-color:#FFFFFF"/>
		<stop  offset="1" style="stop-color:#FFFFFF"/>
		<stop  offset="1" style="stop-color:#F5F6F7"/>
	</linearGradient>
	<path opacity="0.46" fill="url(#SVGID_49_)" d="M95.243,126.268c0,0-9.223-6.155-9.591-6.524
		c-4.488-3.053-14.695-7.864-15.719-8.434c-1.459-0.816-16.756-8.536-16.756-8.536c-0.481-0.221,4.76,6.601,4.76,6.601
		s3.632,4.652,4.527,5.757c1.122,1.374,8.789,11.137,8.789,11.137H95.243z"/>
	
		<linearGradient id="SVGID_50_" gradientUnits="userSpaceOnUse" x1="-2110.8882" y1="-453.9839" x2="-2087.8398" y2="-453.9839" gradientTransform="matrix(1 0 0 1 2175.4014 540.6953)">
		<stop  offset="0.1758" style="stop-color:#F0EFEF"/>
		<stop  offset="0.5853" style="stop-color:#DADADA"/>
		<stop  offset="0.76" style="stop-color:#D0D1D0"/>
	</linearGradient>
	<path fill="url(#SVGID_50_)" d="M87.562,92.882c0,0-4.535-5.904-5.603-6.958c-1.086-1.079-4.377-5.384-4.377-5.384h-6.248h-6.82
		l3.233,2.97c0,0,12.711,6.005,14.499,6.714c2.234,0.89,4.132,1.953,4.132,1.953h-0.002C87.089,92.605,87.562,92.882,87.562,92.882z
		"/>
	
		<linearGradient id="SVGID_51_" gradientUnits="userSpaceOnUse" x1="-2106.7913" y1="-430.3472" x2="-2048.9536" y2="-430.3472" gradientTransform="matrix(1 0 0 1 2175.4014 540.6953)">
		<stop  offset="0.1758" style="stop-color:#F0EFEF"/>
		<stop  offset="0.5853" style="stop-color:#DADADA"/>
		<stop  offset="0.76" style="stop-color:#D0D1D0"/>
	</linearGradient>
	<path fill="url(#SVGID_51_)" d="M126.423,112.701c0,0-5.695-2.967-7.718-4.017c-1.636-0.849-7.322-3.813-7.322-3.813l-15.532-5.39
		c0,0-10.272-1.451-13.462-2.295c-2.173-0.567-10.319-2.068-13.769-2.758c-0.247-0.09,4.638,4.909,6.16,6.459
		c1.142,1.157,10.557,9.802,10.557,9.802s6.497,5.751,9.046,7.752c1.256,0.988,3.285,2.436,5.268,3.82
		c0.658,0.449,6.06,4.006,12.77,4.006h14.028v-8.974L126.423,112.701z"/>
	
		<linearGradient id="SVGID_52_" gradientUnits="userSpaceOnUse" x1="-2142.1414" y1="-434.875" x2="-2074.7764" y2="-434.875" gradientTransform="matrix(1 0 0 1 2175.4014 540.6953)">
		<stop  offset="0.1758" style="stop-color:#F0EFEF"/>
		<stop  offset="0.5853" style="stop-color:#DADADA"/>
		<stop  offset="0.76" style="stop-color:#D0D1D0"/>
	</linearGradient>
	<path fill="url(#SVGID_52_)" d="M97.078,123.391c-4.94-4.533-18.505-17.039-21.722-20.601c-2.681-2.963-10.788-9.402-10.788-9.402
		s-6.351-1.665-8.956-2.46c-2.799-0.854-11.305-3.068-11.305-3.068l-10.763-2.487c-2.268,0,9.792,11.537,9.792,11.537
		s21.42,10.876,22.815,11.583c1.483,0.756,7.048,3.563,13.178,6.669l0,0l16.454,9.462c0,0,2.652,1.645,3.929,1.645
		c0.245,0,0.791,0,0.913,0L97.078,123.391L97.078,123.391z"/>
	<defs>
		<filter id="Adobe_OpacityMaskFilter_28_" filterUnits="userSpaceOnUse" x="18.783" y="80.54" width="49.808" height="45.728">
			<feFlood  style="flood-color:white;flood-opacity:1" result="back"/>
			<feBlend  in="SourceGraphic" in2="back" mode="normal"/>
		</filter>
	</defs>
	<mask maskUnits="userSpaceOnUse" x="18.783" y="80.54" width="49.808" height="45.728" id="SVGID_53_">
		<g filter="url(#Adobe_OpacityMaskFilter_28_)">
			<defs>
				<filter id="Adobe_OpacityMaskFilter_29_" filterUnits="userSpaceOnUse" x="18.783" y="80.54" width="49.808" height="45.728">
					<feFlood  style="flood-color:white;flood-opacity:1" result="back"/>
					<feBlend  in="SourceGraphic" in2="back" mode="normal"/>
				</filter>
			</defs>
			<mask maskUnits="userSpaceOnUse" x="18.783" y="80.54" width="49.808" height="45.728" id="SVGID_53_">
			</mask>
			
				<linearGradient id="SVGID_54_" gradientUnits="userSpaceOnUse" x1="-2156.6182" y1="-437.291" x2="-2106.8098" y2="-437.291" gradientTransform="matrix(1 0 0 1 2175.4014 540.6953)">
				<stop  offset="0.2" style="stop-color:#CCCCCC"/>
				<stop  offset="0.5642" style="stop-color:#B5B5B5"/>
				<stop  offset="1" style="stop-color:#949494"/>
				<stop  offset="1" style="stop-color:#363636"/>
			</linearGradient>
			<path mask="url(#SVGID_53_)" fill="url(#SVGID_54_)" d="M68.057,123.935h-0.002v-0.003c-0.173-0.245-3.232-4.26-3.449-4.542
				c-0.882-1.155-3.145-3.918-5.21-6.429c-2.132-2.587-9.615-9.608-9.615-9.608l-3.788-3.789l-6.266-4.544L29.489,84.273
				L18.783,80.54l19.506,38.121l7.612,7.606h22.092C69.219,126.268,68.205,124.147,68.057,123.935z"/>
		</g>
	</mask>
	
		<linearGradient id="SVGID_55_" gradientUnits="userSpaceOnUse" x1="-2156.6182" y1="-437.291" x2="-2106.8098" y2="-437.291" gradientTransform="matrix(1 0 0 1 2175.4014 540.6953)">
		<stop  offset="0.2" style="stop-color:#FFFFFF"/>
		<stop  offset="1" style="stop-color:#FFFFFF"/>
		<stop  offset="1" style="stop-color:#F5F6F7"/>
	</linearGradient>
	<path opacity="0.46" fill="url(#SVGID_55_)" d="M68.057,123.935h-0.002v-0.003c-0.173-0.245-3.232-4.26-3.449-4.542
		c-0.882-1.155-3.145-3.918-5.21-6.429c-2.132-2.587-9.615-9.608-9.615-9.608l-3.788-3.789l-6.266-4.544L29.489,84.273L18.783,80.54
		l19.506,38.121l7.612,7.606h22.092C69.219,126.268,68.205,124.147,68.057,123.935z"/>
	<g>
		
			<linearGradient id="SVGID_56_" gradientUnits="userSpaceOnUse" x1="-2094.6313" y1="-455.1167" x2="-2048.9536" y2="-455.1167" gradientTransform="matrix(1 0 0 1 2175.4014 540.6953)">
			<stop  offset="0.1758" style="stop-color:#F0EFEF"/>
			<stop  offset="0.5853" style="stop-color:#DADADA"/>
			<stop  offset="0.76" style="stop-color:#D0D1D0"/>
		</linearGradient>
		<path fill="url(#SVGID_56_)" d="M119.436,65.284c-0.455-0.785-1.747-1.719-2.452-2.197h-4.564h-0.773H80.77v10.127l15.013,12.117
			c0,0,7.32,5.866,8.667,7.482c1.345,1.616,6.353,4.739,6.353,4.739s6.704,4.626,9.102,6.12c3.1,1.937,6.543,4.398,6.543,4.398
			V74.563C124.913,72.585,119.981,66.217,119.436,65.284z"/>
		
			<linearGradient id="SVGID_57_" gradientUnits="userSpaceOnUse" x1="-2057.2671" y1="-472.8326" x2="-2048.9536" y2="-472.8326" gradientTransform="matrix(1 0 0 1 2175.4014 540.6953)">
			<stop  offset="0.1758" style="stop-color:#F0EFEF"/>
			<stop  offset="0.5853" style="stop-color:#DADADA"/>
			<stop  offset="0.76" style="stop-color:#D0D1D0"/>
		</linearGradient>
		<path fill="url(#SVGID_57_)" d="M122.17,68.117c2.787,3.499,4.278,4.522,4.278,4.522v-1.113v-0.63v-7.81h-8.314
			C118.674,63.747,120.042,65.447,122.17,68.117z"/>
	</g>
	
		<linearGradient id="SVGID_58_" gradientUnits="userSpaceOnUse" x1="-2175.2295" y1="-479.5434" x2="-2097.8369" y2="-479.5434" gradientTransform="matrix(1 0 0 1 2175.4014 540.6953)">
		<stop  offset="0.1758" style="stop-color:#F0EFEF"/>
		<stop  offset="0.5853" style="stop-color:#DADADA"/>
		<stop  offset="0.76" style="stop-color:#D0D1D0"/>
	</linearGradient>
	<path fill="url(#SVGID_58_)" d="M72.268,89.26l-8.719-8.654L45.994,63.197v-0.11c0,0-8.837-10.252-13.035-14.571
		c-4.877-5.03-13.964-13.854-13.964-13.854s-2.475-0.993-6.19-2.58c-3.716-1.584-7.808-3.305-7.808-3.305s-3.839-2.019-4.826-1.081
		v31.462c0,0,11.486,13.675,12.718,14.867c1.242,1.18,5.53,4.897,5.893,5.054c2.714,1.185,10.965,4.213,12.382,4.632
		c3.002,0.89,15.108,3.878,15.108,3.878l15.678,4.129c0,0,13.826,4.088,15.613,2.934L72.268,89.26z"/>
	
		<linearGradient id="SVGID_59_" gradientUnits="userSpaceOnUse" x1="-2162.6606" y1="-376.5698" x2="-2151.7217" y2="-376.5698" gradientTransform="matrix(1 0 0 1 2175.4014 540.6953)">
		<stop  offset="0.1758" style="stop-color:#F0EFEF"/>
		<stop  offset="0.5853" style="stop-color:#DADADA"/>
		<stop  offset="0.76" style="stop-color:#D0D1D0"/>
	</linearGradient>
	<path fill="url(#SVGID_59_)" d="M23.292,167.393c0-2.233-0.705-2.511-1.88-2.942c1.297-0.355,1.88-1.437,1.88-2.719
		c0-2.156-1.232-3.157-4.932-3.157h-5.221h-0.025h-0.373v0.338c0.236,0,0.342,0.212,0.373,1.151v9.612h3.64v-3.87h1.112
		c1.695,0,1.942,0.477,1.942,1.925c0,0.985,0.095,1.696,0.185,1.945h3.686v-0.341C23.389,169.335,23.292,169.03,23.292,167.393z
		 M18.191,163.373h-1.437v-2.212h1.697c0.849,0,1.464,0.374,1.464,1.158C19.915,163.089,19.316,163.373,18.191,163.373z"/>
	
		<linearGradient id="SVGID_60_" gradientUnits="userSpaceOnUse" x1="-2151.6348" y1="-376.5698" x2="-2139.9761" y2="-376.5698" gradientTransform="matrix(1 0 0 1 2175.4014 540.6953)">
		<stop  offset="0.1758" style="stop-color:#F0EFEF"/>
		<stop  offset="0.5853" style="stop-color:#DADADA"/>
		<stop  offset="0.76" style="stop-color:#D0D1D0"/>
	</linearGradient>
	<path fill="url(#SVGID_60_)" d="M27.744,158.575l-3.978,11.102h3.563l0.415-1.463h3.627l0.429,1.463h3.625l-3.98-11.102H27.744z
		 M28.438,165.9l1.126-3.981l1.17,3.981H28.438z"/>
	
		<linearGradient id="SVGID_61_" gradientUnits="userSpaceOnUse" x1="-2139.7891" y1="-376.5698" x2="-2128.7007" y2="-376.5698" gradientTransform="matrix(1 0 0 1 2175.4014 540.6953)">
		<stop  offset="0.1758" style="stop-color:#F0EFEF"/>
		<stop  offset="0.5853" style="stop-color:#DADADA"/>
		<stop  offset="0.76" style="stop-color:#D0D1D0"/>
	</linearGradient>
	<path fill="url(#SVGID_61_)" d="M43.215,162.103l0.142,2.528l-3.966-6.057h-3.38h-0.027h-0.371v0.338
		c0.223,0,0.333,0.186,0.371,1.035v9.729h3.483v-3.516l-0.138-2.53l3.968,6.046h3.405v-11.102h-3.486V162.103z"/>
	
		<linearGradient id="SVGID_62_" gradientUnits="userSpaceOnUse" x1="-2127.1738" y1="-376.5698" x2="-2123.5371" y2="-376.5698" gradientTransform="matrix(1 0 0 1 2175.4014 540.6953)">
		<stop  offset="0.1758" style="stop-color:#F0EFEF"/>
		<stop  offset="0.5853" style="stop-color:#DADADA"/>
		<stop  offset="0.76" style="stop-color:#D0D1D0"/>
	</linearGradient>
	<rect x="48.228" y="158.575" fill="url(#SVGID_62_)" width="3.637" height="11.102"/>
	
		<linearGradient id="SVGID_63_" gradientUnits="userSpaceOnUse" x1="-2122.6133" y1="-376.5698" x2="-2112.4355" y2="-376.5698" gradientTransform="matrix(1 0 0 1 2175.4014 540.6953)">
		<stop  offset="0.1758" style="stop-color:#F0EFEF"/>
		<stop  offset="0.5853" style="stop-color:#DADADA"/>
		<stop  offset="0.76" style="stop-color:#D0D1D0"/>
	</linearGradient>
	<polygon fill="url(#SVGID_63_)" points="52.788,161.162 56.061,161.162 56.061,169.676 59.698,169.676 59.698,161.162 
		62.966,161.162 62.966,158.575 52.788,158.575 	"/>
	
		<linearGradient id="SVGID_64_" gradientUnits="userSpaceOnUse" x1="-2095.2051" y1="-376.5698" x2="-2084.2642" y2="-376.5698" gradientTransform="matrix(1 0 0 1 2175.4014 540.6953)">
		<stop  offset="0.1758" style="stop-color:#F0EFEF"/>
		<stop  offset="0.5853" style="stop-color:#DADADA"/>
		<stop  offset="0.76" style="stop-color:#D0D1D0"/>
	</linearGradient>
	<path fill="url(#SVGID_64_)" d="M90.753,167.393c0-2.233-0.712-2.511-1.883-2.942c1.294-0.355,1.883-1.437,1.883-2.719
		c0-2.156-1.232-3.157-4.937-3.157h-5.219h-0.024h-0.376v0.338c0.243,0,0.349,0.214,0.376,1.226v9.538h3.639v-3.87h1.113
		c1.695,0,1.943,0.477,1.943,1.925c0,0.985,0.088,1.696,0.183,1.945h3.687v-0.341C90.841,169.335,90.753,169.03,90.753,167.393z
		 M85.649,163.373h-1.438v-2.212h1.7c0.843,0,1.464,0.374,1.464,1.158C87.375,163.089,86.776,163.373,85.649,163.373z"/>
	
		<linearGradient id="SVGID_65_" gradientUnits="userSpaceOnUse" x1="-2083.8032" y1="-376.5699" x2="-2072.1602" y2="-376.5699" gradientTransform="matrix(1 0 0 1 2175.4014 540.6953)">
		<stop  offset="0.1758" style="stop-color:#F0EFEF"/>
		<stop  offset="0.5853" style="stop-color:#DADADA"/>
		<stop  offset="0.76" style="stop-color:#D0D1D0"/>
	</linearGradient>
	<path fill="url(#SVGID_65_)" d="M97.409,158.278c-3.45,0-5.811,2.27-5.811,5.755c0,3.782,2.327,5.94,5.811,5.94
		c3.29,0,5.832-2.133,5.832-5.911C103.241,161.136,101.375,158.278,97.409,158.278z M97.409,167.255
		c-1.74,0-2.172-1.774-2.172-3.193c0-1.401,0.496-3.068,2.147-3.068c1.618,0,2.218,1.561,2.218,3.068
		C99.602,165.9,98.984,167.255,97.409,167.255z"/>
	
		<linearGradient id="SVGID_66_" gradientUnits="userSpaceOnUse" x1="-2071.4785" y1="-376.4214" x2="-2060.4233" y2="-376.4214" gradientTransform="matrix(1 0 0 1 2175.4014 540.6953)">
		<stop  offset="0.1758" style="stop-color:#F0EFEF"/>
		<stop  offset="0.5853" style="stop-color:#DADADA"/>
		<stop  offset="0.76" style="stop-color:#D0D1D0"/>
	</linearGradient>
	<path fill="url(#SVGID_66_)" d="M114.978,164.851v-6.276h-3.645v6.644c0,1.204-0.384,2.037-1.694,2.037
		c-1.495,0-1.716-0.94-1.716-2.037v-6.644h-3.6h-0.035h-0.365v0.338c0.215,0,0.324,0.174,0.365,0.938v4.985
		c0,3.822,1.911,5.137,5.352,5.137C113.326,169.973,114.978,168.411,114.978,164.851z"/>
	
		<linearGradient id="SVGID_67_" gradientUnits="userSpaceOnUse" x1="-2058.9028" y1="-376.5698" x2="-2048.814" y2="-376.5698" gradientTransform="matrix(1 0 0 1 2175.4014 540.6953)">
		<stop  offset="0.1758" style="stop-color:#F0EFEF"/>
		<stop  offset="0.5853" style="stop-color:#DADADA"/>
		<stop  offset="0.76" style="stop-color:#D0D1D0"/>
	</linearGradient>
	<path fill="url(#SVGID_67_)" d="M126.587,162.32c0-2.279-1.544-3.745-4.741-3.745h-5.348v11.102h3.641v-3.454h1.839
		C125.167,166.222,126.587,164.71,126.587,162.32z M120.14,163.63v-2.469h1.035c0.769,0,1.943,0.138,1.943,1.171
		c0,0.958-0.617,1.298-1.466,1.298H120.14z"/>
	
		<linearGradient id="SVGID_68_" gradientUnits="userSpaceOnUse" x1="-2175.3789" y1="-376.5699" x2="-2163.7344" y2="-376.5699" gradientTransform="matrix(1 0 0 1 2175.4014 540.6953)">
		<stop  offset="0.1758" style="stop-color:#F0EFEF"/>
		<stop  offset="0.5853" style="stop-color:#DADADA"/>
		<stop  offset="0.76" style="stop-color:#D0D1D0"/>
	</linearGradient>
	<path fill="url(#SVGID_68_)" d="M8.935,163.533H8.684H8.002H6.687v2.445h1.021c-0.328,0.786-0.922,1.277-1.867,1.277
		c-1.746,0-2.18-1.774-2.18-3.19c0-1.404,0.497-3.071,2.146-3.071c0.992,0,1.598,0.585,1.927,1.386h3.715
		c-0.593-2.252-2.418-4.102-5.608-4.102c-3.457,0-5.818,2.27-5.818,5.755c0,3.782,2.327,5.94,5.818,5.94
		c1.147,0,2.206-0.27,3.095-0.767v0.47h2.732v-6.144h-0.019H8.935z"/>
	
		<linearGradient id="SVGID_69_" gradientUnits="userSpaceOnUse" x1="-2107.9199" y1="-376.5699" x2="-2096.2734" y2="-376.5699" gradientTransform="matrix(1 0 0 1 2175.4014 540.6953)">
		<stop  offset="0.1758" style="stop-color:#F0EFEF"/>
		<stop  offset="0.5853" style="stop-color:#DADADA"/>
		<stop  offset="0.76" style="stop-color:#D0D1D0"/>
	</linearGradient>
	<path fill="url(#SVGID_69_)" d="M76.393,163.533h-0.246h-0.688h-1.313v2.445h1.024c-0.331,0.786-0.929,1.277-1.876,1.277
		c-1.739,0-2.173-1.774-2.173-3.19c0-1.404,0.493-3.071,2.145-3.071c0.989,0,1.599,0.585,1.922,1.386h3.72
		c-0.591-2.252-2.424-4.102-5.615-4.102c-3.456,0-5.813,2.27-5.813,5.755c0,3.782,2.331,5.94,5.813,5.94
		c1.15,0,2.208-0.27,3.098-0.767v0.47h2.735v-6.144h-0.022H76.393z"/>
</g>
</svg>
